<?xml version="1.0" standalone="no"?>
<!DOCTYPE svg PUBLIC "-//W3C//DTD SVG 1.1//EN" "http://www.w3.org/Graphics/SVG/1.1/DTD/svg11.dtd" >
<svg xmlns="http://www.w3.org/2000/svg" xmlns:xlink="http://www.w3.org/1999/xlink" version="1.1">
<metadata>
Created by FontForge 20170731 at Tue Sep 13 18:45:25 2022
 By Aleksey,,,
Copyright (c) 2012 by Vyacheslav Kirilenko, Gayane Bagdasaryan. All rights reserved.
</metadata>
<defs>
<font id="Geometria-ExtraBold" horiz-adv-x="1351" >
  <font-face 
    font-family="Geometria"
    font-weight="800"
    font-stretch="normal"
    units-per-em="2048"
    panose-1="2 11 8 3 2 2 4 2 2 4"
    ascent="1638"
    descent="-410"
    x-height="1040"
    cap-height="1434"
    bbox="-1020 -594 2912 1931"
    underline-thickness="102"
    underline-position="-307"
    unicode-range="U+0020-FB04"
  />
<missing-glyph horiz-adv-x="1271" 
d="M403 1176v-918h431v918h-431zM1126 0h-1013v1434h1013v-1434z" />
    <glyph glyph-name="ij" unicode="ij" horiz-adv-x="1228" 
d="M909 1135q-87 0 -147 60.5t-60 147.5q0 88 60.5 148.5t146.5 60.5q88 0 148.5 -60.5t60.5 -148.5t-60.5 -148t-148.5 -60zM674 -422q-167 0 -246 43v297q67 -33 152 -33q151 0 151 148v1007h363v-1038q0 -197 -111.5 -310.5t-308.5 -113.5zM498 0h-363v1040h363v-1040z
M315 1135q-86 0 -146 60t-60 148t60 148.5t146 60.5q88 0 148.5 -60.5t60.5 -148.5t-60.5 -148t-148.5 -60z" />
    <glyph glyph-name="f_f" unicode="ff" horiz-adv-x="1703" 
d="M1360 750v-750h-363v750h-430v-750h-362v750h-174v290h174v56q0 167 98 266.5t283 99.5q165 0 284 -45v-278q-82 30 -178 30q-125 0 -125 -110v-19h430v56q0 167 98 266.5t283 99.5q166 0 285 -45v-278q-83 30 -178 30q-125 0 -125 -110v-19h303v-290h-303z" />
    <glyph glyph-name="fi" unicode="fi" horiz-adv-x="1499" 
d="M205 0v750h-174v290h174v56q0 167 98 266.5t283 99.5q165 0 284 -45v-278q-82 30 -178 30q-125 0 -125 -110v-19h793v-1040h-363v750h-430v-750h-362zM1180 1135q-86 0 -146.5 60.5t-60.5 147.5q0 88 60.5 148.5t146.5 60.5q88 0 148.5 -60.5t60.5 -148.5t-60.5 -148
t-148.5 -60z" />
    <glyph glyph-name="fl" unicode="fl" horiz-adv-x="1556" 
d="M1294 -27q-297 0 -297 303v474h-430v-750h-362v750h-174v290h174v56q0 167 98 266.5t283 99.5q165 0 284 -45v-278q-82 30 -178 30q-125 0 -125 -110v-19h430v394h363v-1072q0 -79 74 -79q36 0 61 14v-285q-74 -39 -201 -39z" />
    <glyph glyph-name="f_f_i" unicode="ffi" horiz-adv-x="2273" 
d="M1790 0v750h-430v-750h-363v750h-430v-750h-362v750h-174v290h174v56q0 167 98 266.5t283 99.5q165 0 284 -45v-278q-82 30 -178 30q-125 0 -125 -110v-19h430v56q0 167 98 266.5t283 99.5q166 0 285 -45v-278q-83 30 -178 30q-125 0 -125 -110v-19h792v-1040h-362z
M1970 1135q-86 0 -146.5 60.5t-60.5 147.5q0 88 60.5 148.5t146.5 60.5q88 0 148.5 -60.5t60.5 -148.5t-60.5 -148t-148.5 -60z" />
    <glyph glyph-name="f_f_l" unicode="ffl" horiz-adv-x="2349" 
d="M2087 -27q-297 0 -297 303v474h-430v-750h-363v750h-430v-750h-362v750h-174v290h174v56q0 167 98 266.5t283 99.5q165 0 284 -45v-278q-82 30 -178 30q-125 0 -125 -110v-19h430v56q0 167 98 266.5t283 99.5q166 0 285 -45v-278q-83 30 -178 30q-125 0 -125 -110v-19
h430v394h362v-1072q0 -79 74 -79q37 0 62 14v-285q-74 -39 -201 -39z" />
    <glyph glyph-name=".notdef" horiz-adv-x="1271" 
d="M403 1176v-918h431v918h-431zM1126 0h-1013v1434h1013v-1434z" />
    <glyph glyph-name=".null" horiz-adv-x="0" 
 />
    <glyph glyph-name="nonmarkingreturn" horiz-adv-x="682" 
 />
    <glyph glyph-name="space" unicode=" " horiz-adv-x="516" 
 />
    <glyph glyph-name="exclam" unicode="!" horiz-adv-x="739" 
d="M154 186q0 91 62 154t153 63t153 -63t62 -154q0 -87 -64 -151q-61 -64 -151 -64t-154 64q-61 64 -61 151zM535 496h-330l-84 938h497z" />
    <glyph glyph-name="quotedbl" unicode="&#x22;" horiz-adv-x="843" 
d="M362 778h-311v656h311v-656zM793 778h-312v656h312v-656z" />
    <glyph glyph-name="numbersign" unicode="#" horiz-adv-x="1642" 
d="M580 0h-281l51 317h-278l45 277h276l39 246h-276l43 276h278l49 318h281l-49 -318h256l49 318h280l-49 -318h277l-45 -276h-277l-39 -246h279l-45 -277h-277l-51 -317h-280l51 317h-256zM713 840l-39 -246h256l39 246h-256z" />
    <glyph glyph-name="dollar" unicode="$" horiz-adv-x="1302" 
d="M819 -219h-315v199q-247 27 -416 145v377q86 -80 246 -140q152 -57 295 -57q219 0 219 113q0 29 -13 46.5t-42 37.5q-13 11 -93 37l-129 39l-104 30l-94 37q-56 22 -94 45q-112 84 -140 131q-51 96 -51 211q0 172 109.5 280t306.5 138v203h315v-205q164 -27 318 -105
v-354q-90 56 -228 98q-134 41 -254 41q-188 0 -188 -94q0 -40 59 -65l66 -23q23 -7 96 -28t100 -29q207 -68 324 -170t117 -287q0 -170 -111 -287.5t-299 -154.5v-209z" />
    <glyph glyph-name="percent" unicode="%" horiz-adv-x="1677" 
d="M528 0h-243l866 1434h244zM135 1346q105 102 266 102q162 0 267 -102q104 -101 104 -254t-104 -254q-106 -103 -267 -103q-160 0 -266 103q-104 101 -104 254t104 254zM307 991q37 -38 94.5 -38t94.5 38q37 41 37 101t-37 98q-37 41 -94.5 41t-94.5 -41q-37 -38 -37 -98
t37 -101zM1010 596q105 102 266 102t266 -102t105 -254t-105 -254t-266 -102t-266 102t-105 254t105 254zM1182 242q37 -38 94 -38t94 38q37 41 37 100.5t-37 97.5q-37 41 -94 41t-94 -41q-37 -38 -37 -97.5t37 -100.5z" />
    <glyph glyph-name="ampersand" unicode="&#x26;" horiz-adv-x="1583" 
d="M1251 319l322 -319h-443l-98 92q-183 -121 -403 -121q-248 0 -406 125q-157 127 -157 348q0 142 73 246q75 106 168 156q-71 109 -71 227q0 168 120 279q119 110 318 110q226 0 395 -100v-336q-157 127 -324 127q-149 0 -149 -109q0 -72 158 -227l260 -260q43 81 49 236
h332q-9 -257 -144 -474zM643 281q88 0 152 43l-291 297q-37 -21 -60.5 -63t-23.5 -91q0 -84 62 -135t161 -51z" />
    <glyph glyph-name="quotesingle" unicode="'" horiz-adv-x="413" 
d="M362 778h-311v656h311v-656z" />
    <glyph glyph-name="parenleft" unicode="(" horiz-adv-x="841" 
d="M795 -422h-369q-293 376 -293 934t293 934h369q-328 -421 -328 -934t328 -934z" />
    <glyph glyph-name="parenright" unicode=")" horiz-adv-x="841" 
d="M416 -422h-369q328 421 328 934t-328 934h369q293 -376 293 -934t-293 -934z" />
    <glyph glyph-name="asterisk" unicode="*" horiz-adv-x="858" 
d="M528 668h-198l8 225l-191 -121l-100 174l201 105l-201 104l100 174l191 -123l-8 228h198l-8 -228l191 123l100 -174l-201 -104l201 -105l-100 -174l-191 121z" />
    <glyph glyph-name="plus" unicode="+" horiz-adv-x="1339" 
d="M829 137h-319v377h-377v320h377v378h319v-378h377v-320h-377v-377z" />
    <glyph glyph-name="comma" unicode="," horiz-adv-x="669" 
d="M332 -311h-289l184 671h369z" />
    <glyph glyph-name="hyphen" unicode="-" horiz-adv-x="1050" 
d="M856 414h-661v319h661v-319z" />
    <glyph glyph-name="period" unicode="." horiz-adv-x="573" 
d="M438 35q-61 -64 -151 -64t-154 64q-61 64 -61 153q0 91 61 152q63 63 154 63t151 -63q64 -61 64 -152q0 -89 -64 -153z" />
    <glyph glyph-name="slash" unicode="/" horiz-adv-x="1118" 
d="M285 -287h-342l862 1909h342z" />
    <glyph glyph-name="zero" unicode="0" horiz-adv-x="1445" 
d="M1069 80q-148 -109 -346 -109t-346 109q-147 108 -217 274q-70 168 -70 363q0 201 71.5 366t215.5 271q147 108 346 108t346 -108t217 -277q70 -165 70 -360q0 -201 -71.5 -366t-215.5 -271zM723 309q127 0 195 121q69 117 69 287t-69 287q-68 120 -195 120
q-125 0 -195 -120q-69 -117 -69 -287t69 -287q71 -121 195 -121z" />
    <glyph glyph-name="one" unicode="1" horiz-adv-x="821" 
d="M684 0h-362v1044l-293 -135v355l336 170h319v-1434z" />
    <glyph glyph-name="two" unicode="2" horiz-adv-x="1191" 
d="M1106 0h-1040v266l387 344q135 122 187 198.5t52 154.5q0 73 -56 117t-147 44q-191 0 -374 -151v368q174 121 413 121q215 0 373 -125q160 -124 160 -329q0 -150 -68 -271q-65 -117 -235 -268l-174 -156h522v-313z" />
    <glyph glyph-name="three" unicode="3" horiz-adv-x="1191" 
d="M78 90v342q210 -137 428 -137q107 0 175.5 51.5t68.5 140.5q0 81 -63 133t-167 52q-127 0 -225 -49v239l303 262h-481v310h936v-277l-279 -246q112 -27 219 -120q59 -51 93 -130.5t34 -173.5q0 -238 -172 -376q-172 -140 -424 -140q-254 0 -446 119z" />
    <glyph glyph-name="four" unicode="4" horiz-adv-x="1325" 
d="M1085 0h-358v340h-690v258l684 836h364v-807h199v-287h-199v-340zM727 987l-301 -360h301v360z" />
    <glyph glyph-name="five" unicode="5" horiz-adv-x="1198" 
d="M498 -29q-233 0 -416 103v342q195 -121 397 -121q119 0 191.5 48t72.5 144q0 89 -72 141t-200 52q-149 0 -344 -66l94 820h795v-314h-522l-19 -157q44 8 88 8q241 0 395 -133q156 -132 156 -351q0 -248 -178 -383q-180 -133 -438 -133z" />
    <glyph glyph-name="six" unicode="6" horiz-adv-x="1308" 
d="M682 -29q-279 0 -432 181q-154 183 -154 491q0 324 158 561q81 121 215 189.5t301 68.5q189 0 334 -92v-326q-133 95 -291 95q-140 0 -233 -82.5t-105 -212.5q115 112 289 112q196 0 326 -127q129 -126 129 -344q0 -227 -154 -372q-151 -142 -383 -142zM659 279
q86 0 139.5 54t53.5 142q0 86 -53 143.5t-137 57.5q-133 0 -203 -125q0 -129 54 -200.5t146 -71.5z" />
    <glyph glyph-name="seven" unicode="7" horiz-adv-x="1181" 
d="M535 0h-392l553 1112h-633v322h1047v-287z" />
    <glyph glyph-name="eight" unicode="8" horiz-adv-x="1302" 
d="M979 762q111 -39 183.5 -136t72.5 -212q0 -209 -170 -326t-414 -117q-245 0 -415 117q-168 116 -168 326q0 115 72.5 212t183.5 136q-85 37 -140 118.5t-55 174.5q0 181 147 295q147 112 375 112q229 0 373 -112q150 -114 150 -295q0 -93 -55 -174.5t-140 -118.5z
M774 1118q-50 41 -123.5 41t-124.5 -41q-50 -41 -50 -102.5t50 -102.5q51 -38 125 -38t123 38q51 41 51 102.5t-51 102.5zM860 444q0 72 -59.5 120t-149.5 48t-149.5 -48t-59.5 -120q0 -70 59.5 -117.5t149.5 -47.5t149.5 47.5t59.5 117.5z" />
    <glyph glyph-name="nine" unicode="9" horiz-adv-x="1308" 
d="M539 -29q-189 0 -334 92v326q131 -94 291 -94q140 0 233 82.5t105 212.5q-116 -113 -289 -113q-196 0 -326 127q-129 126 -129 344q0 228 152 371t385 143q279 0 432 -182q153 -181 153 -489q0 -327 -159 -564q-80 -119 -213.5 -187.5t-300.5 -68.5zM647 758
q133 0 203 125q0 129 -54.5 200.5t-146.5 71.5q-86 0 -139 -54.5t-53 -142.5q0 -86 53 -143t137 -57z" />
    <glyph glyph-name="colon" unicode=":" horiz-adv-x="573" 
d="M438 666q-61 -64 -151 -64t-154 64q-61 64 -61 153q0 91 61 152q63 63 154 63t151 -63q64 -61 64 -152q0 -89 -64 -153zM438 35q-61 -64 -151 -64t-154 64q-61 64 -61 153q0 91 61 152q63 63 154 63t151 -63q64 -61 64 -152q0 -89 -64 -153z" />
    <glyph glyph-name="semicolon" unicode=";" horiz-adv-x="675" 
d="M332 -311h-289l184 671h369zM539 666q-61 -64 -152 -64q-90 0 -154 64q-61 64 -61 153q0 91 64 152q63 63 151.5 63t151.5 -63q63 -60 63 -152q0 -90 -63 -153z" />
    <glyph glyph-name="less" unicode="&#x3c;" horiz-adv-x="1339" 
d="M1206 438v-352l-1073 426v342l1073 426v-350l-710 -246z" />
    <glyph glyph-name="equal" unicode="=" horiz-adv-x="1339" 
d="M1206 281h-1073v323h1073v-323zM1206 745h-1073v324h1073v-324z" />
    <glyph glyph-name="greater" unicode="&#x3e;" horiz-adv-x="1339" 
d="M1206 512l-1073 -426v352l711 246l-711 246v350l1073 -426v-342z" />
    <glyph glyph-name="question" unicode="?" horiz-adv-x="1026" 
d="M608 35q-61 -64 -151 -64t-154 64q-61 64 -61 153q0 92 63 152q63 63 151.5 63t151.5 -63q64 -61 64 -152q0 -89 -64 -153zM623 496h-344v305q136 24 237 82q102 59 102 135q0 119 -198 119q-172 0 -373 -109v315q180 119 434 119q212 0 359 -108q149 -107 149 -310
q0 -151 -110 -258q-105 -105 -256 -153v-137z" />
    <glyph glyph-name="at" unicode="@" horiz-adv-x="1906" 
d="M954 -332q-377 0 -637 254q-258 255 -258 643q0 380 260 637q260 260 635 260q381 0 635 -245q258 -246 258 -599q0 -237 -106.5 -376.5t-280.5 -139.5q-213 0 -309 140q-108 -150 -307 -150q-180 0 -295 133q-115 136 -115 336q0 203 115 336t291 133q167 0 272 -123
v101h293v-592q0 -203 133 -203q91 0 156 111t65 294q0 318 -223 541q-220 225 -582 225q-349 0 -579 -239q-228 -237 -228 -580q0 -346 228 -583q227 -236 579 -236q234 0 451 129v-88q-198 -119 -451 -119zM934 356q118 0 178 97v217q-59 96 -178 96q-84 0 -136.5 -58
t-52.5 -147t52.5 -147t136.5 -58z" />
    <glyph glyph-name="A" unicode="A" horiz-adv-x="1599" 
d="M410 0h-390l603 1442h354l602 -1442h-395l-121 303h-533zM797 981l-150 -383h299z" />
    <glyph glyph-name="B" unicode="B" horiz-adv-x="1458" 
d="M874 0h-737v1434h699q202 0 324 -95t122 -268q0 -98 -48 -171.5t-120 -106.5q108 -25 189 -125q83 -103 83 -256q0 -185 -141 -299q-137 -113 -371 -113zM506 612v-305h297q85 0 132.5 40t47.5 112q0 71 -49 112t-131 41h-297zM506 1135v-250h274q68 0 108 33t40 90
q0 60 -40 93.5t-108 33.5h-274z" />
    <glyph glyph-name="C" unicode="C" horiz-adv-x="1376" 
d="M891 -29q-343 0 -572 209q-227 208 -227 537q0 327 225 536q229 209 572 209q203 0 371 -82v-362q-168 104 -367 104q-181 0 -301 -114q-121 -115 -121 -291q0 -179 123 -293q125 -113 313 -113q226 0 377 115v-365q-178 -90 -393 -90z" />
    <glyph glyph-name="D" unicode="D" horiz-adv-x="1593" 
d="M709 0h-572v1434h572q349 0 571 -201q221 -200 221 -516q0 -318 -221 -518q-220 -199 -571 -199zM506 1110v-786h176q210 0 324 102t114 291t-114 291t-324 102h-176z" />
    <glyph glyph-name="E" unicode="E" horiz-adv-x="1314" 
d="M1243 0h-1106v1434h1090v-324h-721v-195h573v-311h-573v-280h737v-324z" />
    <glyph glyph-name="F" unicode="F" horiz-adv-x="1298" 
d="M506 0h-369v1434h1090v-324h-721v-209h538v-311h-538v-590z" />
    <glyph glyph-name="G" unicode="G" horiz-adv-x="1562" 
d="M872 -29q-331 0 -557 209q-223 210 -223 537t225 536q226 209 570 209q225 0 418 -102v-346q-197 108 -392 108q-196 0 -319 -114t-123 -297q0 -190 117 -301t284 -111q145 0 228 68v469h370v-637q-87 -96 -247 -162q-167 -66 -351 -66z" />
    <glyph glyph-name="H" unicode="H" horiz-adv-x="1552" 
d="M506 0h-369v1434h369v-510h541v510h368v-1434h-368v596h-541v-596z" />
    <glyph glyph-name="I" unicode="I" horiz-adv-x="659" 
d="M514 0h-369v1434h369v-1434z" />
    <glyph glyph-name="J" unicode="J" horiz-adv-x="1052" 
d="M403 -29q-231 0 -352 80v355q127 -95 273 -95q124 0 182.5 55.5t58.5 182.5v885h369v-945q0 -144 -43.5 -249.5t-122.5 -163.5q-148 -105 -365 -105z" />
    <glyph glyph-name="K" unicode="K" horiz-adv-x="1505" 
d="M506 0h-369v1434h369v-547l465 547h442l-555 -660l658 -774h-449l-561 637v-637z" />
    <glyph glyph-name="L" unicode="L" horiz-adv-x="1247" 
d="M1194 0h-1057v1434h369v-1110h688v-324z" />
    <glyph glyph-name="M" unicode="M" horiz-adv-x="1732" 
d="M506 0h-369v1434h367l362 -551l365 551h364v-1434h-366v874l-256 -385h-203l-264 385v-874z" />
    <glyph glyph-name="N" unicode="N" horiz-adv-x="1576" 
d="M500 0h-363v1434h316l626 -789v789h361v-1434h-305l-635 793v-793z" />
    <glyph glyph-name="O" unicode="O" horiz-adv-x="1695" 
d="M578 426q109 -115 270 -115q159 0 268 115t109 291t-109 291q-108 114 -268 114q-162 0 -270 -114q-107 -113 -107 -291t107 -291zM1389 188q-214 -217 -541 -217t-541 217q-215 218 -215 529q0 310 215 528q214 217 541 217t541 -217q215 -218 215 -528
q0 -311 -215 -529z" />
    <glyph glyph-name="P" unicode="P" horiz-adv-x="1345" 
d="M506 0h-369v1434h639q241 0 381 -125q141 -126 141 -324q0 -200 -141 -326q-139 -124 -381 -124h-270v-535zM506 1122v-284h244q80 0 128 38t48 105t-47 104t-129 37h-244z" />
    <glyph glyph-name="Q" unicode="Q" horiz-adv-x="1695" 
d="M1307 -358q-133 0 -259.5 77t-271.5 256q-297 24 -491 236q-193 211 -193 506q0 310 215 528q214 217 541 217t541 -217q215 -218 215 -528q0 -225 -117 -406q-119 -185 -316 -272q73 -88 195 -88q94 0 170 43v-305q-106 -47 -229 -47zM578 426q109 -115 270 -115
q159 0 268 115t109 291t-109 291q-108 114 -268 114q-162 0 -270 -114q-107 -113 -107 -291t107 -291z" />
    <glyph glyph-name="R" unicode="R" horiz-adv-x="1492" 
d="M506 0h-369v1434h674q238 0 375 -125q141 -123 141 -318q0 -139 -73.5 -245.5t-204.5 -157.5l434 -588h-424l-406 547h-147v-547zM506 1122v-274h285q75 0 119 36t44 99t-44 101t-119 38h-285z" />
    <glyph glyph-name="S" unicode="S" horiz-adv-x="1302" 
d="M643 -29q-329 0 -555 154v377q86 -80 246 -140q152 -57 295 -57q219 0 219 113q0 29 -13 46.5t-42 37.5q-13 11 -93 37l-129 39l-104 30l-94 37q-56 22 -94 45q-112 84 -140 131q-51 96 -51 211q0 205 151 317.5t412 112.5q263 0 486 -119v-354q-90 56 -228 98
q-134 41 -254 41q-188 0 -188 -94q0 -40 59 -65l66 -23q23 -7 96 -28t100 -29q207 -68 324 -170t117 -287q0 -210 -164 -336q-162 -125 -422 -125z" />
    <glyph glyph-name="T" unicode="T" horiz-adv-x="1345" 
d="M856 0h-369v1110h-430v324h1231v-324h-432v-1110z" />
    <glyph glyph-name="U" unicode="U" horiz-adv-x="1495" 
d="M119 600v834h368v-852q0 -132 72 -201.5t189 -69.5q119 0 189.5 69t70.5 202v852h368v-834q0 -299 -178 -465q-179 -164 -450 -164q-272 0 -451 164q-178 166 -178 465z" />
    <glyph glyph-name="V" unicode="V" horiz-adv-x="1568" 
d="M958 -8h-350l-585 1442h407l356 -934l359 934h401z" />
    <glyph glyph-name="W" unicode="W" horiz-adv-x="2228" 
d="M827 -8h-327l-475 1442h411l242 -854l299 858h287l299 -858l241 854h404l-479 -1442h-324l-287 839z" />
    <glyph glyph-name="X" unicode="X" horiz-adv-x="1507" 
d="M416 0h-426l549 770l-467 664h430l254 -369l256 369h424l-467 -662l549 -772h-433l-335 477z" />
    <glyph glyph-name="Y" unicode="Y" horiz-adv-x="1490" 
d="M930 0h-369v635l-551 799h420l320 -473l321 473h410l-551 -791v-643z" />
    <glyph glyph-name="Z" unicode="Z" horiz-adv-x="1314" 
d="M1264 0h-1213v262l684 848h-657v324h1153v-260l-682 -850h715v-324z" />
    <glyph glyph-name="bracketleft" unicode="[" horiz-adv-x="925" 
d="M854 -422h-709v1868h709v-279h-381v-1310h381v-279z" />
    <glyph glyph-name="backslash" unicode="\" horiz-adv-x="1118" 
d="M1176 -287h-342l-863 1909h342z" />
    <glyph glyph-name="bracketright" unicode="]" horiz-adv-x="925" 
d="M72 1446h708v-1868h-708v279h381v1310h-381v279z" />
    <glyph glyph-name="asciicircum" unicode="^" horiz-adv-x="1165" 
d="M393 686h-342l361 850h342l360 -850h-340l-190 541z" />
    <glyph glyph-name="underscore" unicode="_" 
d="M1346 -328h-1340v238h1340v-238z" />
    <glyph glyph-name="grave" unicode="`" horiz-adv-x="1069" 
d="M866 1180h-301l-321 311h428z" />
    <glyph glyph-name="a" unicode="a" horiz-adv-x="1251" 
d="M420 -27q-167 0 -275 97q-104 94 -104 249q1 68 25 125.5t64 96.5t92 66t109 38.5t115 9.5q156 0 265 -53v14q0 114 -86 142q-68 24 -156 24q-168 0 -303 -75v284q162 76 391 76t371 -115q141 -114 141 -305v-315q0 -56 61 -56q37 0 60 13v-258q-69 -54 -184 -54
q-184 0 -254 119q-126 -123 -332 -123zM543 217q109 0 168 90v109q-60 45 -152 45q-69 0 -115.5 -34.5t-46.5 -90.5q0 -54 41.5 -86.5t104.5 -32.5z" />
    <glyph glyph-name="b" unicode="b" horiz-adv-x="1333" 
d="M487 117v-117h-362v1434h362v-510q110 143 312 143q203 0 340 -158q135 -156 135 -389q0 -235 -135 -391t-340 -156q-204 0 -312 144zM694 281q96 0 157.5 68t61.5 171q0 104 -61.5 172t-157.5 68q-136 0 -207 -111v-258q70 -110 207 -110z" />
    <glyph glyph-name="c" unicode="c" horiz-adv-x="1052" 
d="M631 -27q-228 0 -402 148q-170 147 -170 401q0 256 172 400q174 145 404 145q175 0 307 -63v-304q-130 54 -250 54t-198 -63.5t-78 -170.5t78 -171t196 -64q150 0 266 61v-301q-153 -72 -325 -72z" />
    <glyph glyph-name="d" unicode="d" horiz-adv-x="1333" 
d="M535 -27q-205 0 -340 156q-136 157 -136 391q0 232 136 389q137 158 340 158q201 0 311 -143v510h362v-1434h-362v117q-108 -144 -311 -144zM639 281q137 0 207 110v258q-70 111 -207 111q-96 0 -157.5 -68t-61.5 -172q0 -103 61.5 -171t157.5 -68z" />
    <glyph glyph-name="e" unicode="e" horiz-adv-x="1179" 
d="M639 -27q-241 0 -412 148q-168 149 -168 399q0 231 152 389t399 158q222 0 361 -154q141 -150 141 -391v-90h-696q23 -79 104.5 -120.5t198.5 -41.5q168 0 334 90v-278q-148 -109 -414 -109zM414 625h344q-1 77 -49 126.5t-115 49.5q-72 0 -121 -47.5t-59 -128.5z" />
    <glyph glyph-name="f" unicode="f" horiz-adv-x="911" 
d="M567 750v-750h-362v750h-174v290h174v56q0 167 98 266.5t283 99.5q165 0 284 -45v-278q-82 30 -178 30q-125 0 -125 -110v-19h303v-290h-303z" />
    <glyph glyph-name="g" unicode="g" horiz-adv-x="1310" 
d="M578 -422q-266 0 -412 88v316q165 -101 373 -101q67 0 133 17q68 19 116 78t48 147v53q-124 -133 -316 -133q-202 0 -332 145q-129 144 -129 367t129 367q130 145 332 145q190 0 316 -135v108h362v-895q0 -138 -54.5 -251.5t-148.5 -180.5q-185 -135 -417 -135zM629 346
q138 0 207 96v226q-72 96 -207 96q-95 0 -152 -58.5t-57 -150.5t57 -150.5t152 -58.5z" />
    <glyph glyph-name="h" unicode="h" horiz-adv-x="1280" 
d="M487 651v-651h-362v1434h362v-510q134 143 316 143q173 0 272 -115.5t99 -312.5v-639h-363v571q0 88 -41 130t-108 42q-107 0 -175 -92z" />
    <glyph glyph-name="i" unicode="i" horiz-adv-x="634" 
d="M498 0h-363v1040h363v-1040zM315 1135q-86 0 -146 60t-60 148t60 148.5t146 60.5q88 0 148.5 -60.5t60.5 -148.5t-60.5 -148t-148.5 -60z" />
    <glyph glyph-name="j" unicode="j" horiz-adv-x="634" 
d="M315 1135q-86 0 -146 60t-60 148t60 148.5t146 60.5q88 0 148.5 -60.5t60.5 -148.5t-60.5 -148t-148.5 -60zM80 -422q-167 0 -246 43v297q67 -33 152 -33q151 0 151 148v1007h363v-1038q0 -197 -111.5 -310.5t-308.5 -113.5z" />
    <glyph glyph-name="k" unicode="k" horiz-adv-x="1294" 
d="M487 0h-362v1434h362v-762l310 368h428l-412 -467l479 -573h-452l-353 430v-430z" />
    <glyph glyph-name="l" unicode="l" horiz-adv-x="684" 
d="M422 -27q-297 0 -297 303v1158h362v-1072q0 -79 74 -79q37 0 62 14v-285q-74 -39 -201 -39z" />
    <glyph glyph-name="m" unicode="m" horiz-adv-x="1910" 
d="M487 0h-362v1040h362v-122q113 149 320 149q94 0 171.5 -50t115.5 -122q52 75 145 123.5t195 48.5q168 0 269 -109t101 -309v-649h-362v578q0 167 -131 167q-108 0 -164 -96v-649h-363v578q0 167 -131 167q-107 0 -166 -96v-649z" />
    <glyph glyph-name="n" unicode="n" horiz-adv-x="1280" 
d="M487 651v-651h-362v1040h362v-116q134 143 316 143q173 0 272 -115.5t99 -312.5v-639h-363v571q0 88 -41 130t-108 42q-107 0 -175 -92z" />
    <glyph glyph-name="o" unicode="o" horiz-adv-x="1290" 
d="M874 520q0 101 -65 169.5t-164 68.5t-164 -68.5t-65 -169.5q0 -103 64.5 -170t164.5 -67t164.5 67t64.5 170zM1065 129q-167 -156 -420 -156t-420 156q-166 156 -166 391q0 233 166 389q169 158 420 158t420 -158q166 -156 166 -389q0 -235 -166 -391z" />
    <glyph glyph-name="p" unicode="p" horiz-adv-x="1333" 
d="M487 -410h-362v1450h362v-116q107 143 312 143q203 0 340 -158q135 -156 135 -389q0 -235 -135 -391t-340 -156q-201 0 -312 144v-527zM694 281q96 0 157.5 68t61.5 171q0 104 -61.5 172t-157.5 68q-136 0 -207 -111v-258q70 -110 207 -110z" />
    <glyph glyph-name="q" unicode="q" horiz-adv-x="1333" 
d="M1208 -410h-362v527q-111 -144 -311 -144q-205 0 -340 156q-136 157 -136 391q0 232 136 389q137 158 340 158q204 0 311 -143v116h362v-1450zM639 281q137 0 207 110v258q-70 111 -207 111q-96 0 -157.5 -68t-61.5 -172q0 -103 61.5 -171t157.5 -68z" />
    <glyph glyph-name="r" unicode="r" horiz-adv-x="927" 
d="M487 0h-362v1040h362v-170q38 72 134 134q97 63 208 63q25 0 45 -4v-350q-69 16 -122 16q-91 0 -162.5 -34.5t-102.5 -90.5v-604z" />
    <glyph glyph-name="s" unicode="s" horiz-adv-x="1060" 
d="M526 -27q-288 0 -440 93v305q63 -46 180 -80q112 -33 244 -33q127 0 127 51q0 29 -45 47l-47 17q-39 12 -146 39q-180 53 -252 116q-71 65 -71 207q0 155 127 243.5t350 88.5q231 0 393 -98v-295q-178 112 -379 112q-116 0 -116 -53q0 -33 47 -47l49 -14q5 -1 135 -31
q168 -43 243.5 -120t75.5 -212q0 -149 -129 -243q-128 -93 -346 -93z" />
    <glyph glyph-name="t" unicode="t" horiz-adv-x="919" 
d="M573 -27q-164 0 -262 89t-98 251v437h-182v290h182v267h362v-267h265v-290h-265v-338q0 -68 27.5 -96.5t93.5 -28.5q74 0 144 37v-289q-100 -62 -267 -62z" />
    <glyph glyph-name="u" unicode="u" horiz-adv-x="1280" 
d="M477 -27q-173 0 -272 115.5t-99 312.5v639h363v-571q0 -88 41 -130t108 -42q107 0 175 92v651h362v-1040h-362v117q-135 -144 -316 -144z" />
    <glyph glyph-name="v" unicode="v" horiz-adv-x="1232" 
d="M780 -8h-327l-441 1048h385l226 -598l225 598h373z" />
    <glyph glyph-name="w" unicode="w" horiz-adv-x="1705" 
d="M670 -8h-310l-340 1048h359l166 -530l166 534h286l170 -534l162 530h357l-347 -1048h-311l-182 534z" />
    <glyph glyph-name="x" unicode="x" horiz-adv-x="1222" 
d="M414 0h-394l375 537l-348 503h395l170 -258l170 258h394l-349 -501l373 -539h-399l-193 287z" />
    <glyph glyph-name="y" unicode="y" horiz-adv-x="1247" 
d="M334 -422q-132 0 -232 47v312q77 -50 168 -50q70 0 115.5 34.5t77.5 113.5l-443 1005h386l231 -626l217 626h377l-465 -1144q-130 -318 -432 -318z" />
    <glyph glyph-name="z" unicode="z" horiz-adv-x="1105" 
d="M1040 0h-979v240l463 508h-436v292h920v-247l-471 -500h503v-293z" />
    <glyph glyph-name="braceleft" unicode="{" horiz-adv-x="888" 
d="M709 -143h108v-279h-186q-171 0 -272 101t-101 272v194q0 117 -32 167.5t-126 60.5v278q94 10 126 60.5t32 167.5v194q0 171 101 272t272 101h186v-279h-108q-55 0 -89 -35.5t-34 -91.5v-272q0 -209 -176 -256q176 -53 176 -256v-272q0 -56 34 -91.5t89 -35.5z" />
    <glyph glyph-name="bar" unicode="|" horiz-adv-x="741" 
d="M526 -227h-311v1783h311v-1783z" />
    <glyph glyph-name="braceright" unicode="}" horiz-adv-x="888" 
d="M258 -422h-186v279h108q55 0 89 35.5t34 91.5v272q0 203 176 256q-176 47 -176 256v272q0 56 -34 91.5t-89 35.5h-108v279h186q171 0 272 -101t101 -272v-194q0 -117 32 -167.5t125 -60.5v-278q-93 -10 -125 -60.5t-32 -167.5v-194q0 -171 -101 -272t-272 -101z" />
    <glyph glyph-name="asciitilde" unicode="~" horiz-adv-x="1339" 
d="M950 313q-103 0 -280 56q-171 57 -283 57q-161 0 -254 -96v321q31 39 103 64.5t151 25.5q112 0 283 -57t280 -57q162 0 256 98v-324q-33 -39 -104 -63.5t-152 -24.5z" />
    <glyph glyph-name="nbspace" unicode="&#xa0;" horiz-adv-x="516" 
 />
    <glyph glyph-name="exclamdown" unicode="&#xa1;" horiz-adv-x="739" 
d="M535 543l83 -953h-497l84 953h330zM520 698q-60 -63 -151 -63t-154 63q-61 64 -61 154q0 91 61 152q63 63 154 63t151 -63q64 -61 64 -152q0 -90 -64 -154z" />
    <glyph glyph-name="cent" unicode="&#xa2;" horiz-adv-x="1052" 
d="M764 -240h-303v236h2q-178 47 -291 184t-113 342q0 204 113 338q115 136 289 182v236h303v-219q80 -9 178 -55v-304q-130 54 -250 54t-198 -63.5t-78 -170.5t78 -171t196 -64q150 0 266 61v-301q-92 -45 -192 -61v-224z" />
    <glyph glyph-name="sterling" unicode="&#xa3;" horiz-adv-x="1200" 
d="M1149 0h-1088v324h62q117 0 117 131v110h-179v269h179v127q0 233 145 366q147 135 397 135q191 0 326 -63v-338q-143 61 -264 61q-236 0 -236 -213v-75h410v-269h-410v-112q0 -41 -14.5 -74.5t-32.5 -44.5l-16 -10h604v-324z" />
    <glyph glyph-name="currency" unicode="&#xa4;" horiz-adv-x="1198" 
d="M358 326l-135 -136l-151 154l135 135q-67 109 -67 239.5t67 239.5l-135 136l151 153l135 -135q115 68 240 68q131 0 240 -68l137 135l151 -153l-135 -136q67 -109 67 -239.5t-67 -239.5l135 -135l-151 -154l-137 136q-109 -68 -240 -68q-125 0 -240 68zM598 532
q78 0 132 54.5t54 132.5t-54 132t-132 54q-76 0 -130 -54.5t-54 -131.5q0 -78 54.5 -132.5t129.5 -54.5z" />
    <glyph glyph-name="yen" unicode="&#xa5;" horiz-adv-x="1429" 
d="M899 0h-369v252h-387v225h387v123h-387v225h297l-430 609h389l320 -484l321 484h379l-434 -609h301v-225h-387v-123h387v-225h-387v-252z" />
    <glyph glyph-name="brokenbar" unicode="&#xa6;" horiz-adv-x="741" 
d="M526 -227h-311v723h311v-723zM526 834h-311v722h311v-722z" />
    <glyph glyph-name="section" unicode="&#xa7;" horiz-adv-x="1327" 
d="M633 -348q-262 0 -463 104v318q237 -123 477 -123q166 0 166 80q0 45 -61 67q-23 10 -62 23l-92 26l-102 29q-108 34 -176.5 63.5t-131.5 73.5q-137 96 -137 269q0 170 187 258q-101 94 -101 237q0 182 154 285q153 100 401 100q264 0 465 -104v-318q-237 123 -477 123
q-166 0 -166 -80q0 -44 59 -67q25 -10 64 -23l92 -26l102 -29q108 -34 176.5 -63.5t131.5 -73.5q137 -96 137 -269t-186 -258q100 -93 100 -237q0 -183 -156 -285q-150 -100 -401 -100zM846 408q94 21 94 94q0 54 -74 82q-31 16 -80 30q-11 3 -66 18.5t-85 24.5l-154 50
q-94 -21 -94 -97q0 -54 74 -82q61 -23 80 -28q11 -3 66 -18.5t85 -24.5q19 -7 77 -24.5t77 -24.5z" />
    <glyph glyph-name="dieresis" unicode="&#xa8;" horiz-adv-x="1069" 
d="M317 1159q-72 0 -125 52.5t-53 125.5t52 124.5t126 51.5q75 0 127 -51t52 -125t-52 -126t-127 -52zM907 1210q-51 -51 -124.5 -51t-127.5 51q-51 54 -51 127.5t51 124.5q54 51 127.5 51t124.5 -51q54 -51 54 -124.5t-54 -127.5z" />
    <glyph glyph-name="copyright" unicode="&#xa9;" horiz-adv-x="1667" 
d="M893 303q-185 0 -315 121q-127 124 -127 293q0 170 127 291q126 120 315 120q119 0 205 -45v-202q-95 59 -205 59q-99 0 -165 -63.5t-66 -159.5q0 -98 68 -160.5t173 -62.5q125 0 209 63v-203q-92 -51 -219 -51zM831 47q283 0 474 197q190 196 190 477q0 278 -190 471
q-188 194 -469 194t-474 -196q-190 -196 -190 -477q0 -278 190 -471q192 -195 469 -195zM92 717q0 307 217 524q218 221 527 221q308 0 524 -219q215 -218 215 -526q0 -307 -217 -527q-219 -219 -527 -219t-524 219q-215 218 -215 527z" />
    <glyph glyph-name="ordfeminine" unicode="&#xaa;" horiz-adv-x="868" 
d="M543 889v80q-62 45 -154 45q-67 0 -108 -28t-41 -75q0 -48 38 -75t97 -27q106 0 168 80zM813 836q26 0 43 10v-164q-44 -33 -119 -33q-129 0 -172 99q-102 -105 -260 -105q-125 0 -203.5 71t-78.5 187q0 120 90 186q91 66 213 66q121 0 217 -51v24q0 142 -201 142
q-116 0 -231 -62v185q121 59 284 59q166 0 264.5 -80.5t98.5 -220.5v-256q0 -26 15.5 -41.5t39.5 -15.5z" />
    <glyph glyph-name="guillemotleft" unicode="&#xab;" horiz-adv-x="1236" 
d="M670 66h-361l-266 364v178l266 367h361l-328 -455zM1198 66h-360l-267 364v178l267 367h360l-328 -455z" />
    <glyph glyph-name="logicalnot" unicode="&#xac;" horiz-adv-x="1253" 
d="M1120 268h-323v318h-664v323h987v-641z" />
    <glyph glyph-name="uni00AD" unicode="&#xad;" horiz-adv-x="1050" 
d="M856 414h-661v319h661v-319z" />
    <glyph glyph-name="registered" unicode="&#xae;" horiz-adv-x="1667" 
d="M713 344h-203v793h373q130 0 207 -67t77 -177q0 -78 -40.5 -137.5t-112.5 -85.5l237 -326h-225l-221 303h-92v-303zM713 967v-156h159q89 0 89 76q0 37 -24 58.5t-65 21.5h-159zM831 47q283 0 474 197q190 196 190 477q0 278 -190 471q-188 194 -469 194
q-284 0 -474 -196t-190 -477q0 -277 188 -471q192 -195 471 -195zM92 717q0 307 217 524q218 221 527 221q308 0 524 -219q215 -218 215 -526q0 -307 -217 -527q-219 -219 -527 -219t-524 219q-215 218 -215 527z" />
    <glyph glyph-name="overscore" unicode="&#xaf;" horiz-adv-x="1032" 
d="M852 1212h-684v238h684v-238z" />
    <glyph glyph-name="degree" unicode="&#xb0;" horiz-adv-x="772" 
d="M483 1233q-38 41 -95.5 41t-98.5 -41q-38 -41 -38 -100.5t38 -100.5q41 -38 98.5 -38t95.5 38q38 41 38 100.5t-38 100.5zM721 1133q0 -135 -100 -232q-101 -96 -234 -96q-131 0 -235 96q-101 98 -101 232q0 137 101 231q101 98 235 98q136 0 234 -98q100 -93 100 -231z
" />
    <glyph glyph-name="plusminus" unicode="&#xb1;" horiz-adv-x="1339" 
d="M1206 0h-1073v324h1073v-324zM829 446h-319v326h-377v320h377v342h319v-342h377v-320h-377v-326z" />
    <glyph glyph-name="twosuperior" unicode="&#xb2;" horiz-adv-x="727" 
d="M659 659h-583v158l211 176q129 108 129 178q0 35 -28 56.5t-75 21.5q-105 0 -209 -78v218q94 61 228 61q122 0 211 -68q92 -68 92 -182q0 -85 -37 -149t-131 -144l-76 -65h268v-183z" />
    <glyph glyph-name="threesuperior" unicode="&#xb3;" horiz-adv-x="673" 
d="M295 643q-145 0 -252 64v198q117 -69 233 -69q61 0 98.5 24.5t37.5 65.5q0 38 -31.5 62t-87.5 24q-79 0 -131 -25v133l166 131h-265v183h531v-162l-152 -125q189 -53 189 -227q0 -124 -99 -201q-94 -76 -237 -76z" />
    <glyph glyph-name="acute" unicode="&#xb4;" horiz-adv-x="901" 
d="M551 1180h-301l194 311h428z" />
    <glyph glyph-name="mu" unicode="&#xb5;" horiz-adv-x="1298" 
d="M487 -410h-362v1450h362v-571q0 -88 41 -130t109 -42q106 0 174 92v651h363v-1040h-363v117q-135 -144 -315 -144h-9v-383z" />
    <glyph glyph-name="paragraph" unicode="&#xb6;" horiz-adv-x="1224" 
d="M1087 0h-368v561h-156q-231 0 -370 121q-138 123 -138 315q0 194 138 314q138 123 370 123h524v-1434z" />
    <glyph glyph-name="middot" unicode="&#xb7;" horiz-adv-x="573" 
d="M438 649q-60 -63 -151 -63t-154 63q-61 64 -61 154t61 151q64 64 154 64t151 -64q64 -61 64 -151t-64 -154z" />
    <glyph glyph-name="cedilla" unicode="&#xb8;" horiz-adv-x="1056" 
d="M608 -311h-418l263 338h286z" />
    <glyph glyph-name="onesuperior" unicode="&#xb9;" horiz-adv-x="524" 
d="M455 659h-217v553l-205 -100v211l213 111h209v-775z" />
    <glyph glyph-name="ordmasculine" unicode="&#xba;" horiz-adv-x="909" 
d="M455 846q85 0 138.5 57t53.5 146q0 85 -54 140.5t-138 55.5t-137.5 -55.5t-53.5 -140.5q0 -88 53.5 -145.5t137.5 -57.5zM758 758q-121 -115 -303 -115q-184 0 -305 115q-119 116 -119 289t119 286q120 117 305 117q183 0 303 -117q121 -115 121 -286t-121 -289z" />
    <glyph glyph-name="guillemotright" unicode="&#xbb;" horiz-adv-x="1236" 
d="M399 66h-360l328 454l-328 455h360l267 -367v-178zM928 66h-361l328 454l-328 455h361l266 -367v-178z" />
    <glyph glyph-name="onequarter" unicode="&#xbc;" horiz-adv-x="1579" 
d="M442 0h-245l870 1434h246zM455 659h-217v553l-205 -100v211l213 111h209v-775zM1446 0h-211v178h-383v154l371 442h223v-428h106v-168h-106v-178zM1235 537l-166 -191h166v191z" />
    <glyph glyph-name="onehalf" unicode="&#xbd;" horiz-adv-x="1652" 
d="M442 0h-245l870 1434h246zM455 659h-217v553l-205 -100v211l213 111h209v-775zM1585 0h-584v158l211 176q129 108 129 178q0 35 -27.5 56.5t-74.5 21.5q-105 0 -209 -78v217q95 62 227 62q122 0 211 -68q93 -69 93 -182q0 -85 -37 -149t-131 -144l-76 -66h268v-182z" />
    <glyph glyph-name="threequarters" unicode="&#xbe;" horiz-adv-x="1665" 
d="M526 0h-245l870 1434h246zM1532 0h-211v178h-383v154l371 442h223v-428h106v-168h-106v-178zM1321 537l-166 -191h166v191zM295 643q-145 0 -252 64v198q117 -69 233 -69q61 0 98.5 24.5t37.5 65.5q0 38 -31.5 62t-87.5 24q-79 0 -131 -25v133l166 131h-265v183h531v-162
l-152 -125q189 -53 189 -227q0 -124 -99 -201q-94 -76 -237 -76z" />
    <glyph glyph-name="questiondown" unicode="&#xbf;" horiz-adv-x="1026" 
d="M416 1006q63 63 153 63q92 0 152 -63q63 -63 63 -154t-63 -154q-61 -61 -152 -61q-89 0 -153 61q-62 63 -62 154t62 154zM403 545h345v-305q-138 -24 -238 -82q-102 -58 -102 -135q0 -119 198 -119q174 0 373 108v-315q-180 -119 -434 -119q-210 0 -361 109
q-147 108 -147 309q0 150 108 258q110 107 258 154v137z" />
    <glyph glyph-name="Agrave" unicode="&#xc0;" horiz-adv-x="1599" 
d="M410 0h-390l603 1442h354l602 -1442h-395l-121 303h-533zM797 981l-150 -383h299zM961 1556h-302l-321 312h428z" />
    <glyph glyph-name="Aacute" unicode="&#xc1;" horiz-adv-x="1599" 
d="M410 0h-390l603 1442h354l602 -1442h-395l-121 303h-533zM797 981l-150 -383h299zM956 1556h-301l195 312h428z" />
    <glyph glyph-name="Acircumflex" unicode="&#xc2;" horiz-adv-x="1599" 
d="M410 0h-390l603 1442h354l602 -1442h-395l-121 303h-533zM797 981l-150 -383h299zM670 1559h-301l260 309h342l254 -309h-307l-125 141z" />
    <glyph glyph-name="Atilde" unicode="&#xc3;" horiz-adv-x="1599" 
d="M410 0h-390l603 1442h354l602 -1442h-395l-121 303h-533zM797 981l-150 -383h299zM940 1550q-69 0 -149 41q-77 41 -119 41q-72 0 -90 -73h-183q0 130 72 223q70 94 186 94q67 0 144 -41q77 -39 123 -39q72 0 90 72h182q0 -119 -74 -219q-70 -99 -182 -99z" />
    <glyph glyph-name="Adieresis" unicode="&#xc4;" horiz-adv-x="1599" 
d="M410 0h-390l603 1442h354l602 -1442h-395l-121 303h-533zM797 981l-150 -383h299zM565 1536q-72 0 -125 52.5t-53 125.5t52 124.5t126 51.5q75 0 126.5 -51t51.5 -125t-51.5 -126t-126.5 -52zM1155 1587q-51 -51 -124.5 -51t-127.5 51q-51 54 -51 127.5t51 124.5
q54 51 127.5 51t124.5 -51q54 -51 54 -124.5t-54 -127.5z" />
    <glyph glyph-name="Aring" unicode="&#xc5;" horiz-adv-x="1599" 
d="M410 0h-390l603 1442h354l602 -1442h-395l-121 303h-533zM797 981l-150 -383h299zM799 1931q88 0 151 -63q64 -64 64 -154q0 -87 -64 -151q-63 -63 -151 -63t-154 63q-63 63 -63 151q0 89 63 152q65 65 154 65zM889 1714q3 56 -43.5 79.5t-93.5 0t-45 -79.5
q0 -37 27.5 -63.5t64.5 -26.5t63.5 26.5t26.5 63.5z" />
    <glyph glyph-name="AE" unicode="&#xc6;" horiz-adv-x="2191" 
d="M2120 0h-1086v289h-473l-153 -289h-402l770 1434h1327v-324h-700v-195h553v-311h-553v-280h717v-324zM999 1118l-274 -520h309v520h-35z" />
    <glyph glyph-name="Ccedilla" unicode="&#xc7;" horiz-adv-x="1376" 
d="M922 -311h-418l229 297q-284 46 -463 243q-178 199 -178 488q0 327 225 536q229 209 572 209q203 0 371 -82v-362q-168 104 -367 104q-181 0 -301 -114q-121 -115 -121 -291q0 -179 123 -293q125 -113 313 -113q226 0 377 115v-365q-103 -56 -250 -77z" />
    <glyph glyph-name="Egrave" unicode="&#xc8;" horiz-adv-x="1314" 
d="M1243 0h-1106v1434h1090v-324h-721v-195h573v-311h-573v-280h737v-324zM887 1556h-301l-322 312h428z" />
    <glyph glyph-name="Eacute" unicode="&#xc9;" horiz-adv-x="1314" 
d="M1243 0h-1106v1434h1090v-324h-721v-195h573v-311h-573v-280h737v-324zM768 1556h-301l195 312h428z" />
    <glyph glyph-name="Ecircumflex" unicode="&#xca;" horiz-adv-x="1314" 
d="M1243 0h-1106v1434h1090v-324h-721v-195h573v-311h-573v-280h737v-324zM563 1559h-301l260 309h342l254 -309h-307l-125 141z" />
    <glyph glyph-name="Edieresis" unicode="&#xcb;" horiz-adv-x="1314" 
d="M1243 0h-1106v1434h1090v-324h-721v-195h573v-311h-573v-280h737v-324zM453 1536q-72 0 -125.5 52.5t-53.5 125.5t52.5 124.5t126.5 51.5q75 0 126.5 -51t51.5 -125t-51.5 -126t-126.5 -52zM1042 1587q-51 -51 -124 -51t-127 51q-51 54 -51 127.5t51 124.5q54 51 127 51
t124 -51q54 -51 54 -124.5t-54 -127.5z" />
    <glyph glyph-name="Igrave" unicode="&#xcc;" horiz-adv-x="659" 
d="M514 0h-369v1434h369v-1434zM487 1556h-301l-321 312h428z" />
    <glyph glyph-name="Iacute" unicode="&#xcd;" horiz-adv-x="659" 
d="M514 0h-369v1434h369v-1434zM483 1556h-301l195 312h428z" />
    <glyph glyph-name="Icircumflex" unicode="&#xce;" horiz-adv-x="659" 
d="M203 1559h-301l260 309h342l254 -309h-307l-125 141zM514 0h-369v1434h369v-1434z" />
    <glyph glyph-name="Idieresis" unicode="&#xcf;" horiz-adv-x="657" 
d="M96 1536q-72 0 -125 52.5t-53 125.5t52 124.5t126 51.5q75 0 126.5 -51t51.5 -125t-51.5 -126t-126.5 -52zM686 1587q-51 -51 -124.5 -51t-127.5 51q-51 54 -51 127.5t51 124.5q54 51 127.5 51t124.5 -51q54 -51 54 -124.5t-54 -127.5zM512 0h-369v1434h369v-1434z" />
    <glyph glyph-name="Eth" unicode="&#xd0;" horiz-adv-x="1712" 
d="M256 606h-182v305h182v523h571q350 0 572 -201q221 -200 221 -516q0 -318 -221 -518q-220 -199 -572 -199h-571v606zM625 606v-282h176q210 0 324 102t114 291t-114 291t-324 102h-176v-199h258v-305h-258z" />
    <glyph glyph-name="Ntilde" unicode="&#xd1;" horiz-adv-x="1576" 
d="M500 0h-363v1434h316l626 -789v789h361v-1434h-305l-635 793v-793zM932 1550q-70 0 -150 41q-77 41 -118 41q-73 0 -91 -73h-182q0 130 72 223q70 94 186 94q67 0 144 -41q77 -39 122 -39q73 0 91 72h182q0 -119 -74 -219q-70 -99 -182 -99z" />
    <glyph glyph-name="Ograve" unicode="&#xd2;" horiz-adv-x="1695" 
d="M578 426q109 -115 270 -115q159 0 268 115t109 291t-109 291q-108 114 -268 114q-162 0 -270 -114q-107 -113 -107 -291t107 -291zM1389 188q-214 -217 -541 -217t-541 217q-215 218 -215 529q0 310 215 528q214 217 541 217t541 -217q215 -218 215 -528
q0 -311 -215 -529zM1004 1556h-302l-321 312h428z" />
    <glyph glyph-name="Oacute" unicode="&#xd3;" horiz-adv-x="1695" 
d="M578 426q109 -115 270 -115q159 0 268 115t109 291t-109 291q-108 114 -268 114q-162 0 -270 -114q-107 -113 -107 -291t107 -291zM1389 188q-214 -217 -541 -217t-541 217q-215 218 -215 529q0 310 215 528q214 217 541 217t541 -217q215 -218 215 -528
q0 -311 -215 -529zM981 1556h-301l194 312h429z" />
    <glyph glyph-name="Ocircumflex" unicode="&#xd4;" horiz-adv-x="1695" 
d="M578 426q109 -115 270 -115q159 0 268 115t109 291t-109 291q-108 114 -268 114q-162 0 -270 -114q-107 -113 -107 -291t107 -291zM1389 188q-214 -217 -541 -217t-541 217q-215 218 -215 529q0 310 215 528q214 217 541 217t541 -217q215 -218 215 -528
q0 -311 -215 -529zM721 1559h-301l260 309h342l254 -309h-307l-125 141z" />
    <glyph glyph-name="Otilde" unicode="&#xd5;" horiz-adv-x="1695" 
d="M578 426q109 -115 270 -115q159 0 268 115t109 291t-109 291q-108 114 -268 114q-162 0 -270 -114q-107 -113 -107 -291t107 -291zM1389 188q-214 -217 -541 -217t-541 217q-215 218 -215 529q0 310 215 528q214 217 541 217t541 -217q215 -218 215 -528
q0 -311 -215 -529zM991 1550q-69 0 -149 41q-77 41 -119 41q-72 0 -90 -73h-182q0 131 71 223q70 94 187 94q66 0 143 -41q77 -39 123 -39q72 0 90 72h182q0 -121 -73 -219q-70 -99 -183 -99z" />
    <glyph glyph-name="Odieresis" unicode="&#xd6;" horiz-adv-x="1695" 
d="M578 426q109 -115 270 -115q159 0 268 115t109 291t-109 291q-108 114 -268 114q-162 0 -270 -114q-107 -113 -107 -291t107 -291zM1389 188q-214 -217 -541 -217t-541 217q-215 218 -215 529q0 310 215 528q214 217 541 217t541 -217q215 -218 215 -528
q0 -311 -215 -529zM618 1536q-72 0 -125 52.5t-53 125.5t52 124.5t126 51.5q75 0 127 -51t52 -125t-52 -126t-127 -52zM1208 1587q-51 -51 -124.5 -51t-127.5 51q-51 54 -51 127.5t51 124.5q54 51 127.5 51t124.5 -51q54 -51 54 -124.5t-54 -127.5z" />
    <glyph glyph-name="multiply" unicode="&#xd7;" horiz-adv-x="1294" 
d="M647 457l-285 -287l-229 229l287 285l-287 287l229 229l285 -287l287 287l227 -229l-284 -287l284 -285l-227 -229z" />
    <glyph glyph-name="Oslash" unicode="&#xd8;" horiz-adv-x="1695" 
d="M848 -29q-216 0 -393 103l-62 -74h-276l172 209q-197 209 -197 508q0 310 215 528q214 217 541 217q210 0 391 -102l61 74h277l-172 -207q199 -214 199 -510q0 -311 -215 -529q-214 -217 -541 -217zM526 496l486 589q-78 37 -164 37q-162 0 -270 -114
q-107 -113 -107 -291q0 -127 55 -221zM848 311q159 0 268 115t109 291q0 127 -58 221l-485 -590q73 -37 166 -37z" />
    <glyph glyph-name="Ugrave" unicode="&#xd9;" horiz-adv-x="1495" 
d="M119 600v834h368v-852q0 -132 72 -201.5t189 -69.5q119 0 189.5 69t70.5 202v852h368v-834q0 -299 -178 -465q-179 -164 -450 -164q-272 0 -451 164q-178 166 -178 465zM907 1556h-301l-321 312h428z" />
    <glyph glyph-name="Uacute" unicode="&#xda;" horiz-adv-x="1495" 
d="M119 600v834h368v-852q0 -132 72 -201.5t189 -69.5q119 0 189.5 69t70.5 202v852h368v-834q0 -299 -178 -465q-179 -164 -450 -164q-272 0 -451 164q-178 166 -178 465zM887 1556h-301l194 312h428z" />
    <glyph glyph-name="Ucircumflex" unicode="&#xdb;" horiz-adv-x="1495" 
d="M119 600v834h368v-852q0 -132 72 -201.5t189 -69.5q119 0 189.5 69t70.5 202v852h368v-834q0 -299 -178 -465q-179 -164 -450 -164q-272 0 -451 164q-178 166 -178 465zM621 1559h-302l261 309h342l254 -309h-308l-125 141z" />
    <glyph glyph-name="Udieresis" unicode="&#xdc;" horiz-adv-x="1495" 
d="M119 600v834h368v-852q0 -132 72 -201.5t189 -69.5q119 0 189.5 69t70.5 202v852h368v-834q0 -299 -178 -465q-179 -164 -450 -164q-272 0 -451 164q-178 166 -178 465zM518 1536q-72 0 -125 52.5t-53 125.5t52 124.5t126 51.5q75 0 126.5 -51t51.5 -125t-51.5 -126
t-126.5 -52zM1108 1587q-51 -51 -124.5 -51t-127.5 51q-51 54 -51 127.5t51 124.5q54 51 127.5 51t124.5 -51q54 -51 54 -124.5t-54 -127.5z" />
    <glyph glyph-name="Yacute" unicode="&#xdd;" horiz-adv-x="1490" 
d="M930 0h-369v635l-551 799h420l320 -473l321 473h410l-551 -791v-643zM881 1556h-301l194 312h428z" />
    <glyph glyph-name="Thorn" unicode="&#xde;" horiz-adv-x="1380" 
d="M506 0h-369v1434h369v-269h305q241 0 381 -125q141 -126 141 -323q0 -200 -141 -326q-140 -125 -381 -125h-305v-266zM506 854v-285h274q81 0 131 37.5t50 102.5q0 69 -45 107t-125 38h-285z" />
    <glyph glyph-name="germandbls" unicode="&#xdf;" horiz-adv-x="1298" 
d="M793 -16q-127 0 -185 22v279q59 -17 111 -17q75 0 121.5 47t46.5 125q0 90 -63 142.5t-169 52.5h-34v239h32q71 0 109.5 37t38.5 101q0 63 -39.5 99t-106.5 36q-76 0 -122 -51.5t-46 -145.5v-950h-362v950q0 241 145 377q147 135 379 135q237 0 365 -116
q131 -116 131 -291q0 -102 -49 -177t-117 -104q98 -33 180 -131q80 -95 80 -242q0 -200 -121.5 -308.5t-324.5 -108.5z" />
    <glyph glyph-name="agrave" unicode="&#xe0;" horiz-adv-x="1251" 
d="M420 -27q-167 0 -275 97q-104 94 -104 249q1 68 25 125.5t64 96.5t92 66t109 38.5t115 9.5q156 0 265 -53v14q0 114 -86 142q-68 24 -156 24q-168 0 -303 -75v284q162 76 391 76t371 -115q141 -114 141 -305v-315q0 -56 61 -56q37 0 60 13v-258q-69 -54 -184 -54
q-184 0 -254 119q-126 -123 -332 -123zM543 217q109 0 168 90v109q-60 45 -152 45q-69 0 -115.5 -34.5t-46.5 -90.5q0 -54 41.5 -86.5t104.5 -32.5zM793 1180h-301l-322 311h428z" />
    <glyph glyph-name="aacute" unicode="&#xe1;" horiz-adv-x="1251" 
d="M420 -27q-167 0 -275 97q-104 94 -104 249q1 68 25 125.5t64 96.5t92 66t109 38.5t115 9.5q156 0 265 -53v14q0 114 -86 142q-68 24 -156 24q-168 0 -303 -75v284q162 76 391 76t371 -115q141 -114 141 -305v-315q0 -56 61 -56q37 0 60 13v-258q-69 -54 -184 -54
q-184 0 -254 119q-126 -123 -332 -123zM543 217q109 0 168 90v109q-60 45 -152 45q-69 0 -115.5 -34.5t-46.5 -90.5q0 -54 41.5 -86.5t104.5 -32.5zM676 1180h-301l194 311h428z" />
    <glyph glyph-name="acircumflex" unicode="&#xe2;" horiz-adv-x="1251" 
d="M420 -27q-167 0 -275 97q-104 94 -104 249q1 68 25 125.5t64 96.5t92 66t109 38.5t115 9.5q156 0 265 -53v14q0 114 -86 142q-68 24 -156 24q-168 0 -303 -75v284q162 76 391 76t371 -115q141 -114 141 -305v-315q0 -56 61 -56q37 0 60 13v-258q-69 -54 -184 -54
q-184 0 -254 119q-126 -123 -332 -123zM543 217q109 0 168 90v109q-60 45 -152 45q-69 0 -115.5 -34.5t-46.5 -90.5q0 -54 41.5 -86.5t104.5 -32.5zM477 1182h-301l260 309h342l254 -309h-307l-125 141z" />
    <glyph glyph-name="atilde" unicode="&#xe3;" horiz-adv-x="1251" 
d="M420 -27q-167 0 -275 97q-104 94 -104 249q1 68 25 125.5t64 96.5t92 66t109 38.5t115 9.5q156 0 265 -53v14q0 114 -86 142q-68 24 -156 24q-168 0 -303 -75v284q162 76 391 76t371 -115q141 -114 141 -305v-315q0 -56 61 -56q37 0 60 13v-258q-69 -54 -184 -54
q-184 0 -254 119q-126 -123 -332 -123zM543 217q109 0 168 90v109q-60 45 -152 45q-69 0 -115.5 -34.5t-46.5 -90.5q0 -54 41.5 -86.5t104.5 -32.5zM774 1174q-70 0 -149 40q-77 41 -119 41q-72 0 -90 -73h-183q0 130 72 223q70 94 187 94q66 0 143 -41q77 -39 123 -39
q72 0 90 72h182q0 -119 -74 -219q-70 -98 -182 -98z" />
    <glyph glyph-name="adieresis" unicode="&#xe4;" horiz-adv-x="1251" 
d="M420 -27q-167 0 -275 97q-104 94 -104 249q1 68 25 125.5t64 96.5t92 66t109 38.5t115 9.5q156 0 265 -53v14q0 114 -86 142q-68 24 -156 24q-168 0 -303 -75v284q162 76 391 76t371 -115q141 -114 141 -305v-315q0 -56 61 -56q37 0 60 13v-258q-69 -54 -184 -54
q-184 0 -254 119q-126 -123 -332 -123zM543 217q109 0 168 90v109q-60 45 -152 45q-69 0 -115.5 -34.5t-46.5 -90.5q0 -54 41.5 -86.5t104.5 -32.5zM342 1159q-72 0 -125 52.5t-53 125.5t52 124.5t126 51.5q75 0 126.5 -51t51.5 -125t-51.5 -126t-126.5 -52zM932 1210
q-51 -51 -124.5 -51t-127.5 51q-51 54 -51 127.5t51 124.5q54 51 127.5 51t124.5 -51q54 -51 54 -124.5t-54 -127.5z" />
    <glyph glyph-name="aring" unicode="&#xe5;" horiz-adv-x="1251" 
d="M420 -27q-167 0 -275 97q-104 94 -104 249q1 68 25 125.5t64 96.5t92 66t109 38.5t115 9.5q156 0 265 -53v14q0 114 -86 142q-68 24 -156 24q-168 0 -303 -75v284q162 76 391 76t371 -115q141 -114 141 -305v-315q0 -56 61 -56q37 0 60 13v-258q-69 -54 -184 -54
q-184 0 -254 119q-126 -123 -332 -123zM543 217q109 0 168 90v109q-60 45 -152 45q-69 0 -115.5 -34.5t-46.5 -90.5q0 -54 41.5 -86.5t104.5 -32.5zM356 1335q0 91 63 154t154 63q89 0 152 -63t63 -154q0 -88 -63.5 -151.5t-151.5 -63.5t-152.5 63.5t-64.5 151.5zM664 1335
q3 56 -44 79.5t-94 0t-45 -79.5q0 -37 27.5 -63.5t64.5 -26.5t64 26.5t27 63.5z" />
    <glyph glyph-name="ae" unicode="&#xe6;" horiz-adv-x="1816" 
d="M430 -27q-172 0 -283 97q-106 93 -106 249q1 68 25 125.5t64 96.5t92 66t109 38.5t115 9.5q156 0 265 -53v14q0 114 -86 142q-68 24 -156 24q-168 0 -303 -75v284q162 76 381 76q223 0 354 -131q63 60 155.5 95.5t190.5 35.5q222 0 361 -154q141 -150 141 -391v-90h-696
q23 -79 104.5 -120.5t198.5 -41.5q168 0 334 90v-278q-148 -109 -414 -109q-269 0 -432 166q-163 -166 -414 -166zM543 217q121 0 190 100q-17 44 -28 103q-62 41 -146 41q-69 0 -115.5 -34.5t-46.5 -90.5q0 -54 41.5 -86.5t104.5 -32.5zM1051 625h344q-1 77 -49 126.5
t-115 49.5q-72 0 -121 -47.5t-59 -128.5z" />
    <glyph glyph-name="ccedilla" unicode="&#xe7;" horiz-adv-x="1052" 
d="M705 -311h-418l229 295q-194 35 -326 176q-131 140 -131 362q0 256 172 400q174 145 404 145q175 0 307 -63v-304q-130 54 -250 54t-198 -63.5t-78 -170.5t78 -171t196 -64q150 0 266 61v-301q-67 -33 -133 -49z" />
    <glyph glyph-name="egrave" unicode="&#xe8;" horiz-adv-x="1179" 
d="M639 -27q-241 0 -412 148q-168 149 -168 399q0 231 152 389t399 158q222 0 361 -154q141 -150 141 -391v-90h-696q23 -79 104.5 -120.5t198.5 -41.5q168 0 334 90v-278q-148 -109 -414 -109zM414 625h344q-1 77 -49 126.5t-115 49.5q-72 0 -121 -47.5t-59 -128.5z
M827 1180h-301l-321 311h428z" />
    <glyph glyph-name="eacute" unicode="&#xe9;" horiz-adv-x="1179" 
d="M639 -27q-241 0 -412 148q-168 149 -168 399q0 231 152 389t399 158q222 0 361 -154q141 -150 141 -391v-90h-696q23 -79 104.5 -120.5t198.5 -41.5q168 0 334 90v-278q-148 -109 -414 -109zM414 625h344q-1 77 -49 126.5t-115 49.5q-72 0 -121 -47.5t-59 -128.5z
M672 1180h-301l194 311h428z" />
    <glyph glyph-name="ecircumflex" unicode="&#xea;" horiz-adv-x="1179" 
d="M639 -27q-241 0 -412 148q-168 149 -168 399q0 231 152 389t399 158q222 0 361 -154q141 -150 141 -391v-90h-696q23 -79 104.5 -120.5t198.5 -41.5q168 0 334 90v-278q-148 -109 -414 -109zM414 625h344q-1 77 -49 126.5t-115 49.5q-72 0 -121 -47.5t-59 -128.5z
M461 1182h-301l260 309h342l254 -309h-307l-125 141z" />
    <glyph glyph-name="edieresis" unicode="&#xeb;" horiz-adv-x="1179" 
d="M639 -27q-241 0 -412 148q-168 149 -168 399q0 231 152 389t399 158q222 0 361 -154q141 -150 141 -391v-90h-696q23 -79 104.5 -120.5t198.5 -41.5q168 0 334 90v-278q-148 -109 -414 -109zM414 625h344q-1 77 -49 126.5t-115 49.5q-72 0 -121 -47.5t-59 -128.5z
M360 1159q-72 0 -125 52.5t-53 125.5t52 124.5t126 51.5q75 0 127 -51t52 -125t-52 -126t-127 -52zM950 1210q-51 -51 -124.5 -51t-127.5 51q-51 54 -51 127.5t51 124.5q54 51 127.5 51t124.5 -51q54 -51 54 -124.5t-54 -127.5z" />
    <glyph glyph-name="igrave" unicode="&#xec;" horiz-adv-x="567" 
d="M465 0h-363v1040h363v-1040zM438 1180h-301l-321 311h428z" />
    <glyph glyph-name="iacute" unicode="&#xed;" horiz-adv-x="567" 
d="M426 1182h-299l195 309h423zM465 0h-363v1040h363v-1040z" />
    <glyph glyph-name="icircumflex" unicode="&#xee;" horiz-adv-x="567" 
d="M156 1182h-301l260 309h342l254 -309h-308l-124 141zM465 0h-363v1040h363v-1040z" />
    <glyph glyph-name="idieresis" unicode="&#xef;" horiz-adv-x="575" 
d="M55 1159q-72 0 -125 52.5t-53 125.5t52 124.5t126 51.5q75 0 126.5 -51t51.5 -125t-51.5 -126t-126.5 -52zM645 1210q-51 -51 -124.5 -51t-127.5 51q-51 54 -51 127.5t51 124.5q54 51 127.5 51t124.5 -51q54 -51 54 -124.5t-54 -127.5zM465 0h-363v1040h363v-1040z" />
    <glyph glyph-name="eth" unicode="&#xf0;" horiz-adv-x="1243" 
d="M59 477q0 207 127 334t324 127q99 0 178 -31l-145 176l-234 -86l-129 166l228 84l-156 187h389l64 -78l194 71l129 -165l-194 -72l114 -143q126 -156 182 -281q54 -117 54 -260q0 -225 -160 -379t-403 -154t-404 146q-158 149 -158 358zM473 340q57 -57 148 -57
q88 0 145 57q59 59 59 145q0 85 -59 144t-145 59q-89 0 -148 -59q-57 -57 -57 -144q0 -88 57 -145z" />
    <glyph glyph-name="ntilde" unicode="&#xf1;" horiz-adv-x="1280" 
d="M125 0v1040h362v-116q134 143 316 143q173 0 272 -115.5t99 -312.5v-639h-363v571q0 88 -41 130t-108 42q-107 0 -175 -92v-651h-362zM793 1174q-71 0 -150 40q-77 41 -119 41q-72 0 -90 -73h-182q0 130 72 223q70 94 186 94q66 0 143 -41q77 -39 123 -39q72 0 90 72h183
q0 -119 -74 -219q-70 -98 -182 -98z" />
    <glyph glyph-name="ograve" unicode="&#xf2;" horiz-adv-x="1290" 
d="M874 520q0 101 -65 169.5t-164 68.5t-164 -68.5t-65 -169.5q0 -103 64.5 -170t164.5 -67t164.5 67t64.5 170zM1065 129q-167 -156 -420 -156t-420 156q-166 156 -166 391q0 233 166 389q169 158 420 158t420 -158q166 -156 166 -389q0 -235 -166 -391zM811 1180h-301
l-322 311h428z" />
    <glyph glyph-name="oacute" unicode="&#xf3;" horiz-adv-x="1290" 
d="M874 520q0 101 -65 169.5t-164 68.5t-164 -68.5t-65 -169.5q0 -103 64.5 -170t164.5 -67t164.5 67t64.5 170zM1065 129q-167 -156 -420 -156t-420 156q-166 156 -166 391q0 233 166 389q169 158 420 158t420 -158q166 -156 166 -389q0 -235 -166 -391zM776 1180h-301
l195 311h428z" />
    <glyph glyph-name="ocircumflex" unicode="&#xf4;" horiz-adv-x="1290" 
d="M874 520q0 101 -65 169.5t-164 68.5t-164 -68.5t-65 -169.5q0 -103 64.5 -170t164.5 -67t164.5 67t64.5 170zM1065 129q-167 -156 -420 -156t-420 156q-166 156 -166 391q0 233 166 389q169 158 420 158t420 -158q166 -156 166 -389q0 -235 -166 -391zM518 1182h-301
l260 309h342l254 -309h-307l-125 141z" />
    <glyph glyph-name="otilde" unicode="&#xf5;" horiz-adv-x="1290" 
d="M874 520q0 101 -65 169.5t-164 68.5t-164 -68.5t-65 -169.5q0 -103 64.5 -170t164.5 -67t164.5 67t64.5 170zM1065 129q-167 -156 -420 -156t-420 156q-166 156 -166 391q0 233 166 389q169 158 420 158t420 -158q166 -156 166 -389q0 -235 -166 -391zM788 1174
q-70 0 -149 40q-77 41 -119 41q-72 0 -90 -73h-182q0 131 71 223q70 94 187 94q66 0 143 -41q77 -39 123 -39q72 0 90 72h182q0 -121 -73 -219q-70 -98 -183 -98z" />
    <glyph glyph-name="odieresis" unicode="&#xf6;" horiz-adv-x="1290" 
d="M874 520q0 101 -65 169.5t-164 68.5t-164 -68.5t-65 -169.5q0 -103 64.5 -170t164.5 -67t164.5 67t64.5 170zM1065 129q-167 -156 -420 -156t-420 156q-166 156 -166 391q0 233 166 389q169 158 420 158t420 -158q166 -156 166 -389q0 -235 -166 -391zM414 1159
q-72 0 -125 52.5t-53 125.5t52 124.5t126 51.5q75 0 126.5 -51t51.5 -125t-51.5 -126t-126.5 -52zM1004 1210q-51 -51 -124.5 -51t-127.5 51q-51 54 -51 127.5t51 124.5q54 51 127.5 51t124.5 -51q54 -51 54 -124.5t-54 -127.5z" />
    <glyph glyph-name="divide" unicode="&#xf7;" horiz-adv-x="1339" 
d="M455 190q0 91 63 154.5t154 63.5q90 0 152.5 -63.5t62.5 -154.5q0 -87 -64 -151q-61 -64 -151 -64t-154 64q-63 63 -63 151zM1206 514h-1073v320h1073v-320zM455 1155q0 91 63 154t154 63t153 -63t62 -154t-62 -153t-153 -62q-90 0 -154 64q-63 63 -63 151z" />
    <glyph glyph-name="oslash" unicode="&#xf8;" horiz-adv-x="1290" 
d="M645 -27q-155 0 -293 66l-41 -47h-248l140 160q-144 153 -144 368q0 233 166 389q169 158 420 158q158 0 291 -68l43 50h248l-140 -162q144 -153 144 -367q0 -235 -166 -391q-167 -156 -420 -156zM434 420l283 325q-37 13 -72 13q-99 0 -164 -68.5t-65 -169.5
q0 -56 18 -100zM645 283q100 0 164.5 67t64.5 170q0 54 -20 98l-283 -325q30 -10 74 -10z" />
    <glyph glyph-name="ugrave" unicode="&#xf9;" horiz-adv-x="1280" 
d="M836 1180h-301l-322 311h428zM477 -27q-173 0 -272 115.5t-99 312.5v639h363v-571q0 -88 41 -130t108 -42q107 0 175 92v651h362v-1040h-362v117q-135 -144 -316 -144z" />
    <glyph glyph-name="uacute" unicode="&#xfa;" horiz-adv-x="1280" 
d="M733 1180h-301l195 311h428zM477 -27q-173 0 -272 115.5t-99 312.5v639h363v-571q0 -88 41 -130t108 -42q107 0 175 92v651h362v-1040h-362v117q-135 -144 -316 -144z" />
    <glyph glyph-name="ucircumflex" unicode="&#xfb;" horiz-adv-x="1280" 
d="M477 -27q-173 0 -272 115.5t-99 312.5v639h363v-571q0 -88 41 -130t108 -42q107 0 175 92v651h362v-1040h-362v117q-135 -144 -316 -144zM504 1182h-301l260 309h342l254 -309h-307l-125 141z" />
    <glyph glyph-name="udieresis" unicode="&#xfc;" horiz-adv-x="1280" 
d="M477 -27q-173 0 -272 115.5t-99 312.5v639h363v-571q0 -88 41 -130t108 -42q107 0 175 92v651h362v-1040h-362v117q-135 -144 -316 -144zM401 1159q-72 0 -125 52.5t-53 125.5t52 124.5t126 51.5q75 0 127 -51t52 -125t-52 -126t-127 -52zM991 1210q-51 -51 -124.5 -51
t-127.5 51q-51 54 -51 127.5t51 124.5q54 51 127.5 51t124.5 -51q54 -51 54 -124.5t-54 -127.5z" />
    <glyph glyph-name="yacute" unicode="&#xfd;" horiz-adv-x="1247" 
d="M334 -422q-132 0 -232 47v312q77 -50 168 -50q70 0 115.5 34.5t77.5 113.5l-443 1005h386l231 -626l217 626h377l-465 -1144q-130 -318 -432 -318zM752 1180h-301l194 311h428z" />
    <glyph glyph-name="thorn" unicode="&#xfe;" horiz-adv-x="1333" 
d="M487 -410h-362v1844h362v-510q107 143 312 143q203 0 340 -158q135 -156 135 -389q0 -235 -135 -391t-340 -156q-201 0 -312 144v-527zM694 281q96 0 157.5 68t61.5 171q0 104 -61.5 172t-157.5 68q-136 0 -207 -111v-258q70 -110 207 -110z" />
    <glyph glyph-name="ydieresis" unicode="&#xff;" horiz-adv-x="1247" 
d="M334 -422q-132 0 -232 47v312q77 -50 168 -50q70 0 115.5 34.5t77.5 113.5l-443 1005h386l231 -626l217 626h377l-465 -1144q-130 -318 -432 -318zM395 1159q-72 0 -125 52.5t-53 125.5t52 124.5t126 51.5q75 0 126.5 -51t51.5 -125t-51.5 -126t-126.5 -52zM985 1210
q-51 -51 -124.5 -51t-127.5 51q-51 54 -51 127.5t51 124.5q54 51 127.5 51t124.5 -51q54 -51 54 -124.5t-54 -127.5z" />
    <glyph glyph-name="Amacron" unicode="&#x100;" horiz-adv-x="1599" 
d="M410 0h-390l603 1442h354l602 -1442h-395l-121 303h-533zM797 981l-150 -383h299zM1139 1589h-684v238h684v-238z" />
    <glyph glyph-name="amacron" unicode="&#x101;" horiz-adv-x="1251" 
d="M420 -27q-167 0 -275 97q-104 94 -104 249q1 68 25 125.5t64 96.5t92 66t109 38.5t115 9.5q156 0 265 -53v14q0 114 -86 142q-68 24 -156 24q-168 0 -303 -75v284q162 76 391 76t371 -115q141 -114 141 -305v-315q0 -56 61 -56q37 0 60 13v-258q-69 -54 -184 -54
q-184 0 -254 119q-126 -123 -332 -123zM543 217q109 0 168 90v109q-60 45 -152 45q-69 0 -115.5 -34.5t-46.5 -90.5q0 -54 41.5 -86.5t104.5 -32.5zM932 1212h-684v238h684v-238z" />
    <glyph glyph-name="Abreve" unicode="&#x102;" horiz-adv-x="1599" 
d="M410 0h-390l603 1442h354l602 -1442h-395l-121 303h-533zM797 981l-150 -383h299zM436 1876h230q6 -62 42.5 -99.5t92.5 -37.5q57 0 92.5 37.5t40.5 99.5h229q-6 -162 -106.5 -256t-255.5 -94q-150 0 -256 92q-103 95 -109 258z" />
    <glyph glyph-name="abreve" unicode="&#x103;" horiz-adv-x="1251" 
d="M420 -27q-167 0 -275 97q-104 94 -104 249q1 68 25 125.5t64 96.5t92 66t109 38.5t115 9.5q156 0 265 -53v14q0 114 -86 142q-68 24 -156 24q-168 0 -303 -75v284q162 76 391 76t371 -115q141 -114 141 -305v-315q0 -56 61 -56q37 0 60 13v-258q-69 -54 -184 -54
q-184 0 -254 119q-126 -123 -332 -123zM543 217q109 0 168 90v109q-60 45 -152 45q-69 0 -115.5 -34.5t-46.5 -90.5q0 -54 41.5 -86.5t104.5 -32.5zM213 1499h229q6 -62 42.5 -99.5t93.5 -37.5t92.5 37.5t40.5 99.5h229q-6 -162 -106.5 -256t-255.5 -94q-150 0 -256 92
q-103 95 -109 258z" />
    <glyph glyph-name="Aogonek" unicode="&#x104;" horiz-adv-x="1599" 
d="M1542 -422q-128 0 -204 60.5t-76 156.5q0 117 98 205h-176l-121 303h-533l-120 -303h-390l603 1434h354l602 -1434q-68 -68 -68 -131q0 -76 93 -76q46 0 71 14v-210q-52 -19 -133 -19zM797 973l-150 -375h299z" />
    <glyph glyph-name="aogonek" unicode="&#x105;" horiz-adv-x="1224" 
d="M1130 -422q-128 0 -204 60.5t-76 156.5q0 104 82 189q-126 21 -180 112q-126 -123 -332 -123q-167 0 -275 97q-104 94 -104 249q1 68 25 125.5t64 96.5t92 66t109 38.5t115 9.5q156 0 265 -53v14q0 114 -86 142q-68 24 -156 24q-168 0 -303 -75v284q162 76 391 76
t371 -115q141 -114 141 -305v-315q0 -56 61 -56q37 0 60 13v-258q-90 -101 -90 -162q0 -76 92 -76q47 0 72 14v-210q-52 -19 -134 -19zM543 217q109 0 168 90v109q-60 45 -152 45q-69 0 -115.5 -34.5t-46.5 -90.5q0 -54 41.5 -86.5t104.5 -32.5z" />
    <glyph glyph-name="Cacute" unicode="&#x106;" horiz-adv-x="1376" 
d="M891 -29q-343 0 -572 209q-227 208 -227 537q0 327 225 536q229 209 572 209q203 0 371 -82v-362q-168 104 -367 104q-181 0 -301 -114q-121 -115 -121 -291q0 -179 123 -293q125 -113 313 -113q226 0 377 115v-365q-178 -90 -393 -90zM911 1556h-301l195 312h428z" />
    <glyph glyph-name="cacute" unicode="&#x107;" horiz-adv-x="1044" 
d="M631 -27q-228 0 -402 148q-170 147 -170 401q0 256 172 400q174 145 404 145q175 0 307 -63v-304q-130 54 -250 54t-198 -63.5t-78 -170.5t78 -171t196 -64q150 0 266 61v-301q-153 -72 -325 -72zM651 1180h-301l195 311h428z" />
    <glyph glyph-name="Ccircumflex" unicode="&#x108;" horiz-adv-x="1376" 
d="M891 -29q-343 0 -572 209q-227 208 -227 537q0 327 225 536q229 209 572 209q203 0 371 -82v-362q-168 104 -367 104q-181 0 -301 -114q-121 -115 -121 -291q0 -179 123 -293q125 -113 313 -113q226 0 377 115v-365q-178 -90 -393 -90zM672 1559h-301l260 309h342
l254 -309h-307l-125 141z" />
    <glyph glyph-name="ccircumflex" unicode="&#x109;" horiz-adv-x="1044" 
d="M631 -27q-228 0 -402 148q-170 147 -170 401q0 256 172 400q174 145 404 145q175 0 307 -63v-304q-130 54 -250 54t-198 -63.5t-78 -170.5t78 -171t196 -64q150 0 266 61v-301q-153 -72 -325 -72zM457 1182h-301l260 309h342l254 -309h-307l-125 141z" />
    <glyph glyph-name="Cdotaccent" unicode="&#x10a;" horiz-adv-x="1376" 
d="M891 -29q-343 0 -572 209q-227 208 -227 537q0 327 225 536q229 209 572 209q203 0 371 -82v-362q-168 104 -367 104q-181 0 -301 -114q-121 -115 -121 -291q0 -179 123 -293q125 -113 313 -113q226 0 377 115v-365q-178 -90 -393 -90zM831 1536q-72 0 -125 52.5
t-53 125.5t52 124.5t126 51.5q75 0 127 -51t52 -125t-52 -126t-127 -52z" />
    <glyph glyph-name="cdotaccent" unicode="&#x10b;" horiz-adv-x="1052" 
d="M631 -27q-228 0 -402 148q-170 147 -170 401q0 256 172 400q174 145 404 145q175 0 307 -63v-304q-130 54 -250 54t-198 -63.5t-78 -170.5t78 -171t196 -64q150 0 266 61v-301q-153 -72 -325 -72zM602 1159q-72 0 -125 52.5t-53 125.5t52 124.5t126 51.5q75 0 126.5 -51
t51.5 -125t-51.5 -126t-126.5 -52z" />
    <glyph glyph-name="Ccaron" unicode="&#x10c;" horiz-adv-x="1376" 
d="M891 -29q-343 0 -572 209q-227 208 -227 537q0 327 225 536q229 209 572 209q203 0 371 -82v-362q-168 104 -367 104q-181 0 -301 -114q-121 -115 -121 -291q0 -179 123 -293q125 -113 313 -113q226 0 377 115v-365q-178 -90 -393 -90zM975 1559h-342l-254 309h307
l125 -142l123 142h301z" />
    <glyph glyph-name="ccaron" unicode="&#x10d;" horiz-adv-x="1044" 
d="M631 -27q-228 0 -402 148q-170 147 -170 401q0 256 172 400q174 145 404 145q175 0 307 -63v-304q-130 54 -250 54t-198 -63.5t-78 -170.5t78 -171t196 -64q150 0 266 61v-301q-153 -72 -325 -72zM733 1180h-342l-254 309h307l125 -141l123 141h301z" />
    <glyph glyph-name="Dcaron" unicode="&#x10e;" horiz-adv-x="1593" 
d="M709 0h-572v1434h572q349 0 571 -201q221 -200 221 -516q0 -318 -221 -518q-220 -199 -571 -199zM506 1110v-786h176q210 0 324 102t114 291t-114 291t-324 102h-176zM889 1559h-342l-254 309h307l125 -142l123 142h301z" />
    <glyph glyph-name="dcaron" unicode="&#x10f;" horiz-adv-x="1748" 
d="M535 -27q-205 0 -340 156q-136 157 -136 391q0 232 136 389q137 158 340 158q201 0 311 -143v510h362v-1434h-362v117q-108 -144 -311 -144zM639 281q137 0 207 110v258q-70 111 -207 111q-96 0 -157.5 -68t-61.5 -172q0 -103 61.5 -171t157.5 -68zM1587 987h-266
l123 447h315z" />
    <glyph glyph-name="Dcroat" unicode="&#x110;" horiz-adv-x="1712" 
d="M256 606h-182v305h182v523h571q350 0 572 -201q221 -200 221 -516q0 -318 -221 -518q-220 -199 -572 -199h-571v606zM625 606v-282h176q210 0 324 102t114 291t-114 291t-324 102h-176v-199h258v-305h-258z" />
    <glyph glyph-name="dslash" unicode="&#x111;" horiz-adv-x="1316" 
d="M532 -27q-204 0 -339 156q-134 158 -134 391t134 391q135 156 339 156q193 0 318 -143v245h-248v154h248v111h362v-111h185v-154h-185v-1169h-362v117q-126 -144 -318 -144zM643 281q138 0 207 112v254q-70 113 -207 113q-96 0 -158.5 -68.5t-62.5 -171.5t62.5 -171
t158.5 -68z" />
    <glyph glyph-name="Emacron" unicode="&#x112;" horiz-adv-x="1314" 
d="M1243 0h-1106v1434h1090v-324h-721v-195h573v-311h-573v-280h737v-324zM1032 1589h-684v238h684v-238z" />
    <glyph glyph-name="emacron" unicode="&#x113;" horiz-adv-x="1179" 
d="M639 -27q-241 0 -412 148q-168 149 -168 399q0 231 152 389t399 158q222 0 361 -154q141 -150 141 -391v-90h-696q23 -79 104.5 -120.5t198.5 -41.5q168 0 334 90v-278q-148 -109 -414 -109zM414 625h344q-1 77 -49 126.5t-115 49.5q-72 0 -121 -47.5t-59 -128.5z
M930 1212h-684v238h684v-238z" />
    <glyph glyph-name="Ebreve" unicode="&#x114;" horiz-adv-x="1314" 
d="M1243 0h-1106v1434h1090v-324h-721v-195h573v-311h-573v-280h737v-324zM328 1876h229q6 -62 42.5 -99.5t92.5 -37.5q57 0 92.5 37.5t40.5 99.5h230q-6 -161 -107 -255.5t-256 -94.5q-150 0 -256 92q-102 94 -108 258z" />
    <glyph glyph-name="ebreve" unicode="&#x115;" horiz-adv-x="1179" 
d="M639 -27q-241 0 -412 148q-168 149 -168 399q0 231 152 389t399 158q222 0 361 -154q141 -150 141 -391v-90h-696q23 -79 104.5 -120.5t198.5 -41.5q168 0 334 90v-278q-148 -109 -414 -109zM414 625h344q-1 77 -49 126.5t-115 49.5q-72 0 -121 -47.5t-59 -128.5z
M225 1499h230q6 -62 42.5 -99.5t92.5 -37.5q57 0 92.5 37.5t40.5 99.5h229q-6 -162 -106.5 -256t-255.5 -94q-150 0 -256 92q-103 95 -109 258z" />
    <glyph glyph-name="Edotaccent" unicode="&#x116;" horiz-adv-x="1314" 
d="M1243 0h-1106v1434h1090v-324h-721v-195h573v-311h-573v-280h737v-324zM688 1536q-72 0 -125 52.5t-53 125.5t52 124.5t126 51.5q75 0 126.5 -51t51.5 -125t-51.5 -126t-126.5 -52z" />
    <glyph glyph-name="edotaccent" unicode="&#x117;" horiz-adv-x="1179" 
d="M639 -27q-241 0 -412 148q-168 149 -168 399q0 231 152 389t399 158q222 0 361 -154q141 -150 141 -391v-90h-696q23 -79 104.5 -120.5t198.5 -41.5q168 0 334 90v-278q-148 -109 -414 -109zM414 625h344q-1 77 -49 126.5t-115 49.5q-72 0 -121 -47.5t-59 -128.5z
M586 1159q-72 0 -125 52.5t-53 125.5t52 124.5t126 51.5q75 0 126.5 -51t51.5 -125t-51.5 -126t-126.5 -52z" />
    <glyph glyph-name="Eogonek" unicode="&#x118;" horiz-adv-x="1333" 
d="M1024 0h-887v1434h1090v-324h-721v-195h573v-311h-573v-280h737v-324q-67 -67 -67 -131q0 -76 92 -76q46 0 71 14v-210q-52 -19 -133 -19q-128 0 -204 60.5t-76 156.5q0 117 98 205z" />
    <glyph glyph-name="eogonek" unicode="&#x119;" horiz-adv-x="1179" 
d="M889 -422q-129 0 -205 59t-76 154q0 106 90 184q-7 0 -29.5 -1t-29.5 -1q-241 0 -412 148q-168 149 -168 399q0 231 152 389t399 158q222 0 361 -154q141 -150 141 -391v-90h-696q23 -80 106 -121t205 -41q160 0 326 90v-278q-2 -2 -19.5 -13.5t-43 -29t-44.5 -31.5
q-35 -25 -61.5 -64t-26.5 -75q0 -76 92 -76q47 0 72 14v-210q-52 -19 -133 -19zM414 625h344q-1 77 -49 126.5t-115 49.5q-72 0 -121 -47.5t-59 -128.5z" />
    <glyph glyph-name="Ecaron" unicode="&#x11a;" horiz-adv-x="1314" 
d="M1243 0h-1106v1434h1090v-324h-721v-195h573v-311h-573v-280h737v-324zM858 1559h-342l-254 309h307l125 -142l123 142h301z" />
    <glyph glyph-name="ecaron" unicode="&#x11b;" horiz-adv-x="1179" 
d="M639 -27q-241 0 -412 148q-168 149 -168 399q0 231 152 389t399 158q222 0 361 -154q141 -150 141 -391v-90h-696q23 -79 104.5 -120.5t198.5 -41.5q168 0 334 90v-278q-148 -109 -414 -109zM414 625h344q-1 77 -49 126.5t-115 49.5q-72 0 -121 -47.5t-59 -128.5z
M754 1180h-342l-254 309h307l125 -141l123 141h301z" />
    <glyph glyph-name="Gcircumflex" unicode="&#x11c;" horiz-adv-x="1562" 
d="M872 -29q-331 0 -557 209q-223 210 -223 537t225 536q226 209 570 209q225 0 418 -102v-346q-197 108 -392 108q-196 0 -319 -114t-123 -297q0 -190 117 -301t284 -111q145 0 228 68v469h370v-637q-87 -96 -247 -162q-167 -66 -351 -66zM690 1559h-301l260 309h342
l254 -309h-307l-125 141z" />
    <glyph glyph-name="gcircumflex" unicode="&#x11d;" horiz-adv-x="1310" 
d="M578 -422q-266 0 -412 88v316q165 -101 373 -101q67 0 133 17q68 19 116 78t48 147v53q-124 -133 -316 -133q-202 0 -332 145q-129 144 -129 367t129 367q130 145 332 145q190 0 316 -135v108h362v-895q0 -138 -54.5 -251.5t-148.5 -180.5q-185 -135 -417 -135zM629 346
q138 0 207 96v226q-72 96 -207 96q-95 0 -152 -58.5t-57 -150.5t57 -150.5t152 -58.5zM512 1182h-301l260 309h342l254 -309h-307l-125 141z" />
    <glyph glyph-name="Gbreve" unicode="&#x11e;" horiz-adv-x="1562" 
d="M872 -29q-331 0 -557 209q-223 210 -223 537t225 536q226 209 570 209q225 0 418 -102v-346q-197 108 -392 108q-196 0 -319 -114t-123 -297q0 -190 117 -301t284 -111q145 0 228 68v469h370v-637q-87 -96 -247 -162q-167 -66 -351 -66zM475 1909h230q6 -62 42.5 -99.5
t92.5 -37.5q57 0 92.5 37.5t40.5 99.5h229q-6 -162 -106.5 -256t-255.5 -94q-150 0 -256 92q-103 95 -109 258z" />
    <glyph glyph-name="gbreve" unicode="&#x11f;" horiz-adv-x="1310" 
d="M578 -422q-266 0 -412 88v316q165 -101 373 -101q67 0 133 17q68 19 116 78t48 147v53q-124 -133 -316 -133q-202 0 -332 145q-129 144 -129 367t129 367q130 145 332 145q190 0 316 -135v108h362v-895q0 -138 -54.5 -251.5t-148.5 -180.5q-185 -135 -417 -135zM629 346
q138 0 207 96v226q-72 96 -207 96q-95 0 -152 -58.5t-57 -150.5t57 -150.5t152 -58.5zM264 1499h230q6 -62 42.5 -99.5t92.5 -37.5q57 0 92.5 37.5t40.5 99.5h229q-6 -162 -106.5 -256t-255.5 -94q-150 0 -256 92q-103 95 -109 258z" />
    <glyph glyph-name="Gdotaccent" unicode="&#x120;" horiz-adv-x="1562" 
d="M872 -29q-331 0 -557 209q-223 210 -223 537t225 536q226 209 570 209q225 0 418 -102v-346q-197 108 -392 108q-196 0 -319 -114t-123 -297q0 -190 117 -301t284 -111q145 0 228 68v469h370v-637q-87 -96 -247 -162q-167 -66 -351 -66zM842 1536q-72 0 -125 52.5
t-53 125.5t52 124.5t126 51.5q75 0 126.5 -51t51.5 -125t-51.5 -126t-126.5 -52z" />
    <glyph glyph-name="gdotaccent" unicode="&#x121;" horiz-adv-x="1310" 
d="M578 -422q-266 0 -412 88v316q165 -101 373 -101q67 0 133 17q68 19 116 78t48 147v53q-124 -133 -316 -133q-202 0 -332 145q-129 144 -129 367t129 367q130 145 332 145q190 0 316 -135v108h362v-895q0 -138 -54.5 -251.5t-148.5 -180.5q-185 -135 -417 -135zM629 346
q138 0 207 96v226q-72 96 -207 96q-95 0 -152 -58.5t-57 -150.5t57 -150.5t152 -58.5zM629 1159q-72 0 -125 52.5t-53 125.5t52 124.5t126 51.5q75 0 126.5 -51t51.5 -125t-51.5 -126t-126.5 -52z" />
    <glyph glyph-name="uni0122" unicode="&#x122;" horiz-adv-x="1562" 
d="M872 -29q-331 0 -557 209q-223 210 -223 537t225 536q226 209 570 209q225 0 418 -102v-346q-197 108 -392 108q-196 0 -319 -114t-123 -297q0 -190 117 -301t284 -111q145 0 228 68v469h370v-637q-87 -96 -247 -162q-167 -66 -351 -66zM872 -594h-266l123 447h315z" />
    <glyph glyph-name="uni0123" unicode="&#x123;" horiz-adv-x="1310" 
d="M578 -422q-266 0 -412 88v316q165 -101 373 -101q67 0 133 17q68 19 116 78t48 147v53q-124 -133 -316 -133q-202 0 -332 145q-129 144 -129 367t129 367q130 145 332 145q190 0 316 -135v108h362v-895q0 -138 -54.5 -251.5t-148.5 -180.5q-185 -135 -417 -135zM629 346
q138 0 207 96v226q-72 96 -207 96q-95 0 -152 -58.5t-57 -150.5t57 -150.5t152 -58.5zM662 1638h266l-123 -446h-316z" />
    <glyph glyph-name="Hcircumflex" unicode="&#x124;" horiz-adv-x="1552" 
d="M506 0h-369v1434h369v-510h541v510h368v-1434h-368v596h-541v-596zM649 1559h-301l260 309h342l254 -309h-307l-125 141z" />
    <glyph glyph-name="hcircumflex" unicode="&#x125;" horiz-adv-x="1259" 
d="M104 0v1434h363v-510q134 143 315 143q173 0 272 -115.5t99 -312.5v-639h-362v571q0 88 -41 130t-109 42q-106 0 -174 -92v-651h-363zM164 1559h-301l260 309h342l254 -309h-307l-125 141z" />
    <glyph glyph-name="Hbar" unicode="&#x126;" horiz-adv-x="1675" 
d="M567 0h-368v1042h-127v238h127v154h368v-154h541v154h369v-154h127v-238h-127v-1042h-369v596h-541v-596zM567 1042v-118h541v118h-541z" />
    <glyph glyph-name="hbar" unicode="&#x127;" horiz-adv-x="1388" 
d="M596 467v-467h-363v1042h-206v238h206v154h363v-154h346v-238h-346v-307q138 144 330 144q170 0 263 -114t93 -314v-451h-362v383q0 88 -40 130t-106 42q-108 0 -178 -88z" />
    <glyph glyph-name="Itilde" unicode="&#x128;" horiz-adv-x="659" 
d="M471 1550q-69 0 -149 41q-77 41 -119 41q-72 0 -90 -73h-183q0 130 72 223q70 94 186 94q67 0 144 -41q77 -39 123 -39q72 0 90 72h182q0 -119 -74 -219q-71 -99 -182 -99zM514 0h-369v1434h369v-1434z" />
    <glyph glyph-name="itilde" unicode="&#x129;" horiz-adv-x="567" 
d="M426 1174q-71 0 -150 40q-77 41 -118 41q-72 0 -90 -73h-183q0 130 72 223q70 94 186 94q67 0 144 -41q77 -39 123 -39q72 0 90 72h182q0 -119 -74 -219q-70 -98 -182 -98zM465 0h-363v1040h363v-1040z" />
    <glyph glyph-name="Imacron" unicode="&#x12a;" horiz-adv-x="659" 
d="M514 0h-369v1434h369v-1434zM674 1589h-684v238h684v-238z" />
    <glyph glyph-name="imacron" unicode="&#x12b;" horiz-adv-x="567" 
d="M625 1212h-684v238h684v-238zM465 0h-363v1040h363v-1040z" />
    <glyph glyph-name="Ibreve" unicode="&#x12c;" horiz-adv-x="659" 
d="M-33 1876h230q6 -62 42.5 -99.5t92.5 -37.5q57 0 92.5 37.5t40.5 99.5h229q-6 -162 -106.5 -256t-255.5 -94q-150 0 -256 92q-103 95 -109 258zM514 0h-369v1434h369v-1434z" />
    <glyph glyph-name="ibreve" unicode="&#x12d;" horiz-adv-x="567" 
d="M-82 1499h229q6 -62 42.5 -99.5t93.5 -37.5t92.5 37.5t40.5 99.5h229q-6 -162 -106.5 -256t-255.5 -94q-150 0 -256 92q-103 95 -109 258zM465 0h-363v1040h363v-1040z" />
    <glyph glyph-name="Iogonek" unicode="&#x12e;" horiz-adv-x="659" 
d="M477 -422q-128 0 -204 60.5t-76 156.5q0 117 98 205h-150v1434h369v-1434q-68 -68 -68 -131q0 -76 93 -76q46 0 71 14v-210q-52 -19 -133 -19z" />
    <glyph glyph-name="iogonek" unicode="&#x12f;" horiz-adv-x="634" 
d="M461 -422q-128 0 -204.5 61t-76.5 156q0 116 99 205h-144v1040h363v-1040q-68 -68 -68 -131q0 -76 92 -76q47 0 72 14v-210q-52 -19 -133 -19zM315 1135q-86 0 -146 60t-60 148t60 148.5t146 60.5q88 0 148.5 -60.5t60.5 -148.5t-60.5 -148t-148.5 -60z" />
    <glyph glyph-name="Idot" unicode="&#x130;" horiz-adv-x="659" 
d="M330 1536q-72 0 -125 52.5t-53 125.5t52 124.5t126 51.5q75 0 126.5 -51t51.5 -125t-51.5 -126t-126.5 -52zM514 0h-369v1434h369v-1434z" />
    <glyph glyph-name="dotlessi" unicode="&#x131;" horiz-adv-x="567" 
d="M465 0h-363v1040h363v-1040z" />
    <glyph glyph-name="IJ" unicode="&#x132;" horiz-adv-x="1331" 
d="M514 569h-369v865h369v-865zM565 -29q-102 0 -227 25q-116 23 -193 72v346q171 -103 365 -103q163 0 241 61t78 199v863h369v-895q0 -157 -51.5 -272.5t-145.5 -178.5q-176 -117 -436 -117z" />
    <glyph glyph-name="Jcircumflex" unicode="&#x134;" horiz-adv-x="1052" 
d="M403 -29q-231 0 -352 80v355q127 -95 273 -95q124 0 182.5 55.5t58.5 182.5v885h369v-945q0 -144 -43.5 -249.5t-122.5 -163.5q-148 -105 -365 -105zM618 1559h-301l261 309h342l254 -309h-308l-125 141z" />
    <glyph glyph-name="jcircumflex" unicode="&#x135;" horiz-adv-x="634" 
d="M88 -422q-174 0 -254 45v301q79 -39 158 -39q68 0 106.5 37.5t38.5 106.5v1011h363v-1038q0 -198 -109 -311t-303 -113zM195 1182h-301l260 309h342l254 -309h-308l-125 141z" />
    <glyph glyph-name="uni0136" unicode="&#x136;" horiz-adv-x="1505" 
d="M506 0h-369v1434h369v-547l465 547h442l-555 -660l658 -774h-449l-561 637v-637zM776 -594h-266l123 447h315z" />
    <glyph glyph-name="uni0137" unicode="&#x137;" horiz-adv-x="1273" 
d="M467 0h-363v1434h363v-762l309 368h428l-411 -467l479 -573h-453l-352 430v-430zM664 -594h-267l123 447h316z" />
    <glyph glyph-name="kgreenlandic" unicode="&#x138;" horiz-adv-x="1294" 
d="M487 0h-362v1040h362v-368l310 368h428l-412 -467l479 -573h-452l-353 430v-430z" />
    <glyph glyph-name="Lacute" unicode="&#x139;" horiz-adv-x="1247" 
d="M1194 0h-1057v1434h369v-1110h688v-324zM477 1556h-301l195 312h428z" />
    <glyph glyph-name="lacute" unicode="&#x13a;" horiz-adv-x="663" 
d="M401 -27q-297 0 -297 303v1158h363v-1072q0 -79 74 -79q36 0 61 14v-285q-74 -39 -201 -39zM438 1556h-301l195 312h428z" />
    <glyph glyph-name="uni013B" unicode="&#x13b;" horiz-adv-x="1247" 
d="M1194 0h-1057v1434h369v-1110h688v-324zM707 -594h-267l123 447h316z" />
    <glyph glyph-name="lcommaaccent" unicode="&#x13c;" horiz-adv-x="663" 
d="M401 -27q-297 0 -297 303v1158h363v-1072q0 -79 74 -79q36 0 61 14v-285q-74 -39 -201 -39zM389 -594h-266l123 447h315z" />
    <glyph glyph-name="Lcaron" unicode="&#x13d;" horiz-adv-x="1247" 
d="M1194 0h-1057v1434h369v-1110h688v-324zM987 987h-266l123 447h315z" />
    <glyph glyph-name="lcaron" unicode="&#x13e;" horiz-adv-x="972" 
d="M377 -27q-297 0 -297 303v1158h362v-1072q0 -79 74 -79q37 0 62 14v-285q-74 -39 -201 -39zM811 987h-266l123 447h315z" />
    <glyph glyph-name="Ldot" unicode="&#x13f;" horiz-adv-x="1247" 
d="M1130 641q-60 -63 -151 -63t-154 63q-61 64 -61 154t61 151q64 64 154 64t151 -64q64 -61 64 -151t-64 -154zM1194 0h-1057v1434h369v-1110h688v-324z" />
    <glyph glyph-name="ldot" unicode="&#x140;" horiz-adv-x="1060" 
d="M401 -27q-297 0 -297 303v1158h363v-1072q0 -79 74 -79q36 0 61 14v-285q-74 -39 -201 -39zM926 641q-60 -63 -152 -63q-90 0 -153 63q-62 65 -62 154t62 151q64 64 153 64q91 0 152 -64q63 -60 63 -151t-63 -154z" />
    <glyph glyph-name="Lslash" unicode="&#x141;" horiz-adv-x="1329" 
d="M1276 0h-1057v522l-201 -131v309l201 131v603h369v-361l291 193v-310l-291 -192v-440h688v-324z" />
    <glyph glyph-name="lslash" unicode="&#x142;" horiz-adv-x="845" 
d="M539 -27q-297 0 -297 303v201l-209 -137v309l209 137v648h362v-410l213 141v-309l-213 -141v-353q0 -79 74 -79q36 0 61 14v-285q-74 -39 -200 -39z" />
    <glyph glyph-name="Nacute" unicode="&#x143;" horiz-adv-x="1576" 
d="M500 0h-363v1434h316l626 -789v789h361v-1434h-305l-635 793v-793zM924 1556h-301l194 312h428z" />
    <glyph glyph-name="nacute" unicode="&#x144;" horiz-adv-x="1280" 
d="M125 0v1040h362v-116q134 143 316 143q173 0 272 -115.5t99 -312.5v-639h-363v571q0 88 -41 130t-108 42q-107 0 -175 -92v-651h-362zM737 1180h-301l195 311h428z" />
    <glyph glyph-name="uni0145" unicode="&#x145;" horiz-adv-x="1576" 
d="M500 0h-363v1434h316l626 -789v789h361v-1434h-305l-635 793v-793zM848 -594h-266l123 447h315z" />
    <glyph glyph-name="uni0146" unicode="&#x146;" horiz-adv-x="1280" 
d="M487 651v-651h-362v1040h362v-116q134 143 316 143q173 0 272 -115.5t99 -312.5v-639h-363v571q0 88 -41 130t-108 42q-107 0 -175 -92zM643 -594h-266l123 447h315z" />
    <glyph glyph-name="Ncaron" unicode="&#x147;" horiz-adv-x="1576" 
d="M500 0h-363v1434h316l626 -789v789h361v-1434h-305l-635 793v-793zM956 1559h-342l-254 309h308l125 -142l122 142h302z" />
    <glyph glyph-name="ncaron" unicode="&#x148;" horiz-adv-x="1280" 
d="M125 0v1040h362v-116q134 143 316 143q173 0 272 -115.5t99 -312.5v-639h-363v571q0 88 -41 130t-108 42q-107 0 -175 -92v-651h-362zM817 1180h-342l-254 309h307l125 -141l123 141h301z" />
    <glyph glyph-name="napostrophe" unicode="&#x149;" horiz-adv-x="1689" 
d="M535 0v1040h362v-116q134 143 315 143q173 0 272 -115.5t99 -312.5v-639h-362v571q0 88 -41 130t-109 42q-106 0 -174 -92v-651h-362zM346 987h-266l123 447h315z" />
    <glyph glyph-name="Eng" unicode="&#x14a;" horiz-adv-x="1576" 
d="M1020 -422q-167 0 -246 43v297q67 -33 152 -33q144 0 147 144v53l-567 723v-805h-369v1434h314l622 -801v801h367v-1432q0 -197 -111.5 -310.5t-308.5 -113.5z" />
    <glyph glyph-name="eng" unicode="&#x14b;" horiz-adv-x="1280" 
d="M754 -422q-167 0 -246 43v297q67 -33 151 -33q152 0 152 148v538q0 88 -39.5 130t-105.5 42q-109 0 -179 -88v-655h-362v1040h362v-116q137 143 330 143q170 0 263.5 -114t93.5 -314v-637q0 -197 -111.5 -310.5t-308.5 -113.5z" />
    <glyph glyph-name="Omacron" unicode="&#x14c;" horiz-adv-x="1695" 
d="M578 426q109 -115 270 -115q159 0 268 115t109 291t-109 291q-108 114 -268 114q-162 0 -270 -114q-107 -113 -107 -291t107 -291zM1389 188q-214 -217 -541 -217t-541 217q-215 218 -215 529q0 310 215 528q214 217 541 217t541 -217q215 -218 215 -528
q0 -311 -215 -529zM1192 1589h-684v238h684v-238z" />
    <glyph glyph-name="omacron" unicode="&#x14d;" horiz-adv-x="1290" 
d="M874 520q0 101 -65 169.5t-164 68.5t-164 -68.5t-65 -169.5q0 -103 64.5 -170t164.5 -67t164.5 67t64.5 170zM1065 129q-167 -156 -420 -156t-420 156q-166 156 -166 391q0 233 166 389q169 158 420 158t420 -158q166 -156 166 -389q0 -235 -166 -391zM987 1212h-684v238
h684v-238z" />
    <glyph glyph-name="Obreve" unicode="&#x14e;" horiz-adv-x="1695" 
d="M578 426q109 -115 270 -115q159 0 268 115t109 291t-109 291q-108 114 -268 114q-162 0 -270 -114q-107 -113 -107 -291t107 -291zM1389 188q-214 -217 -541 -217t-541 217q-215 218 -215 529q0 310 215 528q214 217 541 217t541 -217q215 -218 215 -528
q0 -311 -215 -529zM483 1907h230q6 -62 42.5 -100t92.5 -38t92 38t41 100h229q-6 -162 -106.5 -256.5t-255.5 -94.5q-149 0 -256 93q-103 95 -109 258z" />
    <glyph glyph-name="obreve" unicode="&#x14f;" horiz-adv-x="1290" 
d="M874 520q0 101 -65 169.5t-164 68.5t-164 -68.5t-65 -169.5q0 -103 64.5 -170t164.5 -67t164.5 67t64.5 170zM1065 129q-167 -156 -420 -156t-420 156q-166 156 -166 391q0 233 166 389q169 158 420 158t420 -158q166 -156 166 -389q0 -235 -166 -391zM283 1518h229
q6 -62 42.5 -100t92.5 -38t92 38t41 100h230q-6 -162 -107 -256.5t-256 -94.5q-149 0 -256 93q-102 94 -108 258z" />
    <glyph glyph-name="Ohungarumlaut" unicode="&#x150;" horiz-adv-x="1695" 
d="M578 426q109 -115 270 -115q159 0 268 115t109 291t-109 291q-108 114 -268 114q-162 0 -270 -114q-107 -113 -107 -291t107 -291zM1389 188q-214 -217 -541 -217t-541 217q-215 218 -215 529q0 310 215 528q214 217 541 217t541 -217q215 -218 215 -528
q0 -311 -215 -529zM729 1556h-307l194 312h435zM1286 1556h-307l195 312h434z" />
    <glyph glyph-name="ohungarumlaut" unicode="&#x151;" horiz-adv-x="1290" 
d="M874 520q0 101 -65 169.5t-164 68.5t-164 -68.5t-65 -169.5q0 -103 64.5 -170t164.5 -67t164.5 67t64.5 170zM1065 129q-167 -156 -420 -156t-420 156q-166 156 -166 391q0 233 166 389q169 158 420 158t420 -158q166 -156 166 -389q0 -235 -166 -391zM500 1180h-307
l194 311h434zM1057 1180h-307l194 311h434z" />
    <glyph glyph-name="OE" unicode="&#x152;" horiz-adv-x="2158" 
d="M2087 0h-1202q-352 0 -572 199q-221 200 -221 518q0 316 221 516q222 201 572 201h1186v-324h-701v-195h553v-311h-553v-280h717v-324zM911 324h90v786h-90q-210 0 -324 -102t-114 -291t114 -291t324 -102z" />
    <glyph glyph-name="oe" unicode="&#x153;" horiz-adv-x="1966" 
d="M1898 522v-90h-696q23 -79 104.5 -120.5t198.5 -41.5q168 0 334 90v-278q-148 -109 -395 -109q-120 0 -228 42t-172 110q-175 -152 -399 -152q-253 0 -420 156q-166 156 -166 391q0 233 166 389q169 158 420 158q227 0 393 -158q146 158 367 158q208 0 350 -154
q143 -152 143 -391zM874 520q0 101 -65 169.5t-164 68.5t-164 -68.5t-65 -169.5q0 -103 64.5 -170t164.5 -67t164.5 67t64.5 170zM1200 625h344q-1 77 -49 126.5t-115 49.5q-72 0 -121 -47.5t-59 -128.5z" />
    <glyph glyph-name="Racute" unicode="&#x154;" horiz-adv-x="1492" 
d="M506 0h-369v1434h674q238 0 375 -125q141 -123 141 -318q0 -139 -73.5 -245.5t-204.5 -157.5l434 -588h-424l-406 547h-147v-547zM506 1122v-274h285q75 0 119 36t44 99t-44 101t-119 38h-285zM729 1556h-301l195 312h428z" />
    <glyph glyph-name="racute" unicode="&#x155;" horiz-adv-x="946" 
d="M487 0h-362v1040h362v-170q38 72 134 134q97 63 208 63q25 0 45 -4v-350q-69 16 -122 16q-91 0 -162.5 -34.5t-102.5 -90.5v-604zM571 1180h-301l195 311h428z" />
    <glyph glyph-name="uni0156" unicode="&#x156;" horiz-adv-x="1492" 
d="M506 0h-369v1434h674q238 0 375 -125q141 -123 141 -318q0 -139 -73.5 -245.5t-204.5 -157.5l434 -588h-424l-406 547h-147v-547zM506 1122v-274h285q75 0 119 36t44 99t-44 101t-119 38h-285zM780 -594h-266l123 447h315z" />
    <glyph glyph-name="uni0157" unicode="&#x157;" horiz-adv-x="927" 
d="M487 0h-362v1040h362v-170q38 72 134 134q97 63 208 63q25 0 45 -4v-350q-69 16 -122 16q-91 0 -162.5 -34.5t-102.5 -90.5v-604zM289 -594h-266l122 447h316z" />
    <glyph glyph-name="Rcaron" unicode="&#x158;" horiz-adv-x="1492" 
d="M506 0h-369v1434h674q238 0 375 -125q141 -123 141 -318q0 -139 -73.5 -245.5t-204.5 -157.5l434 -588h-424l-406 547h-147v-547zM506 1122v-274h285q75 0 119 36t44 99t-44 101t-119 38h-285zM854 1559h-342l-254 309h307l125 -142l123 142h301z" />
    <glyph glyph-name="rcaron" unicode="&#x159;" horiz-adv-x="907" 
d="M467 0h-363v1040h363v-170q39 73 133 134q97 63 209 63q25 0 45 -4v-350q-69 16 -123 16q-91 0 -162 -34.5t-102 -90.5v-604zM627 1180h-342l-254 309h307l125 -141l123 141h301z" />
    <glyph glyph-name="Sacute" unicode="&#x15a;" horiz-adv-x="1302" 
d="M643 -29q-329 0 -555 154v377q86 -80 246 -140q152 -57 295 -57q219 0 219 113q0 29 -13 46.5t-42 37.5q-13 11 -93 37l-129 39l-104 30l-94 37q-56 22 -94 45q-112 84 -140 131q-51 96 -51 211q0 205 151 317.5t412 112.5q263 0 486 -119v-354q-90 56 -228 98
q-134 41 -254 41q-188 0 -188 -94q0 -40 59 -65l66 -23q23 -7 96 -28t100 -29q207 -68 324 -170t117 -287q0 -210 -164 -336q-162 -125 -422 -125zM702 1556h-301l195 312h428z" />
    <glyph glyph-name="sacute" unicode="&#x15b;" horiz-adv-x="1060" 
d="M526 -27q-288 0 -440 93v305q63 -46 180 -80q112 -33 244 -33q127 0 127 51q0 29 -45 47l-47 17q-39 12 -146 39q-180 53 -252 116q-71 65 -71 207q0 155 127 243.5t350 88.5q231 0 393 -98v-295q-178 112 -379 112q-116 0 -116 -53q0 -33 47 -47l49 -14q5 -1 135 -31
q168 -43 243.5 -120t75.5 -212q0 -149 -129 -243q-128 -93 -346 -93zM567 1180h-301l195 311h428z" />
    <glyph glyph-name="Scircumflex" unicode="&#x15c;" horiz-adv-x="1302" 
d="M643 -29q-329 0 -555 154v377q86 -80 246 -140q152 -57 295 -57q219 0 219 113q0 29 -13 46.5t-42 37.5q-13 11 -93 37l-129 39l-104 30l-94 37q-56 22 -94 45q-112 84 -140 131q-51 96 -51 211q0 205 151 317.5t412 112.5q263 0 486 -119v-354q-90 56 -228 98
q-134 41 -254 41q-188 0 -188 -94q0 -40 59 -65l66 -23q23 -7 96 -28t100 -29q207 -68 324 -170t117 -287q0 -210 -164 -336q-162 -125 -422 -125zM512 1559h-301l260 309h342l254 -309h-307l-125 141z" />
    <glyph glyph-name="scircumflex" unicode="&#x15d;" horiz-adv-x="1060" 
d="M526 -27q-288 0 -440 93v305q63 -46 180 -80q112 -33 244 -33q127 0 127 51q0 29 -45 47l-47 17q-39 12 -146 39q-180 53 -252 116q-71 65 -71 207q0 155 127 243.5t350 88.5q231 0 393 -98v-295q-178 112 -379 112q-116 0 -116 -53q0 -33 47 -47l49 -14q5 -1 135 -31
q168 -43 243.5 -120t75.5 -212q0 -149 -129 -243q-128 -93 -346 -93zM416 1182h-301l260 309h342l254 -309h-307l-125 141z" />
    <glyph glyph-name="Scedilla" unicode="&#x15e;" horiz-adv-x="1296" 
d="M715 -311h-418l223 288q-253 21 -430 148v377q85 -79 244 -140q152 -57 293 -57q215 0 215 113q0 62 -60 88q-8 3 -19 9t-22 11t-26 9q-20 7 -72.5 22l-73.5 21l-104 30l-94 37q-59 23 -95 45q-106 80 -137 131q-51 96 -51 211q0 205 150 317.5t411 112.5q258 0 477 -116
v-355q-98 60 -226.5 98.5t-246.5 38.5q-186 0 -186 -94q0 -40 59 -65q8 -3 30.5 -11.5t33.5 -11.5q39 -9 196 -57q219 -72 328 -177t109 -280q0 -166 -105 -282t-287 -158z" />
    <glyph glyph-name="scedilla" unicode="&#x15f;" horiz-adv-x="1060" 
d="M575 -311h-417l225 293q-198 22 -297 84v305q63 -46 180 -80q112 -33 244 -33q127 0 127 51q0 29 -45 47l-47 17q-39 12 -146 39q-180 53 -252 116q-71 65 -71 207q0 155 127 243.5t350 88.5q231 0 393 -98v-295q-178 112 -379 112q-116 0 -116 -53q0 -33 47 -47l49 -14
q5 -1 135 -31q168 -43 243.5 -120t75.5 -212q0 -118 -81 -202.5t-228 -116.5z" />
    <glyph glyph-name="Scaron" unicode="&#x160;" horiz-adv-x="1302" 
d="M643 -29q-329 0 -555 154v377q86 -80 246 -140q152 -57 295 -57q219 0 219 113q0 29 -13 46.5t-42 37.5q-13 11 -93 37l-129 39l-104 30l-94 37q-56 22 -94 45q-112 84 -140 131q-51 96 -51 211q0 205 151 317.5t412 112.5q263 0 486 -119v-354q-90 56 -228 98
q-134 41 -254 41q-188 0 -188 -94q0 -40 59 -65l66 -23q23 -7 96 -28t100 -29q207 -68 324 -170t117 -287q0 -210 -164 -336q-162 -125 -422 -125zM803 1559h-342l-254 309h307l125 -142l123 142h301z" />
    <glyph glyph-name="scaron" unicode="&#x161;" horiz-adv-x="1060" 
d="M526 -27q-288 0 -440 93v305q63 -46 180 -80q112 -33 244 -33q127 0 127 51q0 29 -45 47l-47 17q-39 12 -146 39q-180 53 -252 116q-71 65 -71 207q0 155 127 243.5t350 88.5q231 0 393 -98v-295q-178 112 -379 112q-116 0 -116 -53q0 -33 47 -47l49 -14q5 -1 135 -31
q168 -43 243.5 -120t75.5 -212q0 -149 -129 -243q-128 -93 -346 -93zM711 1180h-342l-254 309h307l125 -141l123 141h301z" />
    <glyph glyph-name="uni0162" unicode="&#x162;" horiz-adv-x="1345" 
d="M700 -311h-417l241 311h-37v1110h-430v324h1231v-324h-432v-1110h-35z" />
    <glyph glyph-name="uni0163" unicode="&#x163;" horiz-adv-x="919" 
d="M582 -311h-418l244 313q-195 77 -195 311v437h-182v290h182v267h362v-267h265v-290h-265v-338q0 -68 27.5 -96.5t93.5 -28.5q74 0 144 37v-289q-52 -32 -144 -51z" />
    <glyph glyph-name="Tcaron" unicode="&#x164;" horiz-adv-x="1345" 
d="M856 0h-369v1110h-430v324h1231v-324h-432v-1110zM840 1559h-342l-254 309h307l125 -142l123 142h301z" />
    <glyph glyph-name="tcaron" unicode="&#x165;" horiz-adv-x="1333" 
d="M584 -27q-164 0 -262.5 89t-98.5 251v437h-182v290h182v267h363v-267h264v-290h-264v-338q0 -68 27.5 -96.5t93.5 -28.5q73 0 143 37v-289q-100 -62 -266 -62zM1171 987h-266l123 447h315z" />
    <glyph glyph-name="Tbar" unicode="&#x166;" horiz-adv-x="1345" 
d="M856 0h-369v618h-159v238h159v254h-430v324h1231v-324h-432v-254h156v-238h-156v-618z" />
    <glyph glyph-name="tbar" unicode="&#x167;" horiz-adv-x="919" 
d="M573 -27q-164 0 -262 89t-98 251v113h-182v238h182v86h-182v290h182v267h362v-267h265v-290h-265v-86h265v-238h-265v-14q0 -68 27.5 -96.5t93.5 -28.5q74 0 144 37v-289q-100 -62 -267 -62z" />
    <glyph glyph-name="Utilde" unicode="&#x168;" horiz-adv-x="1495" 
d="M119 600v834h368v-852q0 -132 72 -201.5t189 -69.5q119 0 189.5 69t70.5 202v852h368v-834q0 -299 -178 -465q-179 -164 -450 -164q-272 0 -451 164q-178 166 -178 465zM889 1550q-70 0 -150 41q-77 41 -118 41q-73 0 -91 -73h-182q0 130 72 223q70 94 186 94
q67 0 144 -41q77 -39 122 -39q73 0 91 72h182q0 -119 -74 -219q-71 -99 -182 -99z" />
    <glyph glyph-name="utilde" unicode="&#x169;" horiz-adv-x="1280" 
d="M477 -27q-173 0 -272 115.5t-99 312.5v639h363v-571q0 -88 41 -130t108 -42q107 0 175 92v651h362v-1040h-362v117q-135 -144 -316 -144zM774 1174q-70 0 -149 40q-77 41 -119 41q-72 0 -90 -73h-183q0 130 72 223q70 94 187 94q66 0 143 -41q77 -39 123 -39q72 0 90 72
h182q0 -119 -74 -219q-70 -98 -182 -98z" />
    <glyph glyph-name="Umacron" unicode="&#x16a;" horiz-adv-x="1495" 
d="M119 600v834h368v-852q0 -132 72 -201.5t189 -69.5q119 0 189.5 69t70.5 202v852h368v-834q0 -299 -178 -465q-179 -164 -450 -164q-272 0 -451 164q-178 166 -178 465zM1092 1589h-684v238h684v-238z" />
    <glyph glyph-name="umacron" unicode="&#x16b;" horiz-adv-x="1280" 
d="M477 -27q-173 0 -272 115.5t-99 312.5v639h363v-571q0 -88 41 -130t108 -42q107 0 175 92v651h362v-1040h-362v117q-135 -144 -316 -144zM973 1212h-684v238h684v-238z" />
    <glyph glyph-name="Ubreve" unicode="&#x16c;" horiz-adv-x="1495" 
d="M119 600v834h368v-852q0 -132 72 -201.5t189 -69.5q119 0 189.5 69t70.5 202v852h368v-834q0 -299 -178 -465q-179 -164 -450 -164q-272 0 -451 164q-178 166 -178 465zM383 1876h229q6 -62 42.5 -99.5t93.5 -37.5t92.5 37.5t40.5 99.5h229q-6 -162 -106.5 -256
t-255.5 -94q-150 0 -256 92q-103 95 -109 258z" />
    <glyph glyph-name="ubreve" unicode="&#x16d;" horiz-adv-x="1280" 
d="M477 -27q-173 0 -272 115.5t-99 312.5v639h363v-571q0 -88 41 -130t108 -42q107 0 175 92v651h362v-1040h-362v117q-135 -144 -316 -144zM268 1499h230q6 -62 42.5 -99.5t92.5 -37.5q57 0 92.5 37.5t40.5 99.5h229q-6 -162 -106.5 -256t-255.5 -94q-150 0 -256 92
q-103 95 -109 258z" />
    <glyph glyph-name="Uring" unicode="&#x16e;" horiz-adv-x="1495" 
d="M119 600v834h368v-852q0 -132 72 -201.5t189 -69.5q119 0 189.5 69t70.5 202v852h368v-834q0 -299 -178 -465q-179 -164 -450 -164q-272 0 -451 164q-178 166 -178 465zM750 1931q88 0 151 -63q64 -64 64 -154q0 -87 -64 -151q-63 -63 -151 -63t-154 63q-64 64 -64 151
q0 88 64 152q65 65 154 65zM840 1714q3 56 -44 79.5t-94 0t-45 -79.5q0 -36 28 -63t65 -27t63.5 26.5t26.5 63.5z" />
    <glyph glyph-name="uring" unicode="&#x16f;" horiz-adv-x="1280" 
d="M477 -27q-173 0 -272 115.5t-99 312.5v639h363v-571q0 -88 41 -130t108 -42q107 0 175 92v651h362v-1040h-362v117q-135 -144 -316 -144zM416 1335q0 91 63 154t154 63q88 0 151 -63q64 -64 64 -154q0 -88 -63.5 -151.5t-151.5 -63.5t-152.5 63.5t-64.5 151.5zM723 1335
q3 56 -43.5 79.5t-93.5 0t-45 -79.5q0 -37 27.5 -63.5t64.5 -26.5t63.5 26.5t26.5 63.5z" />
    <glyph glyph-name="Uhungarumlaut" unicode="&#x170;" horiz-adv-x="1558" 
d="M119 600v834h368v-852q0 -132 72 -201.5t189 -69.5q119 0 189.5 69t70.5 202v852h368v-834q0 -299 -178 -465q-179 -164 -450 -164q-272 0 -451 164q-178 166 -178 465zM561 1556h-307l195 312h434zM1118 1556h-307l195 312h434z" />
    <glyph glyph-name="uhungarumlaut" unicode="&#x171;" horiz-adv-x="1259" 
d="M477 -27q-173 0 -272 115.5t-99 312.5v639h363v-571q0 -88 41 -130t108 -42q107 0 175 92v651h362v-1040h-362v117q-135 -144 -316 -144zM469 1180h-307l194 311h435zM1026 1180h-307l194 311h435z" />
    <glyph glyph-name="Uogonek" unicode="&#x172;" horiz-adv-x="1495" 
d="M924 -422q-128 0 -204.5 61t-76.5 156q0 97 72 178q-261 9 -430 172q-166 163 -166 455v834h368v-852q0 -132 72 -201.5t189 -69.5q119 0 189.5 69t70.5 202v852h368v-834q0 -406 -334 -569q-63 -33 -98 -58q-51 -39 -51 -104q0 -76 92 -76q47 0 72 14v-210
q-52 -19 -133 -19z" />
    <glyph glyph-name="uogonek" unicode="&#x173;" horiz-adv-x="1259" 
d="M1118 -422q-128 0 -204 60.5t-76 156.5q0 117 98 205h-143v117q-135 -144 -316 -144q-173 0 -272 115.5t-99 312.5v639h363v-571q0 -88 41 -130t108 -42q107 0 175 92v651h362v-1040q-68 -68 -68 -131q0 -76 93 -76q46 0 71 14v-210q-52 -19 -133 -19z" />
    <glyph glyph-name="Wcircumflex" unicode="&#x174;" horiz-adv-x="2228" 
d="M827 -8h-327l-475 1442h411l242 -854l299 858h287l299 -858l241 854h404l-479 -1442h-324l-287 839zM991 1559h-301l260 309h342l254 -309h-307l-125 141z" />
    <glyph glyph-name="wcircumflex" unicode="&#x175;" horiz-adv-x="1753" 
d="M670 -8h-310l-340 1048h359l166 -530l166 534h286l170 -534l162 530h357l-347 -1048h-311l-182 534zM737 1182h-301l260 309h342l254 -309h-307l-125 141z" />
    <glyph glyph-name="Ycircumflex" unicode="&#x176;" horiz-adv-x="1490" 
d="M930 0h-369v635l-551 799h420l320 -473l321 473h410l-551 -791v-643zM621 1559h-302l261 309h342l254 -309h-308l-125 141z" />
    <glyph glyph-name="ycircumflex" unicode="&#x177;" horiz-adv-x="1247" 
d="M334 -422q-132 0 -232 47v312q77 -50 168 -50q70 0 115.5 34.5t77.5 113.5l-443 1005h386l231 -626l217 626h377l-465 -1144q-130 -318 -432 -318zM498 1182h-301l260 309h342l254 -309h-308l-124 141z" />
    <glyph glyph-name="Ydieresis" unicode="&#x178;" horiz-adv-x="1490" 
d="M930 0h-369v635l-551 799h420l320 -473l321 473h410l-551 -791v-643zM518 1536q-72 0 -125 52.5t-53 125.5t52 124.5t126 51.5q75 0 126.5 -51t51.5 -125t-51.5 -126t-126.5 -52zM1108 1587q-51 -51 -124.5 -51t-127.5 51q-51 54 -51 127.5t51 124.5q54 51 127.5 51
t124.5 -51q54 -51 54 -124.5t-54 -127.5z" />
    <glyph glyph-name="Zacute" unicode="&#x179;" horiz-adv-x="1314" 
d="M1264 0h-1213v262l684 848h-657v324h1153v-260l-682 -850h715v-324zM737 1556h-301l195 312h428z" />
    <glyph glyph-name="zacute" unicode="&#x17a;" horiz-adv-x="1105" 
d="M1040 0h-979v240l463 508h-436v292h920v-247l-471 -500h503v-293zM610 1180h-301l195 311h428z" />
    <glyph glyph-name="Zdotaccent" unicode="&#x17b;" horiz-adv-x="1314" 
d="M1264 0h-1213v262l684 848h-657v324h1153v-260l-682 -850h715v-324zM657 1536q-72 0 -125 52.5t-53 125.5t52 124.5t126 51.5q75 0 127 -51t52 -125t-52 -126t-127 -52z" />
    <glyph glyph-name="zdotaccent" unicode="&#x17c;" horiz-adv-x="1105" 
d="M1040 0h-979v240l463 508h-436v292h920v-247l-471 -500h503v-293zM551 1159q-72 0 -125 52.5t-53 125.5t52 124.5t126 51.5q75 0 126.5 -51t51.5 -125t-51.5 -126t-126.5 -52z" />
    <glyph glyph-name="Zcaron" unicode="&#x17d;" horiz-adv-x="1314" 
d="M1264 0h-1213v262l684 848h-657v324h1153v-260l-682 -850h715v-324zM825 1559h-342l-254 309h308l125 -142l122 142h301z" />
    <glyph glyph-name="zcaron" unicode="&#x17e;" horiz-adv-x="1105" 
d="M1040 0h-979v240l463 508h-436v292h920v-247l-471 -500h503v-293zM719 1180h-342l-254 309h307l125 -141l123 141h301z" />
    <glyph glyph-name="longs" unicode="&#x17f;" horiz-adv-x="905" 
d="M567 1059v-1059h-362v750h-174v290h174v56q0 167 98 266.5t283 99.5q165 0 284 -45v-278q-82 30 -178 30q-125 0 -125 -110z" />
    <glyph glyph-name="florin" unicode="&#x192;" horiz-adv-x="1067" 
d="M49 -422q-125 0 -209 41v283q70 -25 133 -25q86 0 141 57t72 162l84 514h-188v291h235l21 121q27 184 154 311q126 129 344 129q118 0 211 -41v-282q-68 24 -134 24q-173 0 -217 -219l-8 -43h248v-291h-293l-96 -592q-27 -184 -154 -311q-126 -129 -344 -129z" />
    <glyph glyph-name="uni0218" unicode="&#x218;" horiz-adv-x="1302" 
d="M643 -29q-329 0 -555 154v377q86 -80 246 -140q152 -57 295 -57q219 0 219 113q0 29 -13 46.5t-42 37.5q-13 11 -93 37l-129 39l-104 30l-94 37q-56 22 -94 45q-112 84 -140 131q-51 96 -51 211q0 205 151 317.5t412 112.5q263 0 486 -119v-354q-90 56 -228 98
q-134 41 -254 41q-188 0 -188 -94q0 -40 59 -65l66 -23q23 -7 96 -28t100 -29q207 -68 324 -170t117 -287q0 -210 -164 -336q-162 -125 -422 -125zM664 -594h-267l123 447h316z" />
    <glyph glyph-name="uni0219" unicode="&#x219;" horiz-adv-x="1060" 
d="M526 -27q-288 0 -440 93v305q63 -46 180 -80q112 -33 244 -33q127 0 127 51q0 29 -45 47l-47 17q-39 12 -146 39q-180 53 -252 116q-71 65 -71 207q0 155 127 243.5t350 88.5q231 0 393 -98v-295q-178 112 -379 112q-116 0 -116 -53q0 -33 47 -47l49 -14q5 -1 135 -31
q168 -43 243.5 -120t75.5 -212q0 -149 -129 -243q-128 -93 -346 -93zM573 -594h-266l123 447h315z" />
    <glyph glyph-name="uni021A" unicode="&#x21a;" horiz-adv-x="1345" 
d="M856 0h-369v1110h-430v324h1231v-324h-432v-1110zM653 -594h-266l123 447h315z" />
    <glyph glyph-name="uni021B" unicode="&#x21b;" horiz-adv-x="919" 
d="M573 -27q-164 0 -262 89t-98 251v437h-182v290h182v267h362v-267h265v-290h-265v-338q0 -68 27.5 -96.5t93.5 -28.5q74 0 144 37v-289q-100 -62 -267 -62zM541 -594h-267l123 447h316z" />
    <glyph glyph-name="circumflex" unicode="&#x2c6;" horiz-adv-x="1118" 
d="M436 1182h-301l260 309h342l254 -309h-307l-125 141z" />
    <glyph glyph-name="caron" unicode="&#x2c7;" horiz-adv-x="1048" 
d="M627 1180h-342l-254 309h307l125 -141l123 141h301z" />
    <glyph glyph-name="uni02C9" unicode="&#x2c9;" horiz-adv-x="1019" 
d="M852 1212h-684v238h684v-238z" />
    <glyph glyph-name="breve" unicode="&#x2d8;" horiz-adv-x="958" 
d="M115 1499h229q6 -62 42.5 -99.5t92.5 -37.5q57 0 92.5 37.5t40.5 99.5h230q-6 -161 -107 -255.5t-256 -94.5q-150 0 -256 92q-102 95 -108 258z" />
    <glyph glyph-name="dotaccent" unicode="&#x2d9;" horiz-adv-x="1196" 
d="M598 1159q-72 0 -125 52.5t-53 125.5t52 124.5t126 51.5q75 0 126.5 -51t51.5 -125t-51.5 -126t-126.5 -52z" />
    <glyph glyph-name="ring" unicode="&#x2da;" horiz-adv-x="1157" 
d="M324 1335q0 91 63 154t154 63q88 0 151 -63q64 -64 64 -154q0 -88 -63.5 -151.5t-151.5 -63.5t-152.5 63.5t-64.5 151.5zM631 1335q3 56 -43.5 79.5t-93.5 0t-45 -79.5q0 -37 27.5 -63.5t64.5 -26.5t63.5 26.5t26.5 63.5z" />
    <glyph glyph-name="ogonek" unicode="&#x2db;" horiz-adv-x="1001" 
d="M614 -422q-128 0 -204 60.5t-76 156.5q0 117 98 205h219q-67 -67 -67 -131q0 -76 92 -76q47 0 72 14v-210q-52 -19 -134 -19z" />
    <glyph glyph-name="tilde" unicode="&#x2dc;" horiz-adv-x="1036" 
d="M655 1174q-70 0 -149 40q-77 41 -119 41q-72 0 -90 -73h-182q0 131 71 223q70 94 187 94q66 0 143 -41q77 -39 123 -39q72 0 90 72h182q0 -121 -73 -219q-70 -98 -183 -98z" />
    <glyph glyph-name="hungarumlaut" unicode="&#x2dd;" horiz-adv-x="1370" 
d="M399 1180h-307l195 311h434zM956 1180h-307l195 311h434z" />
    <glyph glyph-name="acutecomb" unicode="&#x301;" horiz-adv-x="20" 
d="M-471 1180h-301l194 311h428z" />
    <glyph glyph-name="uni037E" unicode="&#x37e;" horiz-adv-x="675" 
d="M332 -311h-289l184 671h369zM539 666q-61 -64 -152 -64q-90 0 -154 64q-61 64 -61 153q0 91 64 152q63 63 151.5 63t151.5 -63q63 -60 63 -152q0 -90 -63 -153z" />
    <glyph glyph-name="uni0394" unicode="&#x394;" horiz-adv-x="1599" 
d="M1579 0h-1559l603 1434h354zM797 973l-258 -649h516z" />
    <glyph glyph-name="uni03A9" unicode="&#x3a9;" horiz-adv-x="1613" 
d="M721 0h-606v324h190q-78 75 -135 204q-55 131 -55 271q0 127 47 245t132.5 211.5t219 150t293.5 56.5q316 0 502 -198q188 -200 188 -465q0 -140 -55 -271q-54 -128 -133 -204h188v-324h-606v272q98 66 162.5 191t64.5 274q0 167 -84 283q-83 115 -227 115
q-146 0 -229 -115q-84 -116 -84 -283q0 -149 64.5 -274t162.5 -191v-272z" />
    <glyph glyph-name="uni03BC" unicode="&#x3bc;" horiz-adv-x="1298" 
d="M487 -410h-362v1450h362v-571q0 -88 41 -130t109 -42q106 0 174 92v651h363v-1040h-363v117q-135 -144 -315 -144h-9v-383z" />
    <glyph glyph-name="pi" unicode="&#x3c0;" horiz-adv-x="1478" 
d="M1163 -27q-147 0 -238 87t-91 253v437h-230v-750h-362v750h-203v290h1360v-290h-203v-338q0 -68 20 -96.5t70 -28.5q58 0 113 43v-289q-89 -68 -236 -68z" />
    <glyph glyph-name="uni0401" unicode="&#x401;" horiz-adv-x="1314" 
d="M1243 0h-1106v1434h1090v-324h-721v-195h573v-311h-573v-280h737v-324zM459 1536q-72 0 -125 52.5t-53 125.5t52 124.5t126 51.5q75 0 126.5 -51t51.5 -125t-51.5 -126t-126.5 -52zM1049 1587q-51 -51 -124.5 -51t-127.5 51q-51 54 -51 127.5t51 124.5q54 51 127.5 51
t124.5 -51q54 -51 54 -124.5t-54 -127.5z" />
    <glyph glyph-name="uni0402" unicode="&#x402;" horiz-adv-x="1619" 
d="M1087 -14q-87 0 -153 16v283q38 -15 98 -15q76 0 126 44.5t50 115.5q0 76 -61 125t-162 49q-140 0 -231 -49v-555h-369v1147h-328v287h1106v-287h-409v-248q118 39 274 39q249 0 395 -137q150 -135 150 -357q0 -196 -131 -327t-355 -131z" />
    <glyph glyph-name="uni0403" unicode="&#x403;" horiz-adv-x="1267" 
d="M506 0h-369v1434h1059v-324h-690v-1110zM756 1556h-301l194 312h428z" />
    <glyph glyph-name="uni0404" unicode="&#x404;" horiz-adv-x="1376" 
d="M500 889h491v-297h-508q37 -134 149.5 -209.5t274.5 -75.5q226 0 377 115v-361q-178 -90 -393 -90q-343 0 -572 209q-227 208 -227 537q0 327 225 536q229 209 572 209q203 0 371 -82v-358q-168 104 -367 104q-139 0 -242 -63t-151 -174z" />
    <glyph glyph-name="uni0405" unicode="&#x405;" horiz-adv-x="1294" 
d="M639 -29q-329 0 -555 154v377q86 -80 246 -140q152 -57 295 -57q219 0 219 113q0 29 -13 46t-43 38q-14 12 -92 37l-129 39l-104 30l-94 37q-59 23 -95 45q-110 83 -139 131q-51 96 -51 211q0 205 151 317.5t412 112.5q263 0 486 -119v-354q-90 56 -228 98
q-134 41 -254 41q-188 0 -188 -94q0 -40 59 -65l66 -23q23 -7 96 -28t100 -29q207 -68 324 -170t117 -287q0 -210 -164 -336q-162 -125 -422 -125z" />
    <glyph glyph-name="uni0406" unicode="&#x406;" horiz-adv-x="659" 
d="M514 0h-369v1434h369v-1434z" />
    <glyph glyph-name="uni0407" unicode="&#x407;" horiz-adv-x="657" 
d="M96 1536q-72 0 -125 52.5t-53 125.5t52 124.5t126 51.5q75 0 126.5 -51t51.5 -125t-51.5 -126t-126.5 -52zM686 1587q-51 -51 -124.5 -51t-127.5 51q-51 54 -51 127.5t51 124.5q54 51 127.5 51t124.5 -51q54 -51 54 -124.5t-54 -127.5zM512 0h-369v1434h369v-1434z" />
    <glyph glyph-name="uni0408" unicode="&#x408;" horiz-adv-x="1021" 
d="M373 -29q-232 0 -353 80v355q127 -95 273 -95q124 0 183 55.5t59 182.5v885h368v-945q0 -144 -43.5 -249.5t-122.5 -163.5q-148 -105 -364 -105z" />
    <glyph glyph-name="uni0409" unicode="&#x409;" horiz-adv-x="2252" 
d="M293 1001l4 433h1075v-443h258q261 0 418 -139q158 -140 158 -358q0 -219 -156 -357q-155 -137 -420 -137h-626v1110h-349l-4 -158q-15 -572 -110 -749q-117 -215 -373 -215q-104 0 -158 28v338q56 -26 109 -26q107 0 137 131q34 130 37 542zM1372 692v-377h236
q104 0 164.5 50.5t60.5 136.5q0 88 -60.5 139t-164.5 51h-236z" />
    <glyph glyph-name="uni040A" unicode="&#x40a;" horiz-adv-x="2275" 
d="M506 0h-369v1434h369v-510h520v510h369v-443h258q261 0 418 -139t157 -358q0 -220 -155 -357t-420 -137h-627v596h-520v-596zM1395 692v-377h235q104 0 164.5 50.5t60.5 136.5q0 88 -60.5 139t-164.5 51h-235z" />
    <glyph glyph-name="uni040B" unicode="&#x40b;" horiz-adv-x="1667" 
d="M754 0h-369v1147h-328v287h1106v-287h-409v-252q118 39 274 39q258 0 400.5 -125.5t142.5 -353.5v-455h-369v401q0 199 -217 199q-140 0 -231 -49v-551z" />
    <glyph glyph-name="uni040C" unicode="&#x40c;" horiz-adv-x="1505" 
d="M506 0h-369v1434h369v-547l465 547h442l-555 -660l658 -774h-449l-561 637v-637zM838 1556h-301l194 312h428z" />
    <glyph glyph-name="uni040E" unicode="&#x40e;" horiz-adv-x="1406" 
d="M412 -29q-153 0 -256 56v315q80 -45 188 -45q78 0 125.5 33t91.5 119l-538 985h407l313 -623l275 623h391l-526 -1119q-49 -104 -114 -178.5t-134 -107.5q-121 -58 -223 -58zM340 1876h229q6 -62 42.5 -99.5t93.5 -37.5t92.5 37.5t40.5 99.5h229q-6 -162 -106.5 -256
t-255.5 -94q-150 0 -256 92q-103 95 -109 258z" />
    <glyph glyph-name="uni040F" unicode="&#x40f;" horiz-adv-x="1503" 
d="M926 -279h-348v279h-441v1434h369v-1110h491v1110h369v-1434h-440v-279z" />
    <glyph glyph-name="uni0410" unicode="&#x410;" horiz-adv-x="1599" 
d="M410 0h-390l603 1442h354l602 -1442h-395l-121 303h-533zM797 981l-150 -383h299z" />
    <glyph glyph-name="uni0411" unicode="&#x411;" horiz-adv-x="1400" 
d="M774 0h-637v1434h1071v-316h-700v-155h266q257 0 408 -136t151 -348q0 -213 -151 -346t-408 -133zM508 674v-359h237q99 0 157.5 48t58.5 129q0 84 -58.5 133t-157.5 49h-237z" />
    <glyph glyph-name="uni0412" unicode="&#x412;" horiz-adv-x="1458" 
d="M874 0h-737v1434h699q202 0 324 -95t122 -268q0 -98 -48 -171.5t-120 -106.5q108 -25 189 -125q83 -103 83 -256q0 -185 -141 -299q-137 -113 -371 -113zM506 612v-305h297q85 0 132.5 40t47.5 112q0 71 -49 112t-131 41h-297zM506 1135v-250h274q68 0 108 33t40 90
q0 60 -40 93.5t-108 33.5h-274z" />
    <glyph glyph-name="uni0413" unicode="&#x413;" horiz-adv-x="1267" 
d="M506 0h-369v1434h1059v-324h-690v-1110z" />
    <glyph glyph-name="uni0414" unicode="&#x414;" horiz-adv-x="1622" 
d="M356 -279h-346v603h137q164 265 164 852v258h1069v-1110h189v-603h-348v279h-865v-279zM549 324h463v786h-334q-6 -452 -129 -786z" />
    <glyph glyph-name="uni0415" unicode="&#x415;" horiz-adv-x="1314" 
d="M1243 0h-1106v1434h1090v-324h-721v-195h573v-311h-573v-280h737v-324z" />
    <glyph glyph-name="uni0416" unicode="&#x416;" horiz-adv-x="2220" 
d="M477 0h-479l573 737l-499 697h454l400 -576v576h368v-576l402 576h452l-499 -697l573 -737h-479l-449 586v-586h-368v586z" />
    <glyph glyph-name="uni0417" unicode="&#x417;" horiz-adv-x="1296" 
d="M600 -29q-330 0 -537 142v352q96 -73 228.5 -115.5t257.5 -42.5q139 0 217 44t78 122q0 129 -256 129h-182v293h225q184 0 184 119q0 55 -58.5 85.5t-166.5 30.5q-258 0 -475 -114v317q237 129 493 129q264 0 418 -121q156 -120 156 -305q0 -93 -49.5 -164.5
t-124.5 -109.5q217 -105 217 -332q0 -196 -170 -328q-168 -131 -455 -131z" />
    <glyph glyph-name="uni0418" unicode="&#x418;" horiz-adv-x="1554" 
d="M446 0h-309v1434h369v-809l592 809h319v-1434h-368v817z" />
    <glyph glyph-name="uni0419" unicode="&#x419;" horiz-adv-x="1554" 
d="M446 0h-309v1434h369v-809l592 809h319v-1434h-368v817zM389 1868h248q2 -60 38 -94.5t99 -34.5t99 34.5t38 94.5h252q-3 -171 -112 -264q-111 -97 -275 -97q-162 0 -276 97q-108 94 -111 264z" />
    <glyph glyph-name="uni041A" unicode="&#x41a;" horiz-adv-x="1505" 
d="M506 0h-369v1434h369v-547l465 547h442l-555 -660l658 -774h-449l-561 637v-637z" />
    <glyph glyph-name="uni041B" unicode="&#x41b;" horiz-adv-x="1505" 
d="M168 -12q-104 0 -158 28v338q56 -26 109 -26q107 0 137 131q34 130 37 542l4 433h1071v-1434h-369v1110h-344l-4 -158q-15 -572 -110 -749q-117 -215 -373 -215z" />
    <glyph glyph-name="uni041C" unicode="&#x41c;" horiz-adv-x="1732" 
d="M506 0h-369v1434h367l362 -551l365 551h364v-1434h-366v874l-256 -385h-203l-264 385v-874z" />
    <glyph glyph-name="uni041D" unicode="&#x41d;" horiz-adv-x="1552" 
d="M506 0h-369v1434h369v-510h541v510h368v-1434h-368v596h-541v-596z" />
    <glyph glyph-name="uni041E" unicode="&#x41e;" horiz-adv-x="1695" 
d="M578 426q109 -115 270 -115q159 0 268 115t109 291t-109 291q-108 114 -268 114q-162 0 -270 -114q-107 -113 -107 -291t107 -291zM1389 188q-214 -217 -541 -217t-541 217q-215 218 -215 529q0 310 215 528q214 217 541 217t541 -217q215 -218 215 -528
q0 -311 -215 -529z" />
    <glyph glyph-name="uni041F" unicode="&#x41f;" horiz-adv-x="1515" 
d="M506 0h-369v1434h1241v-1434h-368v1110h-504v-1110z" />
    <glyph glyph-name="uni0420" unicode="&#x420;" horiz-adv-x="1345" 
d="M506 0h-369v1434h639q241 0 381 -125q141 -126 141 -324q0 -200 -141 -326q-139 -124 -381 -124h-270v-535zM506 1122v-284h244q80 0 128 38t48 105t-47 104t-129 37h-244z" />
    <glyph glyph-name="uni0421" unicode="&#x421;" horiz-adv-x="1376" 
d="M891 -29q-343 0 -572 209q-227 208 -227 537q0 327 225 536q229 209 572 209q203 0 371 -82v-362q-168 104 -367 104q-181 0 -301 -114q-121 -115 -121 -291q0 -179 123 -293q125 -113 313 -113q226 0 377 115v-365q-178 -90 -393 -90z" />
    <glyph glyph-name="uni0422" unicode="&#x422;" horiz-adv-x="1345" 
d="M856 0h-369v1110h-430v324h1231v-324h-432v-1110z" />
    <glyph glyph-name="uni0423" unicode="&#x423;" horiz-adv-x="1406" 
d="M412 -29q-153 0 -256 56v315q80 -45 188 -45q78 0 125.5 33t91.5 119l-538 985h407l313 -623l275 623h391l-526 -1119q-49 -104 -114 -178.5t-134 -107.5q-121 -58 -223 -58z" />
    <glyph glyph-name="uni0424" unicode="&#x424;" horiz-adv-x="1918" 
d="M1145 -61h-371v159q-319 15 -502 201q-180 186 -180 434q0 249 180 432q182 188 502 203v127h371v-127q320 -15 502 -203q180 -183 180 -432q0 -248 -180 -434q-183 -186 -502 -201v-159zM774 426v614q-137 -5 -219 -86.5t-82 -220.5t82 -220t219 -87zM1145 1040v-614
q138 6 219.5 87t81.5 220t-82 220.5t-219 86.5z" />
    <glyph glyph-name="uni0425" unicode="&#x425;" horiz-adv-x="1507" 
d="M416 0h-426l549 770l-467 664h430l254 -369l256 369h424l-467 -662l549 -772h-433l-335 477z" />
    <glyph glyph-name="uni0426" unicode="&#x426;" horiz-adv-x="1607" 
d="M1554 -279h-348v279h-1069v1434h369v-1110h491v1110h369v-1110h188v-603z" />
    <glyph glyph-name="uni0427" unicode="&#x427;" horiz-adv-x="1419" 
d="M1282 0h-369v518q-118 -39 -274 -39q-258 0 -400.5 125.5t-142.5 353.5v476h369v-422q0 -199 217 -199q140 0 231 49v572h369v-1434z" />
    <glyph glyph-name="uni0428" unicode="&#x428;" horiz-adv-x="2129" 
d="M1993 0h-1856v1434h369v-1110h375v1110h368v-1110h375v1110h369v-1434z" />
    <glyph glyph-name="uni0429" unicode="&#x429;" horiz-adv-x="2234" 
d="M2181 -279h-348v279h-1696v1434h369v-1110h377v1110h368v-1110h375v1110h367v-1110h188v-603z" />
    <glyph glyph-name="uni042A" unicode="&#x42a;" horiz-adv-x="1648" 
d="M1026 0h-627v1110h-352v324h721v-443h258q261 0 418 -139q158 -140 158 -358q0 -219 -156 -357q-155 -137 -420 -137zM768 692v-377h236q104 0 164.5 50.5t60.5 136.5q0 88 -60.5 139t-164.5 51h-236z" />
    <glyph glyph-name="uni042B" unicode="&#x42b;" horiz-adv-x="1945" 
d="M717 0h-580v1434h369v-443h211q261 0 418 -139t157 -358q0 -220 -155 -357t-420 -137zM506 692v-377h188q104 0 165 50.5t61 136.5q0 88 -61 139t-165 51h-188zM1808 0h-368v1434h368v-1434z" />
    <glyph glyph-name="uni042C" unicode="&#x42c;" horiz-adv-x="1386" 
d="M764 0h-627v1434h369v-443h258q261 0 418 -139t157 -358q0 -220 -155 -357t-420 -137zM506 692v-377h235q104 0 165 50.5t61 136.5q0 88 -61 139t-165 51h-235z" />
    <glyph glyph-name="uni042D" unicode="&#x42d;" horiz-adv-x="1376" 
d="M893 592h-508v297h492q-48 111 -151.5 174t-242.5 63q-198 0 -366 -104v358q168 82 370 82q344 0 570 -209q227 -208 227 -536q0 -329 -227 -537q-229 -209 -572 -209q-215 0 -393 90v361q151 -115 377 -115q162 0 274.5 75.5t149.5 209.5z" />
    <glyph glyph-name="uni042E" unicode="&#x42e;" horiz-adv-x="2162" 
d="M1366 -29q-260 0 -451 164q-186 163 -239 418h-164v-553h-375v1434h375v-553h164q49 253 237 417q191 164 453 164q305 0 504 -217q201 -219 201 -528q0 -310 -201 -529q-199 -217 -504 -217zM1694 717q0 186 -90 297.5t-238 111.5t-239 -112.5t-91 -296.5t91 -298
t239 -114t238 113.5t90 298.5z" />
    <glyph glyph-name="uni042F" unicode="&#x42f;" horiz-adv-x="1499" 
d="M434 0h-424l441 588q-131 51 -205 157.5t-74 245.5q0 194 139 318q140 125 377 125h674v-1434h-369v547h-151zM709 848h284v274h-284q-75 0 -119.5 -38t-44.5 -101t44.5 -99t119.5 -36z" />
    <glyph glyph-name="uni0430" unicode="&#x430;" horiz-adv-x="1251" 
d="M420 -27q-167 0 -275 97q-104 94 -104 249q1 68 25 125.5t64 96.5t92 66t109 38.5t115 9.5q156 0 265 -53v14q0 114 -86 142q-68 24 -156 24q-168 0 -303 -75v284q162 76 391 76t371 -115q141 -114 141 -305v-315q0 -56 61 -56q37 0 60 13v-258q-69 -54 -184 -54
q-184 0 -254 119q-126 -123 -332 -123zM543 217q109 0 168 90v109q-60 45 -152 45q-69 0 -115.5 -34.5t-46.5 -90.5q0 -54 41.5 -86.5t104.5 -32.5z" />
    <glyph glyph-name="uni0431" unicode="&#x431;" horiz-adv-x="1247" 
d="M635 -27q-281 0 -428 185q-148 186 -148 485q0 603 562 729l444 98v-317l-254 -45q-160 -27 -244 -61q-173 -65 -190 -238q68 69 164 111.5t196 42.5q200 0 326 -123q125 -122 125 -332q0 -233 -158 -385q-156 -150 -395 -150zM831 481q0 88 -49.5 138.5t-136.5 50.5
q-132 0 -231 -99v-34q0 -122 61 -193.5t156 -71.5q91 0 145.5 58.5t54.5 150.5z" />
    <glyph glyph-name="uni0432" unicode="&#x432;" horiz-adv-x="1212" 
d="M752 0h-627v1040h610q160 0 251 -76.5t91 -193.5q0 -73 -34 -130.5t-87 -84.5q191 -80 191 -268q0 -134 -103.5 -210.5t-291.5 -76.5zM481 432v-194h181q73 -7 103 44.5t-1 104t-102 45.5h-181zM481 809v-178h135q65 -7 92.5 40.5t0 95.5t-92.5 42h-135z" />
    <glyph glyph-name="uni0433" unicode="&#x433;" horiz-adv-x="995" 
d="M487 0h-362v1040h850v-290h-488v-750z" />
    <glyph glyph-name="uni0434" unicode="&#x434;" horiz-adv-x="1419" 
d="M387 -244h-346v535h131q93 153 102 516l7 233h925v-749h160v-535h-342v244h-637v-244zM532 291h318v463h-250q-9 -280 -68 -463z" />
    <glyph glyph-name="uni0435" unicode="&#x435;" horiz-adv-x="1179" 
d="M639 -27q-241 0 -412 148q-168 149 -168 399q0 231 152 389t399 158q222 0 361 -154q141 -150 141 -391v-90h-696q23 -79 104.5 -120.5t198.5 -41.5q168 0 334 90v-278q-148 -109 -414 -109zM414 625h344q-1 77 -49 126.5t-115 49.5q-72 0 -121 -47.5t-59 -128.5z" />
    <glyph glyph-name="uni0436" unicode="&#x436;" horiz-adv-x="1843" 
d="M444 0h-424l414 553l-352 487h401l260 -372v372h357v-372l258 372h403l-352 -487l414 -553h-424l-299 416v-416h-357v416z" />
    <glyph glyph-name="uni0437" unicode="&#x437;" horiz-adv-x="1105" 
d="M506 -27q-251 0 -414 82v281q155 -82 363 -82q202 0 202 86q0 68 -133 68h-215v241h211q111 0 111 68q0 71 -176 71q-193 0 -334 -69v262q170 86 414 86q197 0 331 -84q135 -82 135 -209q0 -85 -42 -140.5t-113 -76.5q78 -20 135 -85.5t57 -152.5q0 -150 -147 -249
q-148 -97 -385 -97z" />
    <glyph glyph-name="uni0438" unicode="&#x438;" horiz-adv-x="1320" 
d="M465 0h-340v1040h356v-516l375 516h340v-1040h-356v514z" />
    <glyph glyph-name="uni0439" unicode="&#x439;" horiz-adv-x="1320" 
d="M465 0h-340v1040h356v-516l375 516h340v-1040h-356v514zM272 1489h248q2 -60 38 -94.5t99 -34.5t99.5 34.5t38.5 94.5h252q-3 -170 -113 -264q-111 -97 -275 -97q-162 0 -276 97q-108 95 -111 264z" />
    <glyph glyph-name="uni043A" unicode="&#x43a;" horiz-adv-x="1294" 
d="M487 0h-362v1040h362v-368l310 368h428l-412 -467l479 -573h-452l-353 430v-430z" />
    <glyph glyph-name="uni043B" unicode="&#x43b;" horiz-adv-x="1333" 
d="M195 -14q-106 0 -154 26v299q30 -12 68 -12q83 0 112 100q32 109 35 359l4 282h948v-1040h-362v750h-246q-3 -195 -12 -297q-15 -206 -113 -336q-94 -131 -280 -131z" />
    <glyph glyph-name="uni043C" unicode="&#x43c;" horiz-adv-x="1462" 
d="M467 0h-342v1040h358l248 -342l248 342h358v-1040h-342v557l-192 -266h-144l-192 266v-557z" />
    <glyph glyph-name="uni043D" unicode="&#x43d;" horiz-adv-x="1298" 
d="M487 0h-362v1040h362v-362h324v362h363v-1040h-363v387h-324v-387z" />
    <glyph glyph-name="uni043E" unicode="&#x43e;" horiz-adv-x="1290" 
d="M874 520q0 101 -65 169.5t-164 68.5t-164 -68.5t-65 -169.5q0 -103 64.5 -170t164.5 -67t164.5 67t64.5 170zM1065 129q-167 -156 -420 -156t-420 156q-166 156 -166 391q0 233 166 389q169 158 420 158t420 -158q166 -156 166 -389q0 -235 -166 -391z" />
    <glyph glyph-name="uni043F" unicode="&#x43f;" horiz-adv-x="1288" 
d="M487 0h-362v1040h1038v-1040h-362v750h-314v-750z" />
    <glyph glyph-name="uni0440" unicode="&#x440;" horiz-adv-x="1333" 
d="M487 -410h-362v1450h362v-116q107 143 312 143q203 0 340 -158q135 -156 135 -389q0 -235 -135 -391t-340 -156q-201 0 -312 144v-527zM694 281q96 0 157.5 68t61.5 171q0 104 -61.5 172t-157.5 68q-136 0 -207 -111v-258q70 -110 207 -110z" />
    <glyph glyph-name="uni0441" unicode="&#x441;" horiz-adv-x="1052" 
d="M631 -27q-228 0 -402 148q-170 147 -170 401q0 256 172 400q174 145 404 145q175 0 307 -63v-304q-130 54 -250 54t-198 -63.5t-78 -170.5t78 -171t196 -64q150 0 266 61v-301q-153 -72 -325 -72z" />
    <glyph glyph-name="uni0442" unicode="&#x442;" horiz-adv-x="1007" 
d="M684 0h-362v750h-302v290h967v-290h-303v-750z" />
    <glyph glyph-name="uni0443" unicode="&#x443;" horiz-adv-x="1247" 
d="M334 -422q-132 0 -232 47v312q77 -50 168 -50q70 0 115.5 34.5t77.5 113.5l-443 1005h386l231 -626l217 626h377l-465 -1144q-130 -318 -432 -318z" />
    <glyph glyph-name="uni0444" unicode="&#x444;" horiz-adv-x="1593" 
d="M975 -410h-357v404q-264 20 -411.5 162.5t-147.5 363.5t147.5 364t411.5 163v387h357v-387q264 -20 411.5 -163t147.5 -364t-147.5 -363.5t-411.5 -162.5v-404zM618 287v467q-101 -13 -154.5 -74.5t-53.5 -159.5t53 -159t155 -74zM975 754v-467q102 13 155.5 74t53.5 159
t-53.5 159.5t-155.5 74.5z" />
    <glyph glyph-name="uni0445" unicode="&#x445;" horiz-adv-x="1255" 
d="M414 0h-394l375 537l-348 503h395l170 -258l170 258h394l-349 -501l373 -539h-399l-193 287z" />
    <glyph glyph-name="uni0446" unicode="&#x446;" horiz-adv-x="1384" 
d="M1331 -244h-350v244h-856v1040h362v-749h322v749h362v-749h160v-535z" />
    <glyph glyph-name="uni0447" unicode="&#x447;" horiz-adv-x="1200" 
d="M1075 0h-362v309q-79 -24 -181 -24q-91 0 -168.5 20t-143.5 63.5t-104 123.5t-38 190v358h362v-317q0 -143 146 -143q76 0 127 26v434h362v-1040z" />
    <glyph glyph-name="uni0448" unicode="&#x448;" horiz-adv-x="1800" 
d="M1675 0h-1550v1040h356v-749h238v749h356v-749h244v749h356v-1040z" />
    <glyph glyph-name="uni0449" unicode="&#x449;" horiz-adv-x="1888" 
d="M1835 -244h-326v244h-1384v1040h356v-749h238v749h356v-749h244v749h356v-749h160v-535z" />
    <glyph glyph-name="uni044A" unicode="&#x44a;" horiz-adv-x="1366" 
d="M881 0h-574v750h-280v290h643v-284h192q200 0 324 -103q123 -102 123 -274q0 -160 -113 -270q-112 -109 -315 -109zM670 502v-236h135q66 0 103.5 31t37.5 86q0 56 -37.5 87.5t-103.5 31.5h-135z" />
    <glyph glyph-name="uni044B" unicode="&#x44b;" horiz-adv-x="1681" 
d="M670 0h-545v1040h356v-284h170q200 0 324 -103q123 -102 123 -274q0 -160 -113 -270q-112 -109 -315 -109zM481 502v-236h113q66 0 103.5 31t37.5 86q0 56 -37.5 87.5t-103.5 31.5h-113zM1556 0h-356v1040h356v-1040z" />
    <glyph glyph-name="uni044C" unicode="&#x44c;" horiz-adv-x="1183" 
d="M698 0h-573v1040h362v-284h193q200 0 324 -103q122 -101 122 -274q0 -161 -112 -270t-316 -109zM487 502v-236h136q66 0 103.5 31t37.5 86q0 56 -37.5 87.5t-103.5 31.5h-136z" />
    <glyph glyph-name="uni044D" unicode="&#x44d;" horiz-adv-x="1048" 
d="M92 45v283q118 -62 266 -62q211 0 273 142h-332v229h330q-71 139 -273 139q-123 0 -250 -53v281q132 63 308 63q229 0 403 -145q172 -144 172 -400q0 -254 -172 -401q-171 -148 -399 -148q-173 0 -326 72z" />
    <glyph glyph-name="uni044E" unicode="&#x44e;" horiz-adv-x="1753" 
d="M1145 -27q-206 0 -350 117q-145 121 -185 303h-123v-393h-362v1040h362v-360h131q50 174 191.5 280.5t335.5 106.5q243 0 395 -158q154 -157 154 -389t-154 -389q-152 -158 -395 -158zM1001 352q52 -67 144 -67q89 0 141 67q51 66 51 168t-51 168q-53 68 -141 68
q-91 0 -144 -68t-53 -168t53 -168z" />
    <glyph glyph-name="uni044F" unicode="&#x44f;" horiz-adv-x="1236" 
d="M434 0h-403l264 389q-178 88 -178 301q0 156 108.5 253t315.5 97h571v-1040h-362v324h-99zM602 569h148v195h-148q-73 7 -103 -45t1 -104.5t102 -45.5z" />
    <glyph glyph-name="uni0451" unicode="&#x451;" horiz-adv-x="1179" 
d="M639 -27q-241 0 -412 148q-168 149 -168 399q0 231 152 389t399 158q222 0 361 -154q141 -150 141 -391v-90h-696q23 -79 104.5 -120.5t198.5 -41.5q168 0 334 90v-278q-148 -109 -414 -109zM414 625h344q-1 77 -49 126.5t-115 49.5q-72 0 -121 -47.5t-59 -128.5z
M356 1159q-72 0 -125 52.5t-53 125.5t52 124.5t126 51.5q75 0 127 -51t52 -125t-52 -126t-127 -52zM946 1210q-51 -51 -124.5 -51t-127.5 51q-51 54 -51 127.5t51 124.5q54 51 127.5 51t124.5 -51q54 -51 54 -124.5t-54 -127.5z" />
    <glyph glyph-name="uni0452" unicode="&#x452;" horiz-adv-x="1388" 
d="M862 -422q-167 0 -246 43v297q67 -33 152 -33q152 0 152 148v350q0 88 -40 130t-106 42q-108 0 -178 -88v-467h-363v1042h-206v236h206v156h363v-156h346v-236h-346v-307q138 144 330 144q170 0 263 -114t93 -314v-449q0 -197 -111.5 -310.5t-308.5 -113.5z" />
    <glyph glyph-name="uni0453" unicode="&#x453;" horiz-adv-x="995" 
d="M487 0h-362v1040h850v-290h-488v-750zM606 1180h-301l195 311h428z" />
    <glyph glyph-name="uni0454" unicode="&#x454;" horiz-adv-x="1052" 
d="M956 328v-283q-153 -72 -325 -72q-228 0 -402 148q-170 147 -170 401q0 256 172 400q174 145 404 145q175 0 307 -63v-281q-127 53 -250 53q-201 0 -272 -139h330v-229h-332q62 -142 272 -142q148 0 266 62z" />
    <glyph glyph-name="uni0455" unicode="&#x455;" horiz-adv-x="1007" 
d="M514 -27q-288 0 -440 93v305q63 -46 180 -80q112 -33 244 -33q127 0 127 51q0 29 -45 47l-48 17q-46 14 -145 39q-180 53 -252 116q-72 66 -72 207q0 155 127.5 243.5t350.5 88.5q231 0 393 -98v-295q-178 112 -379 112q-117 0 -117 -53q0 -33 47 -47l50 -14
q5 -1 135 -31q168 -43 243.5 -120t75.5 -212q0 -149 -129 -243q-128 -93 -346 -93z" />
    <glyph glyph-name="uni0456" unicode="&#x456;" horiz-adv-x="634" 
d="M498 0h-363v1040h363v-1040zM315 1135q-86 0 -146 60t-60 148t60 148.5t146 60.5q88 0 148.5 -60.5t60.5 -148.5t-60.5 -148t-148.5 -60z" />
    <glyph glyph-name="uni0457" unicode="&#x457;" horiz-adv-x="575" 
d="M55 1159q-72 0 -125 52.5t-53 125.5t52 124.5t126 51.5q75 0 126.5 -51t51.5 -125t-51.5 -126t-126.5 -52zM645 1210q-51 -51 -124.5 -51t-127.5 51q-51 54 -51 127.5t51 124.5q54 51 127.5 51t124.5 -51q54 -51 54 -124.5t-54 -127.5zM465 0h-363v1040h363v-1040z" />
    <glyph glyph-name="uni0458" unicode="&#x458;" horiz-adv-x="634" 
d="M315 1135q-86 0 -146 60t-60 148t60 148.5t146 60.5q88 0 148.5 -60.5t60.5 -148.5t-60.5 -148t-148.5 -60zM80 -422q-167 0 -246 43v297q67 -33 152 -33q151 0 151 148v1007h363v-1038q0 -197 -111.5 -310.5t-308.5 -113.5z" />
    <glyph glyph-name="uni0459" unicode="&#x459;" horiz-adv-x="1904" 
d="M846 0v750h-246q-3 -195 -12 -297q-15 -206 -113 -336q-94 -131 -280 -131q-106 0 -154 26v299q30 -12 74 -12q78 0 108.5 104.5t32.5 354.5l2 282h950v-284h193q199 0 323 -103q123 -102 123 -274q0 -161 -112 -270t-316 -109h-573zM1208 502v-236h135q66 0 104 31
t38 86t-38 87t-104 32h-135z" />
    <glyph glyph-name="uni045A" unicode="&#x45a;" horiz-adv-x="1869" 
d="M487 0h-362v1040h362v-362h324v362h363v-284h192q200 0 324 -103q122 -101 122 -274q0 -161 -112 -270t-316 -109h-573v387h-324v-387zM1174 502v-236h135q66 0 103.5 31t37.5 86q0 56 -37.5 87.5t-103.5 31.5h-135z" />
    <glyph glyph-name="uni045B" unicode="&#x45b;" horiz-adv-x="1388" 
d="M596 467v-467h-363v1042h-206v238h206v154h363v-154h346v-238h-346v-307q138 144 330 144q170 0 263 -114t93 -314v-451h-362v383q0 88 -40 130t-106 42q-108 0 -178 -88z" />
    <glyph glyph-name="uni045C" unicode="&#x45c;" horiz-adv-x="1294" 
d="M487 0h-362v1040h362v-368l310 368h428l-412 -467l479 -573h-452l-353 430v-430zM776 1180h-301l195 311h428z" />
    <glyph glyph-name="uni045E" unicode="&#x45e;" horiz-adv-x="1247" 
d="M334 -422q-132 0 -232 47v312q77 -50 168 -50q70 0 115.5 34.5t77.5 113.5l-443 1005h386l231 -626l217 626h377l-465 -1144q-130 -318 -432 -318zM244 1489h248q2 -60 38 -94.5t99 -34.5t99 34.5t38 94.5h252q-3 -170 -113 -264q-111 -97 -274 -97t-277 97
q-107 94 -110 264z" />
    <glyph glyph-name="uni045F" unicode="&#x45f;" horiz-adv-x="1296" 
d="M823 -244h-350v244h-348v1040h362v-749h322v749h362v-1040h-348v-244z" />
    <glyph glyph-name="uni0490" unicode="&#x490;" horiz-adv-x="1267" 
d="M506 0h-369v1434h727v278h332v-602h-690v-1110z" />
    <glyph glyph-name="uni0491" unicode="&#x491;" horiz-adv-x="995" 
d="M487 0h-362v1040h518v244h332v-534h-488v-750z" />
    <glyph glyph-name="uni1E02" unicode="&#x1e02;" horiz-adv-x="1458" 
d="M874 0h-737v1434h699q202 0 324 -95t122 -268q0 -98 -48 -171.5t-120 -106.5q108 -25 189 -125q83 -103 83 -256q0 -185 -141 -299q-137 -113 -371 -113zM506 612v-305h297q85 0 132.5 40t47.5 112q0 71 -49 112t-131 41h-297zM506 1135v-250h274q68 0 108 33t40 90
q0 60 -40 93.5t-108 33.5h-274zM680 1536q-72 0 -125 52.5t-53 125.5t52 124.5t126 51.5q75 0 126.5 -51t51.5 -125t-51.5 -126t-126.5 -52z" />
    <glyph glyph-name="uni1E03" unicode="&#x1e03;" horiz-adv-x="1333" 
d="M487 117v-117h-362v1434h362v-510q110 143 312 143q203 0 340 -158q135 -156 135 -389q0 -235 -135 -391t-340 -156q-204 0 -312 144zM694 281q96 0 157.5 68t61.5 171q0 104 -61.5 172t-157.5 68q-136 0 -207 -111v-258q70 -110 207 -110zM664 1536q-72 0 -125.5 52.5
t-53.5 125.5t52.5 124.5t126.5 51.5q75 0 126.5 -51t51.5 -125t-51.5 -126t-126.5 -52z" />
    <glyph glyph-name="uni1E0A" unicode="&#x1e0a;" horiz-adv-x="1593" 
d="M709 0h-572v1434h572q349 0 571 -201q221 -200 221 -516q0 -318 -221 -518q-220 -199 -571 -199zM506 1110v-786h176q210 0 324 102t114 291t-114 291t-324 102h-176zM741 1536q-72 0 -125 52.5t-53 125.5t52 124.5t126 51.5q75 0 127 -51t52 -125t-52 -126t-127 -52z
" />
    <glyph glyph-name="uni1E0B" unicode="&#x1e0b;" horiz-adv-x="1333" 
d="M535 -27q-205 0 -340 156q-136 157 -136 391q0 232 136 389q137 158 340 158q201 0 311 -143v510h362v-1434h-362v117q-108 -144 -311 -144zM639 281q137 0 207 110v258q-70 111 -207 111q-96 0 -157.5 -68t-61.5 -172q0 -103 61.5 -171t157.5 -68zM692 1536
q-72 0 -125 52.5t-53 125.5t52 124.5t126 51.5q75 0 126.5 -51t51.5 -125t-51.5 -126t-126.5 -52z" />
    <glyph glyph-name="uni1E1E" unicode="&#x1e1e;" horiz-adv-x="1298" 
d="M506 0h-369v1434h1090v-324h-721v-209h538v-311h-538v-590zM680 1536q-72 0 -125 52.5t-53 125.5t52 124.5t126 51.5q75 0 126.5 -51t51.5 -125t-51.5 -126t-126.5 -52z" />
    <glyph glyph-name="uni1E1F" unicode="&#x1e1f;" horiz-adv-x="911" 
d="M205 0v750h-174v290h174v56q0 167 98 266.5t283 99.5q165 0 284 -45v-278q-82 30 -178 30q-125 0 -125 -110v-19h303v-290h-303v-750h-362zM539 1536q-72 0 -125.5 52.5t-53.5 125.5t52.5 124.5t126.5 51.5q75 0 126.5 -51t51.5 -125t-51.5 -126t-126.5 -52z" />
    <glyph glyph-name="uni1E40" unicode="&#x1e40;" horiz-adv-x="1732" 
d="M506 0h-369v1434h367l362 -551l365 551h364v-1434h-366v874l-256 -385h-203l-264 385v-874zM866 1536q-72 0 -125 52.5t-53 125.5t52 124.5t126 51.5q75 0 126.5 -51t51.5 -125t-51.5 -126t-126.5 -52z" />
    <glyph glyph-name="uni1E41" unicode="&#x1e41;" horiz-adv-x="1910" 
d="M487 0h-362v1040h362v-122q113 149 320 149q94 0 171.5 -50t115.5 -122q52 75 145 123.5t195 48.5q168 0 269 -109t101 -309v-649h-362v578q0 167 -131 167q-108 0 -164 -96v-649h-363v578q0 167 -131 167q-107 0 -166 -96v-649zM965 1159q-72 0 -125.5 52.5t-53.5 125.5
t52.5 124.5t126.5 51.5q75 0 126.5 -51t51.5 -125t-51.5 -126t-126.5 -52z" />
    <glyph glyph-name="uni1E56" unicode="&#x1e56;" horiz-adv-x="1345" 
d="M506 0h-369v1434h639q241 0 381 -125q141 -126 141 -324q0 -200 -141 -326q-139 -124 -381 -124h-270v-535zM506 1122v-284h244q80 0 128 38t48 105t-47 104t-129 37h-244zM676 1536q-72 0 -125 52.5t-53 125.5t52 124.5t126 51.5q75 0 126.5 -51t51.5 -125t-51.5 -126
t-126.5 -52z" />
    <glyph glyph-name="uni1E57" unicode="&#x1e57;" horiz-adv-x="1333" 
d="M487 -410h-362v1450h362v-116q107 143 312 143q203 0 340 -158q135 -156 135 -389q0 -235 -135 -391t-340 -156q-201 0 -312 144v-527zM694 281q96 0 157.5 68t61.5 171q0 104 -61.5 172t-157.5 68q-136 0 -207 -111v-258q70 -110 207 -110zM696 1159q-72 0 -125 52.5
t-53 125.5t52 124.5t126 51.5q75 0 126.5 -51t51.5 -125t-51.5 -126t-126.5 -52z" />
    <glyph glyph-name="uni1E60" unicode="&#x1e60;" horiz-adv-x="1302" 
d="M643 -29q-329 0 -555 154v377q86 -80 246 -140q152 -57 295 -57q219 0 219 113q0 29 -13 46.5t-42 37.5q-13 11 -93 37l-129 39l-104 30l-94 37q-56 22 -94 45q-112 84 -140 131q-51 96 -51 211q0 205 151 317.5t412 112.5q263 0 486 -119v-354q-90 56 -228 98
q-134 41 -254 41q-188 0 -188 -94q0 -40 59 -65l66 -23q23 -7 96 -28t100 -29q207 -68 324 -170t117 -287q0 -210 -164 -336q-162 -125 -422 -125zM641 1536q-72 0 -125 52.5t-53 125.5t52 124.5t126 51.5q75 0 126.5 -51t51.5 -125t-51.5 -126t-126.5 -52z" />
    <glyph glyph-name="uni1E61" unicode="&#x1e61;" horiz-adv-x="1060" 
d="M526 -27q-288 0 -440 93v305q63 -46 180 -80q112 -33 244 -33q127 0 127 51q0 29 -45 47l-47 17q-39 12 -146 39q-180 53 -252 116q-71 65 -71 207q0 155 127 243.5t350 88.5q231 0 393 -98v-295q-178 112 -379 112q-116 0 -116 -53q0 -33 47 -47l49 -14q5 -1 135 -31
q168 -43 243.5 -120t75.5 -212q0 -149 -129 -243q-128 -93 -346 -93zM510 1159q-72 0 -125 52.5t-53 125.5t52 124.5t126 51.5q75 0 126.5 -51t51.5 -125t-51.5 -126t-126.5 -52z" />
    <glyph glyph-name="uni1E6A" unicode="&#x1e6a;" horiz-adv-x="1345" 
d="M856 0h-369v1110h-430v324h1231v-324h-432v-1110zM672 1536q-72 0 -125 52.5t-53 125.5t52 124.5t126 51.5q75 0 126.5 -51t51.5 -125t-51.5 -126t-126.5 -52z" />
    <glyph glyph-name="uni1E6B" unicode="&#x1e6b;" horiz-adv-x="919" 
d="M573 -27q-164 0 -262 89t-98 251v437h-182v290h182v267h362v-267h265v-290h-265v-338q0 -68 27.5 -96.5t93.5 -28.5q74 0 144 37v-289q-100 -62 -267 -62zM393 1413q-72 0 -125 52.5t-53 125.5t52 124.5t126 51.5q75 0 126.5 -51t51.5 -125t-51.5 -126t-126.5 -52z" />
    <glyph glyph-name="Wgrave" unicode="&#x1e80;" horiz-adv-x="2228" 
d="M827 -8h-327l-475 1442h411l242 -854l299 858h287l299 -858l241 854h404l-479 -1442h-324l-287 839zM1282 1556h-301l-322 312h428z" />
    <glyph glyph-name="wgrave" unicode="&#x1e81;" horiz-adv-x="1753" 
d="M670 -8h-310l-340 1048h359l166 -530l166 534h286l170 -534l162 530h357l-347 -1048h-311l-182 534zM1034 1180h-301l-321 311h428z" />
    <glyph glyph-name="Wacute" unicode="&#x1e82;" horiz-adv-x="2228" 
d="M827 -8h-327l-475 1442h411l242 -854l299 858h287l299 -858l241 854h404l-479 -1442h-324l-287 839zM1266 1556h-301l194 312h428z" />
    <glyph glyph-name="wacute" unicode="&#x1e83;" horiz-adv-x="1753" 
d="M670 -8h-310l-340 1048h359l166 -530l166 534h286l170 -534l162 530h357l-347 -1048h-311l-182 534zM1018 1180h-301l194 311h428z" />
    <glyph glyph-name="Wdieresis" unicode="&#x1e84;" horiz-adv-x="2228" 
d="M827 -8h-327l-475 1442h411l242 -854l299 858h287l299 -858l241 854h404l-479 -1442h-324l-287 839zM893 1536q-72 0 -125 52.5t-53 125.5t52 124.5t126 51.5q75 0 126.5 -51t51.5 -125t-51.5 -126t-126.5 -52zM1483 1587q-51 -51 -124.5 -51t-127.5 51q-51 54 -51 127.5
t51 124.5q54 51 127.5 51t124.5 -51q54 -51 54 -124.5t-54 -127.5z" />
    <glyph glyph-name="wdieresis" unicode="&#x1e85;" horiz-adv-x="1753" 
d="M670 -8h-310l-340 1048h359l166 -530l166 534h286l170 -534l162 530h357l-347 -1048h-311l-182 534zM631 1159q-72 0 -125 52.5t-53 125.5t52 124.5t126 51.5q75 0 126.5 -51t51.5 -125t-51.5 -126t-126.5 -52zM1221 1210q-51 -51 -124.5 -51t-127.5 51q-51 54 -51 127.5
t51 124.5q54 51 127.5 51t124.5 -51q54 -51 54 -124.5t-54 -127.5z" />
    <glyph glyph-name="Ygrave" unicode="&#x1ef2;" horiz-adv-x="1490" 
d="M930 0h-369v635l-551 799h420l320 -473l321 473h410l-551 -791v-643zM924 1556h-301l-322 312h428z" />
    <glyph glyph-name="ygrave" unicode="&#x1ef3;" horiz-adv-x="1247" 
d="M334 -422q-132 0 -232 47v312q77 -50 168 -50q70 0 115.5 34.5t77.5 113.5l-443 1005h386l231 -626l217 626h377l-465 -1144q-130 -318 -432 -318zM825 1180h-301l-321 311h428z" />
    <glyph glyph-name="endash" unicode="&#x2013;" horiz-adv-x="1628" 
d="M1434 414h-1239v319h1239v-319z" />
    <glyph glyph-name="emdash" unicode="&#x2014;" horiz-adv-x="1894" 
d="M1700 414h-1505v319h1505v-319z" />
    <glyph glyph-name="uni2015" unicode="&#x2015;" horiz-adv-x="1628" 
d="M1434 414h-1239v319h1239v-319z" />
    <glyph glyph-name="quoteleft" unicode="&#x2018;" horiz-adv-x="585" 
d="M274 1434h289l-184 -672h-369z" />
    <glyph glyph-name="quoteright" unicode="&#x2019;" horiz-adv-x="585" 
d="M311 762h-288l184 672h368z" />
    <glyph glyph-name="quotesinglbase" unicode="&#x201a;" horiz-adv-x="669" 
d="M332 -311h-289l184 671h369z" />
    <glyph glyph-name="quotedblleft" unicode="&#x201c;" horiz-adv-x="1099" 
d="M788 1434h289l-184 -672h-369zM274 1434h289l-184 -672h-369z" />
    <glyph glyph-name="quotedblright" unicode="&#x201d;" horiz-adv-x="1099" 
d="M825 762h-288l184 672h369zM311 762h-288l184 672h368z" />
    <glyph glyph-name="quotedblbase" unicode="&#x201e;" horiz-adv-x="1183" 
d="M846 -311h-289l184 671h369zM332 -311h-289l184 671h369z" />
    <glyph glyph-name="dagger" unicode="&#x2020;" horiz-adv-x="1003" 
d="M633 0h-262v791h-336v249h336v394h262v-394h336v-249h-336v-791z" />
    <glyph glyph-name="daggerdbl" unicode="&#x2021;" horiz-adv-x="1003" 
d="M633 0h-262v358h-336v250h336v183h-336v249h336v394h262v-394h336v-249h-336v-183h336v-250h-336v-358z" />
    <glyph glyph-name="bullet" unicode="&#x2022;" horiz-adv-x="858" 
d="M668 565q-98 -98 -238 -98q-139 0 -240 98q-98 98 -98 238q0 139 98 237q101 101 240 101q140 0 238 -101q98 -98 98 -237q0 -140 -98 -238z" />
    <glyph glyph-name="ellipsis" unicode="&#x2026;" horiz-adv-x="1642" 
d="M1507 35q-61 -64 -151 -64t-154 64q-61 64 -61 153q0 91 61 152q63 63 154 63t151 -63q64 -61 64 -152q0 -89 -64 -153zM438 35q-61 -64 -151 -64t-154 64q-61 64 -61 153q0 91 61 152q63 63 154 63t151 -63q64 -61 64 -152q0 -89 -64 -153zM973 35q-61 -64 -152 -64
q-89 0 -153 64q-62 65 -62 153q0 91 64 152q63 63 151.5 63t151.5 -63q63 -60 63 -152q0 -90 -63 -153z" />
    <glyph glyph-name="perthousand" unicode="&#x2030;" horiz-adv-x="2492" 
d="M528 0h-243l866 1434h244zM1010 596q105 102 266 102t266 -102t105 -254t-105 -254t-266 -102t-266 102t-105 254t105 254zM1182 242q37 -38 94 -38t94 38q37 41 37 100.5t-37 97.5q-37 41 -94 41t-94 -41q-37 -38 -37 -97.5t37 -100.5zM135 1346q105 102 266 102
q162 0 267 -102q104 -101 104 -254t-104 -254q-106 -103 -267 -103q-160 0 -266 103q-104 101 -104 254t104 254zM307 991q37 -38 94.5 -38t94.5 38q37 41 37 101t-37 98q-37 41 -94.5 41t-94.5 -41q-37 -38 -37 -98t37 -101zM1825 596q105 102 266 102t266 -102t105 -254
t-105 -254t-266 -102t-266 102t-105 254t105 254zM1997 242q37 -38 94 -38t94 38q37 41 37 100.5t-37 97.5q-37 41 -94 41t-94 -41q-37 -38 -37 -97.5t37 -100.5z" />
    <glyph glyph-name="guilsinglleft" unicode="&#x2039;" horiz-adv-x="708" 
d="M670 66h-361l-266 364v178l266 367h361l-328 -455z" />
    <glyph glyph-name="guilsinglright" unicode="&#x203a;" horiz-adv-x="708" 
d="M399 66h-360l328 454l-328 455h360l267 -367v-178z" />
    <glyph glyph-name="fraction" unicode="&#x2044;" horiz-adv-x="485" 
d="M-72 0h-245l870 1434h246z" />
    <glyph glyph-name="zerosuperior" unicode="&#x2070;" horiz-adv-x="772" 
d="M385 643q-166 0 -260 119t-94 285q0 163 94 282q95 121 260 121q167 0 262 -121q94 -119 94 -282q0 -166 -94 -285t-262 -119zM385 834q52 -3 87.5 41t43.5 108t0 128t-43.5 108t-87.5 41q-52 3 -87.5 -41t-43.5 -108t0 -128t43.5 -108t87.5 -41z" />
    <glyph glyph-name="foursuperior" unicode="&#x2074;" horiz-adv-x="749" 
d="M616 659h-210v179h-383v153l370 443h223v-428h107v-168h-107v-179zM406 1196l-166 -190h166v190z" />
    <glyph glyph-name="fivesuperior" unicode="&#x2075;" horiz-adv-x="675" 
d="M279 643q-133 0 -234 55v203q109 -65 223 -65q138 0 138 92q0 41 -38 65.5t-104 24.5q-94 0 -196 -31l53 447h450v-183h-288l-7 -73q16 4 39 4q138 0 224 -68.5t86 -185.5q0 -138 -101 -211q-103 -74 -245 -74z" />
    <glyph glyph-name="sixsuperior" unicode="&#x2076;" horiz-adv-x="722" 
d="M377 643q-156 0 -243 98.5t-87 266.5q-3 84 19.5 161.5t68 140.5t121 101t170.5 39q117 0 188 -47v-193q-71 50 -161 50q-71 0 -121.5 -37t-57.5 -103q57 60 154 60q112 0 182 -69.5t70 -186.5q0 -123 -86.5 -202t-216.5 -79zM360 819q48 0 76.5 29.5t28.5 75.5
q0 40 -28.5 68t-74.5 28q-78 0 -106 -66q0 -64 29.5 -99.5t74.5 -35.5z" />
    <glyph glyph-name="sevensuperior" unicode="&#x2077;" horiz-adv-x="669" 
d="M317 659h-235l301 592h-344v183h590v-170z" />
    <glyph glyph-name="eightsuperior" unicode="&#x2078;" horiz-adv-x="733" 
d="M37 887q0 59 39 111t96 73q-43 20 -70.5 63.5t-27.5 92.5q0 98 82.5 160.5t210.5 62.5t210 -62.5t82 -160.5q0 -49 -27.5 -92.5t-70.5 -63.5q57 -21 96 -72.5t39 -111.5q0 -114 -96 -180q-94 -64 -233 -64q-140 0 -234 64q-96 66 -96 180zM477 905q0 39 -30.5 64.5
t-79.5 25.5t-80 -25.5t-31 -64.5q0 -37 31 -61.5t80 -24.5t79.5 24.5t30.5 61.5zM459 1202q6 46 -43.5 65.5t-98.5 0t-43 -65.5q0 -31 27.5 -52.5t65.5 -21.5t65 21.5t27 52.5z" />
    <glyph glyph-name="ninesuperior" unicode="&#x2079;" horiz-adv-x="722" 
d="M350 1450q156 0 243 -98.5t87 -266.5q3 -84 -19.5 -161.5t-68 -140.5t-121 -101t-170.5 -39q-117 0 -188 47v193q70 -49 161 -49q72 0 122 37t57 102q-57 -60 -154 -60q-112 0 -182 69.5t-70 186.5q0 123 86.5 202t216.5 79zM367 1274q-48 0 -76.5 -29.5t-28.5 -75.5
q0 -39 29.5 -67.5t73.5 -28.5q78 0 106 66q0 64 -29.5 99.5t-74.5 35.5z" />
    <glyph glyph-name="zeroinferior" unicode="&#x2080;" horiz-adv-x="772" 
d="M385 -16q-167 0 -260 118q-94 119 -94 285q0 164 94 283q95 121 260 121q167 0 262 -121q94 -119 94 -283q0 -166 -94 -285q-93 -118 -262 -118zM385 174q52 -3 87.5 41t43.5 108t0 128t-43.5 108t-87.5 41q-52 3 -87.5 -41t-43.5 -108t0 -128t43.5 -108t87.5 -41z" />
    <glyph glyph-name="oneinferior" unicode="&#x2081;" horiz-adv-x="524" 
d="M455 0h-217v553l-205 -100v211l213 110h209v-774z" />
    <glyph glyph-name="twoinferior" unicode="&#x2082;" horiz-adv-x="727" 
d="M659 0h-583v158l211 176q129 108 129 178q0 35 -28 56.5t-75 21.5q-105 0 -209 -78v217q95 62 228 62q122 0 211 -68q92 -68 92 -182q0 -85 -37 -149t-131 -144l-76 -66h268v-182z" />
    <glyph glyph-name="threeinferior" unicode="&#x2083;" horiz-adv-x="673" 
d="M295 -16q-147 0 -252 63v199q119 -70 233 -70q61 0 98.5 24.5t37.5 65.5q0 38 -31.5 62t-87.5 24q-81 0 -131 -24v133l166 131h-265v182h531v-162l-152 -125q189 -53 189 -227q0 -124 -99 -201q-93 -75 -237 -75z" />
    <glyph glyph-name="fourinferior" unicode="&#x2084;" horiz-adv-x="749" 
d="M616 0h-210v178h-383v154l370 442h223v-428h107v-168h-107v-178zM406 537l-166 -191h166v191z" />
    <glyph glyph-name="fiveinferior" unicode="&#x2085;" horiz-adv-x="675" 
d="M279 -16q-133 0 -234 55v203q111 -66 223 -66q138 0 138 92q0 41 -38 65.5t-104 24.5q-97 0 -196 -30l53 446h450v-182h-288l-7 -74q16 4 39 4q138 0 224 -68.5t86 -185.5q0 -138 -101 -211t-245 -73z" />
    <glyph glyph-name="sixinferior" unicode="&#x2086;" horiz-adv-x="722" 
d="M377 -16q-156 0 -243 98t-87 266q-3 84 19.5 161.5t68 141t121 101.5t170.5 39q115 0 188 -48v-192q-70 49 -161 49q-72 0 -122 -37t-57 -102q56 59 154 59q112 0 182 -69.5t70 -186.5q0 -123 -86.5 -201.5t-216.5 -78.5zM360 160q48 0 76.5 29.5t28.5 74.5
q0 40 -28.5 68t-74.5 28q-79 0 -106 -65q0 -64 29.5 -99.5t74.5 -35.5z" />
    <glyph glyph-name="seveninferior" unicode="&#x2087;" horiz-adv-x="669" 
d="M317 0h-235l301 592h-344v182h590v-170z" />
    <glyph glyph-name="eightinferior" unicode="&#x2088;" horiz-adv-x="733" 
d="M37 227q0 59 39.5 111.5t95.5 73.5q-43 20 -70.5 63t-27.5 92q0 98 82.5 161t210.5 63t210 -63t82 -161q0 -49 -27.5 -92t-70.5 -63q57 -21 96 -73t39 -112q0 -114 -96 -180q-92 -63 -233 -63q-142 0 -234 63q-96 66 -96 180zM477 246q0 39 -30.5 64.5t-79.5 25.5
t-80 -25.5t-31 -64.5q0 -37 31 -61.5t80 -24.5t79.5 24.5t30.5 61.5zM459 543q6 46 -43.5 65.5t-98.5 0t-43 -65.5q0 -31 27.5 -52.5t65.5 -21.5t65 21.5t27 52.5z" />
    <glyph glyph-name="nineinferior" unicode="&#x2089;" horiz-adv-x="722" 
d="M350 788q156 0 243 -98t87 -266q3 -84 -19.5 -161.5t-68 -140.5t-121 -101t-170.5 -39q-117 0 -188 47v192q70 -49 161 -49q72 0 122 37t57 102q-56 -59 -154 -59q-112 0 -182 69.5t-70 186.5q0 123 86.5 201.5t216.5 78.5zM367 612q-48 0 -76.5 -29.5t-28.5 -74.5
q0 -41 29.5 -68.5t73.5 -27.5q79 0 106 65q0 64 -29.5 99.5t-74.5 35.5z" />
    <glyph glyph-name="franc" unicode="&#x20a3;" horiz-adv-x="1398" 
d="M606 0h-368v174h-197v254h197v1006h1089v-324h-721v-209h539v-311h-539v-162h281v-254h-281v-174z" />
    <glyph glyph-name="lira" unicode="&#x20a4;" horiz-adv-x="1253" 
d="M1167 0h-1087v324h61q117 0 117 131v10h-178v168h178v80h-178v168h178v80q0 233 145 366q147 135 398 135q190 0 325 -63v-338q-143 61 -264 61q-235 0 -235 -213v-28h389v-168h-389v-80h389v-168h-389v-12q0 -40 -15 -74t-34 -45l-15 -10h604v-324z" />
    <glyph glyph-name="peseta" unicode="&#x20a7;" horiz-adv-x="1523" 
d="M569 0h-368v846h-185v268h185v320h639q194 0 327 -86t176 -234h162v-268h-166q-45 -144 -177 -227.5t-322 -83.5h-271v-535zM569 1122v-284h244q80 0 128 38t48 105t-47 104t-129 37h-244z" />
    <glyph glyph-name="Euro" unicode="&#x20ac;" horiz-adv-x="1331" 
d="M895 -29q-258 0 -442 140q-181 138 -246 370h-156v199h125q0 88 2 102h-127v199h164q70 217 250 350q180 131 430 131q182 0 313 -61v-346q-129 69 -268 69q-214 0 -315 -143h317v-199h-385q-4 -20 -4 -53q0 -21 4 -49h385v-199h-334q94 -172 332 -172q172 0 299 86v-358
q-135 -66 -344 -66z" />
    <glyph glyph-name="uni20B4" unicode="&#x20b4;" horiz-adv-x="1232" 
d="M1159 793h-1073v174h573q39 20 39 75q0 99 -192 99q-186 0 -334 -68v326q141 63 383 63q221 0 379 -96q160 -95 160 -283q0 -74 -31 -116h96v-174zM670 -29q-223 0 -383 97q-156 94 -156 288q0 100 68 174h-113v175h1073v-175h-532q-103 -41 -103 -120q0 -111 209 -111
q75 0 193 23q109 24 172 61v-334q-182 -78 -428 -78z" />
    <glyph glyph-name="uni20B6" unicode="&#x20b6;" horiz-adv-x="1519" 
d="M651 0h-368v174h-238v254h238v107h-238v253h238v646h639q241 0 381 -125q141 -126 141 -324q0 -200 -141 -326q-139 -124 -381 -124h-271v-107h479v-254h-479v-174zM651 1122v-334h213q95 0 151 44.5t56 123.5q0 77 -56 121.5t-151 44.5h-213z" />
    <glyph glyph-name="uni20B6" unicode="&#x20cf;" horiz-adv-x="1519" 
d="M651 0h-368v174h-238v254h238v107h-238v253h238v646h639q241 0 381 -125q141 -126 141 -324q0 -200 -141 -326q-139 -124 -381 -124h-271v-107h479v-254h-479v-174zM651 1122v-334h213q95 0 151 44.5t56 123.5q0 77 -56 121.5t-151 44.5h-213z" />
    <glyph glyph-name="uni20B6" unicode="&#x20ce;" horiz-adv-x="1519" 
d="M651 0h-368v174h-238v254h238v107h-238v253h238v646h639q241 0 381 -125q141 -126 141 -324q0 -200 -141 -326q-139 -124 -381 -124h-271v-107h479v-254h-479v-174zM651 1122v-334h213q95 0 151 44.5t56 123.5q0 77 -56 121.5t-151 44.5h-213z" />
    <glyph glyph-name="uni20B6" unicode="&#x20cd;" horiz-adv-x="1519" 
d="M651 0h-368v174h-238v254h238v107h-238v253h238v646h639q241 0 381 -125q141 -126 141 -324q0 -200 -141 -326q-139 -124 -381 -124h-271v-107h479v-254h-479v-174zM651 1122v-334h213q95 0 151 44.5t56 123.5q0 77 -56 121.5t-151 44.5h-213z" />
    <glyph glyph-name="uni20B6" unicode="&#x20cc;" horiz-adv-x="1519" 
d="M651 0h-368v174h-238v254h238v107h-238v253h238v646h639q241 0 381 -125q141 -126 141 -324q0 -200 -141 -326q-139 -124 -381 -124h-271v-107h479v-254h-479v-174zM651 1122v-334h213q95 0 151 44.5t56 123.5q0 77 -56 121.5t-151 44.5h-213z" />
    <glyph glyph-name="uni20B6" unicode="&#x20cb;" horiz-adv-x="1519" 
d="M651 0h-368v174h-238v254h238v107h-238v253h238v646h639q241 0 381 -125q141 -126 141 -324q0 -200 -141 -326q-139 -124 -381 -124h-271v-107h479v-254h-479v-174zM651 1122v-334h213q95 0 151 44.5t56 123.5q0 77 -56 121.5t-151 44.5h-213z" />
    <glyph glyph-name="uni20B6" unicode="&#x20ca;" horiz-adv-x="1519" 
d="M651 0h-368v174h-238v254h238v107h-238v253h238v646h639q241 0 381 -125q141 -126 141 -324q0 -200 -141 -326q-139 -124 -381 -124h-271v-107h479v-254h-479v-174zM651 1122v-334h213q95 0 151 44.5t56 123.5q0 77 -56 121.5t-151 44.5h-213z" />
    <glyph glyph-name="uni20B6" unicode="&#x20c9;" horiz-adv-x="1519" 
d="M651 0h-368v174h-238v254h238v107h-238v253h238v646h639q241 0 381 -125q141 -126 141 -324q0 -200 -141 -326q-139 -124 -381 -124h-271v-107h479v-254h-479v-174zM651 1122v-334h213q95 0 151 44.5t56 123.5q0 77 -56 121.5t-151 44.5h-213z" />
    <glyph glyph-name="uni20B6" unicode="&#x20c8;" horiz-adv-x="1519" 
d="M651 0h-368v174h-238v254h238v107h-238v253h238v646h639q241 0 381 -125q141 -126 141 -324q0 -200 -141 -326q-139 -124 -381 -124h-271v-107h479v-254h-479v-174zM651 1122v-334h213q95 0 151 44.5t56 123.5q0 77 -56 121.5t-151 44.5h-213z" />
    <glyph glyph-name="uni20B6" unicode="&#x20c7;" horiz-adv-x="1519" 
d="M651 0h-368v174h-238v254h238v107h-238v253h238v646h639q241 0 381 -125q141 -126 141 -324q0 -200 -141 -326q-139 -124 -381 -124h-271v-107h479v-254h-479v-174zM651 1122v-334h213q95 0 151 44.5t56 123.5q0 77 -56 121.5t-151 44.5h-213z" />
    <glyph glyph-name="uni20B6" unicode="&#x20c6;" horiz-adv-x="1519" 
d="M651 0h-368v174h-238v254h238v107h-238v253h238v646h639q241 0 381 -125q141 -126 141 -324q0 -200 -141 -326q-139 -124 -381 -124h-271v-107h479v-254h-479v-174zM651 1122v-334h213q95 0 151 44.5t56 123.5q0 77 -56 121.5t-151 44.5h-213z" />
    <glyph glyph-name="uni20B6" unicode="&#x20c5;" horiz-adv-x="1519" 
d="M651 0h-368v174h-238v254h238v107h-238v253h238v646h639q241 0 381 -125q141 -126 141 -324q0 -200 -141 -326q-139 -124 -381 -124h-271v-107h479v-254h-479v-174zM651 1122v-334h213q95 0 151 44.5t56 123.5q0 77 -56 121.5t-151 44.5h-213z" />
    <glyph glyph-name="uni20B6" unicode="&#x20c4;" horiz-adv-x="1519" 
d="M651 0h-368v174h-238v254h238v107h-238v253h238v646h639q241 0 381 -125q141 -126 141 -324q0 -200 -141 -326q-139 -124 -381 -124h-271v-107h479v-254h-479v-174zM651 1122v-334h213q95 0 151 44.5t56 123.5q0 77 -56 121.5t-151 44.5h-213z" />
    <glyph glyph-name="uni20B6" unicode="&#x20c3;" horiz-adv-x="1519" 
d="M651 0h-368v174h-238v254h238v107h-238v253h238v646h639q241 0 381 -125q141 -126 141 -324q0 -200 -141 -326q-139 -124 -381 -124h-271v-107h479v-254h-479v-174zM651 1122v-334h213q95 0 151 44.5t56 123.5q0 77 -56 121.5t-151 44.5h-213z" />
    <glyph glyph-name="uni20B6" unicode="&#x20c2;" horiz-adv-x="1519" 
d="M651 0h-368v174h-238v254h238v107h-238v253h238v646h639q241 0 381 -125q141 -126 141 -324q0 -200 -141 -326q-139 -124 -381 -124h-271v-107h479v-254h-479v-174zM651 1122v-334h213q95 0 151 44.5t56 123.5q0 77 -56 121.5t-151 44.5h-213z" />
    <glyph glyph-name="uni20B6" unicode="&#x20c1;" horiz-adv-x="1519" 
d="M651 0h-368v174h-238v254h238v107h-238v253h238v646h639q241 0 381 -125q141 -126 141 -324q0 -200 -141 -326q-139 -124 -381 -124h-271v-107h479v-254h-479v-174zM651 1122v-334h213q95 0 151 44.5t56 123.5q0 77 -56 121.5t-151 44.5h-213z" />
    <glyph glyph-name="uni20B6" unicode="&#x20c0;" horiz-adv-x="1519" 
d="M651 0h-368v174h-238v254h238v107h-238v253h238v646h639q241 0 381 -125q141 -126 141 -324q0 -200 -141 -326q-139 -124 -381 -124h-271v-107h479v-254h-479v-174zM651 1122v-334h213q95 0 151 44.5t56 123.5q0 77 -56 121.5t-151 44.5h-213z" />
    <glyph glyph-name="uni20B6" unicode="&#x20bf;" horiz-adv-x="1519" 
d="M651 0h-368v174h-238v254h238v107h-238v253h238v646h639q241 0 381 -125q141 -126 141 -324q0 -200 -141 -326q-139 -124 -381 -124h-271v-107h479v-254h-479v-174zM651 1122v-334h213q95 0 151 44.5t56 123.5q0 77 -56 121.5t-151 44.5h-213z" />
    <glyph glyph-name="uni20B6" unicode="&#x20be;" horiz-adv-x="1519" 
d="M651 0h-368v174h-238v254h238v107h-238v253h238v646h639q241 0 381 -125q141 -126 141 -324q0 -200 -141 -326q-139 -124 -381 -124h-271v-107h479v-254h-479v-174zM651 1122v-334h213q95 0 151 44.5t56 123.5q0 77 -56 121.5t-151 44.5h-213z" />
    <glyph glyph-name="uni20B6" unicode="&#x20bd;" horiz-adv-x="1519" 
d="M651 0h-368v174h-238v254h238v107h-238v253h238v646h639q241 0 381 -125q141 -126 141 -324q0 -200 -141 -326q-139 -124 -381 -124h-271v-107h479v-254h-479v-174zM651 1122v-334h213q95 0 151 44.5t56 123.5q0 77 -56 121.5t-151 44.5h-213z" />
    <glyph glyph-name="uni20B6" unicode="&#x20bc;" horiz-adv-x="1519" 
d="M651 0h-368v174h-238v254h238v107h-238v253h238v646h639q241 0 381 -125q141 -126 141 -324q0 -200 -141 -326q-139 -124 -381 -124h-271v-107h479v-254h-479v-174zM651 1122v-334h213q95 0 151 44.5t56 123.5q0 77 -56 121.5t-151 44.5h-213z" />
    <glyph glyph-name="uni20B6" unicode="&#x20bb;" horiz-adv-x="1519" 
d="M651 0h-368v174h-238v254h238v107h-238v253h238v646h639q241 0 381 -125q141 -126 141 -324q0 -200 -141 -326q-139 -124 -381 -124h-271v-107h479v-254h-479v-174zM651 1122v-334h213q95 0 151 44.5t56 123.5q0 77 -56 121.5t-151 44.5h-213z" />
    <glyph glyph-name="uni20B6" unicode="&#x20ba;" horiz-adv-x="1519" 
d="M651 0h-368v174h-238v254h238v107h-238v253h238v646h639q241 0 381 -125q141 -126 141 -324q0 -200 -141 -326q-139 -124 -381 -124h-271v-107h479v-254h-479v-174zM651 1122v-334h213q95 0 151 44.5t56 123.5q0 77 -56 121.5t-151 44.5h-213z" />
    <glyph glyph-name="uni20B6" unicode="&#x20b9;" horiz-adv-x="1519" 
d="M651 0h-368v174h-238v254h238v107h-238v253h238v646h639q241 0 381 -125q141 -126 141 -324q0 -200 -141 -326q-139 -124 -381 -124h-271v-107h479v-254h-479v-174zM651 1122v-334h213q95 0 151 44.5t56 123.5q0 77 -56 121.5t-151 44.5h-213z" />
    <glyph glyph-name="uni20B6" unicode="&#x20b7;" horiz-adv-x="1519" 
d="M651 0h-368v174h-238v254h238v107h-238v253h238v646h639q241 0 381 -125q141 -126 141 -324q0 -200 -141 -326q-139 -124 -381 -124h-271v-107h479v-254h-479v-174zM651 1122v-334h213q95 0 151 44.5t56 123.5q0 77 -56 121.5t-151 44.5h-213z" />
    <glyph glyph-name="uni2113" unicode="&#x2113;" horiz-adv-x="872" 
d="M500 -27q-189 0 -291.5 104.5t-102.5 289.5v598q0 237 101.5 367t271.5 130q155 0 238 -102q84 -104 84 -254q0 -343 -434 -727q0 -168 190 -168q122 0 217 80v-225q-107 -93 -274 -93zM367 997v-299h6q91 94 146.5 203t55.5 195q0 53 -22.5 88t-67.5 35
q-53 0 -85.5 -55.5t-32.5 -166.5z" />
    <glyph glyph-name="uni2116" unicode="&#x2116;" horiz-adv-x="2387" 
d="M500 0h-363v1434h316l626 -789v789h361v-1434h-305l-635 793v-793zM2296 426h-701v215h701v-215zM1679 1346q105 102 267 102q161 0 266 -102q104 -101 104 -254t-104 -254q-106 -103 -266 -103q-161 0 -267 103q-104 101 -104 254t104 254zM1851 991q37 -38 94.5 -38
t94.5 38q37 41 37 101t-37 98q-37 41 -94.5 41t-94.5 -41q-37 -38 -37 -98t37 -101z" />
    <glyph glyph-name="trademark" unicode="&#x2122;" horiz-adv-x="1394" 
d="M842 795h-164v639h158l159 -236l158 236h160v-639h-164v387l-111 -160h-86l-110 160v-387zM387 795h-166v495h-190v144h549v-144h-193v-495z" />
    <glyph glyph-name="Omega" unicode="&#x2126;" horiz-adv-x="1613" 
d="M721 0h-606v324h190q-78 75 -135 204q-55 131 -55 271q0 127 47 245t132.5 211.5t219 150t293.5 56.5q316 0 502 -198q188 -200 188 -465q0 -140 -55 -271q-54 -128 -133 -204h188v-324h-606v272q98 66 162.5 191t64.5 274q0 167 -84 283q-83 115 -227 115
q-146 0 -229 -115q-84 -116 -84 -283q0 -149 64.5 -274t162.5 -191v-272z" />
    <glyph glyph-name="estimated" unicode="&#x212e;" horiz-adv-x="1593" 
d="M799 -29q-297 0 -502 199t-205 504q0 283 195 493q194 209 512 209q160 0 297 -62t225 -165q86 -98 133 -214.5t47 -229.5q0 -31 -2 -43h-1151v-426q181 -187 451 -187q187 0 333.5 89t225.5 253h90q-71 -176 -240 -299q-171 -121 -409 -121zM348 1114v-375h899v375
q-186 186 -448 186q-271 0 -451 -186z" />
    <glyph glyph-name="onethird" unicode="&#x2153;" horiz-adv-x="1632" 
d="M442 0h-245l870 1434h246zM455 659h-217v553l-205 -100v211l213 111h209v-775zM1253 -16q-147 0 -252 63v199q119 -70 234 -70q60 0 97.5 24.5t37.5 65.5q0 38 -31.5 62t-87.5 24q-81 0 -131 -24v133l166 131h-264v182h530v-162l-151 -125q188 -53 188 -227
q0 -125 -98 -201q-93 -75 -238 -75z" />
    <glyph glyph-name="twothirds" unicode="&#x2154;" horiz-adv-x="1816" 
d="M659 659h-583v158l211 176q129 108 129 178q0 35 -28 56.5t-75 21.5q-105 0 -209 -78v218q94 61 228 61q122 0 211 -68q92 -68 92 -182q0 -85 -37 -149t-131 -144l-76 -65h268v-183zM1438 -16q-147 0 -252 63v199q119 -70 233 -70q60 0 97.5 24.5t37.5 65.5
q0 38 -31.5 62t-86.5 24q-82 0 -131 -24v133l165 131h-264v182h531v-162l-152 -125q189 -53 189 -227q0 -124 -99 -201q-93 -75 -237 -75zM627 0h-246l870 1434h246z" />
    <glyph glyph-name="uni2155" unicode="&#x2155;" horiz-adv-x="1595" 
d="M442 0h-245l870 1434h246zM455 659h-217v553l-205 -100v211l213 111h209v-775zM1198 -16q-132 0 -233 55v203q111 -66 223 -66q137 0 137 92q0 41 -37.5 65.5t-103.5 24.5q-98 0 -197 -30l53 446h451v-182h-289l-6 -74q16 4 39 4q138 0 223.5 -68.5t85.5 -185.5
q0 -139 -100 -211q-101 -73 -246 -73z" />
    <glyph glyph-name="uni2156" unicode="&#x2156;" horiz-adv-x="1779" 
d="M1382 -16q-132 0 -233 55v203q111 -66 223 -66q137 0 137 92q0 41 -37.5 65.5t-103.5 24.5q-98 0 -197 -30l54 446h450v-182h-289l-6 -74q16 4 39 4q138 0 224 -68.5t86 -185.5q0 -138 -101 -211t-246 -73zM659 659h-583v158l211 176q129 108 129 178q0 35 -28 56.5
t-75 21.5q-105 0 -209 -78v218q94 61 228 61q122 0 211 -68q92 -68 92 -182q0 -85 -37 -149t-131 -144l-76 -65h268v-183zM627 0h-246l870 1434h246z" />
    <glyph glyph-name="uni2157" unicode="&#x2157;" horiz-adv-x="1679" 
d="M526 0h-245l870 1434h246zM1282 -16q-132 0 -233 55v203q111 -66 223 -66q137 0 137 92q0 41 -37.5 65.5t-103.5 24.5q-98 0 -197 -30l53 446h451v-182h-289l-6 -74q16 4 39 4q138 0 223.5 -68.5t85.5 -185.5q0 -139 -100 -211q-101 -73 -246 -73zM295 643
q-145 0 -252 64v198q117 -69 233 -69q61 0 98.5 24.5t37.5 65.5q0 38 -31.5 62t-87.5 24q-79 0 -131 -25v133l166 131h-265v183h531v-162l-152 -125q189 -53 189 -227q0 -124 -99 -201q-94 -76 -237 -76z" />
    <glyph glyph-name="uni2158" unicode="&#x2158;" horiz-adv-x="1765" 
d="M616 659h-210v179h-383v153l370 443h223v-428h107v-168h-107v-179zM406 1196l-166 -190h166v190zM1368 -16q-132 0 -233 55v203q111 -66 223 -66q137 0 137 92q0 41 -37.5 65.5t-103.5 24.5q-98 0 -197 -30l53 446h451v-182h-289l-6 -74q16 4 39 4q138 0 223.5 -68.5
t85.5 -185.5q0 -139 -100 -211q-101 -73 -246 -73zM612 0h-245l870 1434h246z" />
    <glyph glyph-name="uni2159" unicode="&#x2159;" horiz-adv-x="1599" 
d="M442 0h-245l870 1434h246zM455 659h-217v553l-205 -100v211l213 111h209v-775zM1253 -16q-156 0 -242.5 98t-86.5 266q-3 84 19.5 161.5t68 141t121 101.5t170.5 39q115 0 188 -48v-192q-70 49 -162 49q-71 0 -121 -36.5t-57 -102.5q56 59 154 59q112 0 181.5 -69.5
t69.5 -186.5q0 -123 -86.5 -201.5t-216.5 -78.5zM1237 160q48 0 76 29t28 75q0 40 -28 68t-74 28q-79 0 -106 -65q0 -64 29.5 -99.5t74.5 -35.5z" />
    <glyph glyph-name="uni215A" unicode="&#x215a;" horiz-adv-x="1677" 
d="M1331 -16q-156 0 -243 98t-87 266q-3 84 19.5 161.5t68 141t121 101.5t170.5 39q116 0 189 -48v-192q-70 49 -162 49q-71 0 -121 -36.5t-57 -102.5q56 59 153 59q112 0 182 -69.5t70 -186.5q0 -123 -86.5 -201.5t-216.5 -78.5zM1315 160q48 0 76 29t28 75q0 40 -28 68
t-74 28q-80 0 -107 -65q0 -63 30 -99t75 -36zM279 643q-133 0 -234 55v203q109 -65 223 -65q138 0 138 92q0 41 -38 65.5t-104 24.5q-94 0 -196 -31l53 447h450v-183h-288l-7 -73q16 4 39 4q138 0 224 -68.5t86 -185.5q0 -138 -101 -211q-103 -74 -245 -74zM520 0h-246
l871 1434h246z" />
    <glyph glyph-name="oneeighth" unicode="&#x215b;" horiz-adv-x="1648" 
d="M442 0h-245l870 1434h246zM455 659h-217v553l-205 -100v211l213 111h209v-775zM952 227q0 59 39.5 111.5t95.5 73.5q-43 20 -70.5 63t-27.5 92q0 98 82.5 161t210.5 63t210.5 -63t82.5 -161q0 -49 -27.5 -92t-70.5 -63q57 -21 96 -73t39 -112q0 -114 -96 -180
q-92 -63 -234 -63q-141 0 -233 63q-97 66 -97 180zM1393 246q0 39 -31 64.5t-80 25.5t-80 -25.5t-31 -64.5q0 -37 31 -61.5t80 -24.5t80 24.5t31 61.5zM1374 543q6 46 -43 65.5t-98 0t-43 -65.5q0 -31 27 -52.5t65 -21.5t65 21.5t27 52.5z" />
    <glyph glyph-name="threeeighths" unicode="&#x215c;" horiz-adv-x="1732" 
d="M526 0h-245l870 1434h246zM1036 227q0 59 39.5 111.5t95.5 73.5q-43 20 -70.5 63t-27.5 92q0 98 82.5 161t210.5 63t210.5 -63t82.5 -161q0 -49 -27.5 -92t-70.5 -63q57 -21 96 -73t39 -112q0 -114 -97 -180q-92 -63 -233 -63t-233 63q-97 66 -97 180zM1477 246
q0 39 -31 64.5t-80 25.5t-80 -25.5t-31 -64.5q0 -37 31 -61.5t80 -24.5t80 24.5t31 61.5zM1458 543q6 46 -43 65.5t-98 0t-43 -65.5q0 -31 27 -52.5t65 -21.5t65 21.5t27 52.5zM295 643q-145 0 -252 64v198q117 -69 233 -69q61 0 98.5 24.5t37.5 65.5q0 38 -31.5 62
t-87.5 24q-79 0 -131 -25v133l166 131h-265v183h531v-162l-152 -125q189 -53 189 -227q0 -124 -99 -201q-94 -76 -237 -76z" />
    <glyph glyph-name="fiveeighths" unicode="&#x215d;" horiz-adv-x="1726" 
d="M1030 227q0 59 39.5 111.5t95.5 73.5q-43 20 -70.5 63t-27.5 92q0 98 82.5 161t210.5 63t210.5 -63t82.5 -161q0 -49 -28 -91.5t-71 -63.5q57 -21 96.5 -73t39.5 -112q0 -114 -97 -180q-92 -63 -233 -63q-142 0 -234 63q-96 66 -96 180zM1470 246q0 39 -30.5 64.5
t-79.5 25.5t-80 -25.5t-31 -64.5q0 -37 31 -61.5t80 -24.5t79.5 24.5t30.5 61.5zM1452 543q6 46 -43 65.5t-98 0t-43 -65.5q0 -31 27 -52.5t65 -21.5t65 21.5t27 52.5zM279 643q-133 0 -234 55v203q109 -65 223 -65q138 0 138 92q0 41 -38 65.5t-104 24.5q-94 0 -196 -31
l53 447h450v-183h-288l-7 -73q16 4 39 4q138 0 224 -68.5t86 -185.5q0 -138 -101 -211q-103 -74 -245 -74zM520 0h-246l871 1434h246z" />
    <glyph glyph-name="seveneighths" unicode="&#x215e;" horiz-adv-x="1619" 
d="M414 0h-246l870 1434h246zM924 227q0 59 39.5 111.5t95.5 73.5q-43 20 -70.5 63t-27.5 92q0 98 82 161t210 63t210.5 -63t82.5 -161q0 -49 -27.5 -92t-70.5 -63q57 -21 96 -73t39 -112q0 -114 -96 -180q-92 -63 -234 -63q-141 0 -233 63q-96 66 -96 180zM1364 246
q0 39 -31 64.5t-80 25.5t-79.5 -25.5t-30.5 -64.5q0 -37 30.5 -61.5t79.5 -24.5t80 24.5t31 61.5zM1346 543q6 46 -43 65.5t-98.5 0t-43.5 -65.5q0 -31 27 -52.5t65 -21.5t65.5 21.5t27.5 52.5zM317 659h-235l301 592h-344v183h590v-170z" />
    <glyph glyph-name="uni215F" unicode="&#x215f;" horiz-adv-x="950" 
d="M455 659h-217v553l-205 -100v211l213 111h209v-775zM442 0h-245l870 1434h246z" />
    <glyph glyph-name="arrowleft" unicode="&#x2190;" horiz-adv-x="1433" 
d="M463 1016h342l-287 -328h803v-282h-803l287 -330h-342l-395 471z" />
    <glyph glyph-name="arrowup" unicode="&#x2191;" horiz-adv-x="1165" 
d="M440 0v803l-327 -287v342l469 395l471 -395v-342l-330 287v-803h-283z" />
    <glyph glyph-name="arrowright" unicode="&#x2192;" horiz-adv-x="1433" 
d="M113 688h802l-286 328h342l395 -469l-395 -471h-342l286 330h-802v282z" />
    <glyph glyph-name="arrowdown" unicode="&#x2193;" horiz-adv-x="1165" 
d="M725 1217v-803l328 286v-342l-469 -395l-471 395v342l329 -286v803h283z" />
    <glyph glyph-name="partialdiff" unicode="&#x2202;" horiz-adv-x="1253" 
d="M549 -27q-214 0 -352 129q-138 132 -138 340q0 210 136 355q139 145 352 145q206 0 319 -162q0 173 -90 301q-88 125 -262 125q-148 0 -281 -80v248q134 88 326 88q273 0 436 -196q164 -194 164 -527q1 -118 -20 -226.5t-68 -208t-116.5 -172.5t-173.5 -116.5t-232 -42.5
zM575 217q114 0 190.5 86t88.5 232q-31 80 -96 127t-146 47q-103 0 -184 -72q-78 -72 -78 -188q0 -104 61.5 -168t163.5 -64z" />
    <glyph glyph-name="increment" unicode="&#x2206;" horiz-adv-x="1599" 
d="M1579 0h-1559l603 1434h354zM797 973l-258 -649h516z" />
    <glyph glyph-name="product" unicode="&#x220f;" horiz-adv-x="1607" 
d="M600 -281h-293v1461h-256v254h1505v-254h-256v-1461h-292v1461h-408v-1461z" />
    <glyph glyph-name="summation" unicode="&#x2211;" horiz-adv-x="1298" 
d="M1227 0h-1155v262l434 455l-414 457v260h1116v-324h-600l283 -322v-141l-303 -323h639v-324z" />
    <glyph glyph-name="minus" unicode="&#x2212;" horiz-adv-x="1562" 
d="M1430 514h-1297v320h1297v-320z" />
    <glyph glyph-name="uni2215" unicode="&#x2215;" horiz-adv-x="1138" 
d="M256 0h-246l871 1434h245z" />
    <glyph glyph-name="uni2219" unicode="&#x2219;" horiz-adv-x="532" 
d="M51 575q0 87 62 152q64 64 153 64q91 0 152 -64q63 -63 63 -152q0 -91 -62 -154t-153 -63t-153 63t-62 154z" />
    <glyph glyph-name="radical" unicode="&#x221a;" horiz-adv-x="1556" 
d="M936 0h-268l-353 786h-284v254h475l299 -684l442 1078h285z" />
    <glyph glyph-name="infinity" unicode="&#x221e;" horiz-adv-x="1652" 
d="M457 193q-157 0 -281 106q-125 107 -125 311q0 188 127 297q130 109 281 109q227 0 368 -199q54 85 152.5 142t218.5 57q171 0 287 -119q117 -117 117 -287q0 -185 -119 -301q-116 -116 -285 -116q-108 0 -207 50t-166 146q-144 -196 -368 -196zM489 449q58 0 110 43
t89 114q-100 154 -203 154q-61 0 -104 -45.5t-43 -106.5q0 -65 43 -112t108 -47zM1169 449q65 0 105.5 46.5t40.5 114.5q0 63 -42 105.5t-108 42.5q-113 0 -200 -152q77 -157 204 -157z" />
    <glyph glyph-name="integral" unicode="&#x222b;" horiz-adv-x="1067" 
d="M49 -422q-125 0 -209 41v283q70 -25 133 -25q86 0 141 57t72 162l152 926q27 184 154 311q126 129 344 129q118 0 211 -41v-282q-68 24 -134 24q-179 0 -217 -219l-149 -926q-27 -184 -154 -311q-126 -129 -344 -129z" />
    <glyph glyph-name="approxequal" unicode="&#x2248;" horiz-adv-x="1339" 
d="M950 668q-106 0 -280 55q-171 57 -283 57q-161 0 -254 -96v322q31 39 103 64.5t151 25.5q109 0 283 -58q171 -57 280 -57q162 0 256 98v-323q-33 -39 -104 -63.5t-152 -24.5zM950 197q-106 0 -280 55q-171 57 -283 57q-161 0 -254 -96v322q31 39 103 64.5t151 25.5
q109 0 283 -58q171 -57 280 -57q162 0 256 98v-323q-33 -39 -104 -63.5t-152 -24.5z" />
    <glyph glyph-name="notequal" unicode="&#x2260;" horiz-adv-x="1339" 
d="M520 76h-317l106 205h-176v323h346l76 141h-422v324h592l94 180h318l-95 -180h164v-324h-334l-75 -141h409v-323h-579z" />
    <glyph glyph-name="lessequal" unicode="&#x2264;" horiz-adv-x="1339" 
d="M1206 729v-362l-1073 378v310l1073 379v-361l-710 -172zM1206 0h-1073v324h1073v-324z" />
    <glyph glyph-name="greaterequal" unicode="&#x2265;" horiz-adv-x="1339" 
d="M1206 745l-1073 -378v362l711 172l-711 172v361l1073 -379v-310zM1206 0h-1073v324h1073v-324z" />
    <glyph glyph-name="dotmath" unicode="&#x22c5;" horiz-adv-x="573" 
d="M438 649q-60 -63 -151 -63t-154 63q-61 64 -61 154t61 151q64 64 154 64t151 -64q64 -61 64 -151t-64 -154z" />
    <glyph glyph-name="lozenge" unicode="&#x25ca;" horiz-adv-x="1163" 
d="M733 0h-303l-379 717l379 717h303l379 -717zM350 717l236 -469l233 469l-233 469z" />
    <glyph glyph-name="uniF401" unicode="&#xf401;" horiz-adv-x="20" 
d="M-719 1556h-301l195 312h428z" />
    <glyph glyph-name="uniF639" unicode="&#xf639;" 
d="M676 -29q-191 0 -330 109q-136 106 -203 270t-67 367q0 194 65 362q64 164 205 275q138 108 330 108q129 2 237 -48.5t177.5 -137t118 -199t59 -237t0 -248.5t-59 -236.5t-118 -199t-177.5 -137t-237 -48.5zM502 428q58 -119 174 -119t174 117q57 117 57 291
q0 175 -57 289q-58 118 -174 118t-174 -118q-58 -119 -58 -289t58 -289z" />
    <glyph glyph-name="uniF63A" unicode="&#xf63a;" 
d="M1192 0h-1040v266l387 344q135 122 187 198.5t52 154.5q0 73 -56 117t-147 44q-191 0 -374 -151v368q174 121 413 121q215 0 373 -125q160 -124 160 -329q0 -150 -68 -271q-65 -117 -235 -268l-174 -156h522v-313z" />
    <glyph glyph-name="uniF63B" unicode="&#xf63b;" 
d="M166 90v342q210 -137 428 -137q107 0 175.5 51.5t68.5 140.5q0 81 -63 133t-167 52q-127 0 -225 -49v239l303 262h-481v310h936v-277l-279 -246q112 -27 219 -120q59 -51 93 -130.5t34 -173.5q0 -238 -172 -376q-172 -140 -424 -140q-254 0 -446 119z" />
    <glyph glyph-name="uniF63C" unicode="&#xf63c;" 
d="M1085 0h-358v340h-690v258l684 836h364v-807h199v-287h-199v-340zM727 987l-301 -360h301v360z" />
    <glyph glyph-name="uniF63D" unicode="&#xf63d;" 
d="M582 -29q-236 0 -416 103v342q195 -121 397 -121q119 0 191.5 48t72.5 144q0 89 -72 141t-200 52q-149 0 -344 -66l94 820h795v-314h-522l-19 -157q44 8 88 8q241 0 395 -133q156 -132 156 -351q0 -248 -178 -383q-180 -133 -438 -133z" />
    <glyph glyph-name="uniF63E" unicode="&#xf63e;" 
d="M700 -29q-279 0 -432 181q-153 182 -153 491q0 325 157 561q81 121 215 189.5t301 68.5q189 0 334 -92v-326q-133 95 -291 95q-140 0 -232.5 -82.5t-104.5 -212.5q115 112 288 112q196 0 326 -127q129 -126 129 -344q0 -227 -154 -372q-151 -142 -383 -142zM678 279
q86 0 139 54t53 142q0 86 -53 143.5t-137 57.5q-133 0 -203 -125q0 -129 54.5 -200.5t146.5 -71.5z" />
    <glyph glyph-name="uniF63F" unicode="&#xf63f;" 
d="M623 0h-392l553 1112h-632v322h1046v-287z" />
    <glyph glyph-name="uniF640" unicode="&#xf640;" 
d="M999 762q111 -39 183.5 -136t72.5 -212q0 -209 -170 -326q-169 -117 -413 -117q-246 0 -416 117q-168 116 -168 326q0 115 72.5 212t183.5 136q-85 37 -139.5 118.5t-54.5 174.5q0 181 147 295q147 112 375 112t372 -112q150 -114 150 -295q0 -93 -55 -174.5t-140 -118.5
zM795 1118q-49 41 -123 41t-125 -41q-49 -41 -49 -102.5t49 -102.5q51 -38 124.5 -38t123.5 38q51 41 51 102.5t-51 102.5zM881 444q0 72 -59.5 120t-149.5 48t-149.5 -48t-59.5 -120q0 -70 59.5 -117.5t149.5 -47.5t149.5 47.5t59.5 117.5z" />
    <glyph glyph-name="uniF641" unicode="&#xf641;" 
d="M563 -29q-189 0 -334 92v326q131 -94 291 -94q140 0 233 82.5t105 212.5q-116 -113 -289 -113q-195 0 -325 127q-129 126 -129 344q0 229 151 371q152 143 385 143q279 0 432 -182q154 -183 154 -489q0 -326 -160 -564q-80 -119 -213.5 -187.5t-300.5 -68.5zM672 758
q132 0 202 125q0 129 -54 200.5t-146 71.5q-86 0 -139.5 -54.5t-53.5 -142.5q0 -86 53.5 -143t137.5 -57z" />
    <glyph glyph-name="uniF643" unicode="&#xf643;" 
d="M905 520q0 101 -65 169.5t-164 68.5t-164.5 -68.5t-65.5 -169.5q0 -103 65 -170t165 -67t164.5 67t64.5 170zM1096 129q-167 -156 -420 -156q-254 0 -420 156t-166 391q0 233 166 389q169 158 420 158t420 -158q166 -156 166 -389q0 -235 -166 -391z" />
    <glyph glyph-name="uniF644" unicode="&#xf644;" 
d="M1251 0h-1030v311h348v340l-293 -135v354l336 170h320v-729h319v-311z" />
    <glyph glyph-name="uniF645" unicode="&#xf645;" 
d="M1180 0h-1012v268q270 136 422 224q126 75 155 112q21 27 21 53q0 82 -137 82q-187 0 -416 -137v336q209 129 451 129q203 0 337 -96t134 -269q0 -145 -111 -247q-109 -100 -260 -144h416v-311z" />
    <glyph glyph-name="uniF646" unicode="&#xf646;" 
d="M141 -303v342q210 -137 428 -137q107 0 175.5 51.5t68.5 140.5q0 81 -62.5 133t-166.5 52q-126 0 -226 -50v240l304 262h-482v309h936v-276l-278 -246q111 -27 219 -121q59 -51 93 -130t34 -173q0 -239 -172 -377q-171 -139 -424 -139q-255 0 -447 119z" />
    <glyph glyph-name="uniF647" unicode="&#xf647;" 
d="M1085 -410h-368v410h-680v258l684 782h364v-753h199v-287h-199v-410zM717 616l-293 -329h293v329z" />
    <glyph glyph-name="uniF648" unicode="&#xf648;" 
d="M571 -422q-232 0 -415 103v342q195 -121 397 -121q119 0 191.5 48t72.5 144q0 89 -72 141t-200 52q-149 0 -344 -66l94 819h795v-313h-523l-18 -158q49 9 88 9q240 0 395 -134q156 -132 156 -350q0 -249 -178 -381q-178 -135 -439 -135z" />
    <glyph glyph-name="uniF649" unicode="&#xf649;" 
d="M700 -29q-279 0 -432 181q-153 182 -153 491q0 325 157 561q81 121 215 189.5t301 68.5q189 0 334 -92v-326q-133 95 -291 95q-140 0 -232.5 -82.5t-104.5 -212.5q115 112 288 112q196 0 326 -127q129 -126 129 -344q0 -227 -154 -372q-151 -142 -383 -142zM678 279
q86 0 139 54t53 142q0 86 -53 143.5t-137 57.5q-133 0 -203 -125q0 -129 54.5 -200.5t146.5 -71.5z" />
    <glyph glyph-name="uniF64A" unicode="&#xf64a;" 
d="M623 -410h-392l553 1129h-632v321h1046v-286z" />
    <glyph glyph-name="uniF64B" unicode="&#xf64b;" 
d="M999 762q111 -39 183.5 -136t72.5 -212q0 -209 -170 -326q-169 -117 -413 -117q-246 0 -416 117q-168 116 -168 326q0 115 72.5 212t183.5 136q-85 37 -139.5 118.5t-54.5 174.5q0 181 147 295q147 112 375 112t372 -112q150 -114 150 -295q0 -93 -55 -174.5t-140 -118.5
zM795 1118q-49 41 -123 41t-125 -41q-49 -41 -49 -102.5t49 -102.5q51 -38 124.5 -38t123.5 38q51 41 51 102.5t-51 102.5zM881 444q0 72 -59.5 120t-149.5 48t-149.5 -48t-59.5 -120q0 -70 59.5 -117.5t149.5 -47.5t149.5 47.5t59.5 117.5z" />
    <glyph glyph-name="uniF64C" unicode="&#xf64c;" 
d="M563 -424q-189 0 -334 92v326q131 -94 291 -94q140 0 233 82.5t105 212.5q-116 -113 -289 -113q-195 0 -325 127q-129 126 -129 344q0 229 151 371q152 143 385 143q279 0 432 -182q154 -183 154 -490q0 -326 -160 -561q-79 -121 -213 -189.5t-301 -68.5zM672 362
q132 0 202 125q0 129 -54 201t-146 72q-86 0 -139.5 -54.5t-53.5 -142.5q0 -86 53.5 -143.5t137.5 -57.5z" />
    <glyph glyph-name="uniF64E" unicode="&#xf64e;" horiz-adv-x="1179" 
d="M723 -27q-186 0 -344 103q-153 102 -205 286h-156v127h136v70h-136v127h158q52 179 205 281q153 100 342 100q164 0 305 -66v-270q-115 53 -242 53q-151 0 -233 -98h272v-127h-325q-2 -8 -2 -39v-31h327v-127h-278q81 -106 239 -106q138 0 261 63v-272q-151 -74 -324 -74
z" />
    <glyph glyph-name="uniF653" unicode="&#xf653;" horiz-adv-x="1050" 
d="M653 -240h-245v217q-212 15 -332 89v305q63 -46 180 -80q112 -33 244 -33q127 0 127 51q0 23 -23.5 36t-89.5 32q-90 24 -168 49q-158 47 -219 114.5t-61 194.5q0 129 89 213t253 109v221h245v-219q166 -21 283 -90v-295q-178 112 -379 112q-117 0 -117 -53
q0 -36 103 -63l80 -21l90 -20q147 -43 212.5 -119t65.5 -201t-89.5 -211t-248.5 -112v-226z" />
    <glyph glyph-name="commaaccent" unicode="&#xf6c3;" horiz-adv-x="497" 
d="M305 -594h-266l123 447h315z" />
    <glyph glyph-name="cyrbreve" unicode="&#xf6d4;" horiz-adv-x="856" 
d="M92 1489h248q2 -60 38 -94.5t99 -34.5t99 34.5t38 94.5h252q-3 -171 -112 -264q-111 -97 -275 -97q-162 0 -276 97q-108 95 -111 264z" />
    <glyph glyph-name="uniF6DC" unicode="&#xf6dc;" 
d="M1221 0h-1041v313h348v731l-292 -135v355l335 170h320v-1121h330v-313z" />
    <glyph glyph-name="uniF721" unicode="&#xf721;" horiz-adv-x="1185" 
d="M958 688h91v-127h-938v127h503q56 15 56 62q0 63 -158 63q-163 0 -311 -53v252q148 59 342 59q158 0 286 -51q76 -27 121 -88t45 -144q0 -63 -37 -100zM205 365h-94v127h938v-127h-498q-57 -15 -57 -68q0 -68 170 -68q166 0 321 58v-254q-154 -60 -352 -60
q-146 0 -295 50q-78 30 -124 90.5t-46 142.5q0 69 37 109z" />
    <glyph glyph-name="uniF722" unicode="&#xf722;" horiz-adv-x="1288" 
d="M575 0h-346v119h-186v102h186v78h-186v217h186v524h553q202 0 310 -108q110 -107 110 -264q0 -169 -119.5 -269t-318.5 -100h-189v-78h304v-102h-304v-119zM575 786v-270h140q78 0 123 37t45 100t-45 98t-123 35h-140z" />
    <glyph glyph-name="uniF725" unicode="&#xf725;" horiz-adv-x="1175" 
d="M1071 0h-950v252h53q102 0 102 96v70h-155v184h155v92q0 171 128.5 272t345.5 101q168 0 284 -45v-285q-125 45 -219 45q-100 0 -146 -36t-46 -115v-29h333v-184h-333v-70q0 -31 -13 -54.5t-24.5 -31.5t-18.5 -10h504v-252z" />
    <glyph glyph-name="uniF727" unicode="&#xf727;" horiz-adv-x="1366" 
d="M856 0h-346v238h-293v127h293v69h-293v127h217l-350 479h373l229 -352l234 352h364l-358 -479h223v-127h-293v-69h293v-127h-293v-238z" />
    <glyph glyph-name="uniF730" unicode="&#xf730;" horiz-adv-x="1290" 
d="M874 520q0 101 -65 169.5t-164 68.5t-164 -68.5t-65 -169.5q0 -103 64.5 -170t164.5 -67t164.5 67t64.5 170zM1065 129q-167 -156 -420 -156t-420 156q-166 156 -166 391q0 233 166 389q169 158 420 158t420 -158q166 -156 166 -389q0 -235 -166 -391z" />
    <glyph glyph-name="uniF731" unicode="&#xf731;" horiz-adv-x="829" 
d="M705 0h-363v651l-293 -135v354l336 170h320v-1040z" />
    <glyph glyph-name="uniF732" unicode="&#xf732;" horiz-adv-x="1187" 
d="M1090 0h-1012v268q270 136 422 224q126 75 155 112q21 27 21 53q0 82 -137 82q-187 0 -416 -137v336q208 129 450 129q204 0 338 -96q133 -95 133 -269q0 -146 -110 -247q-109 -100 -260 -144h416v-311z" />
    <glyph glyph-name="uniF733" unicode="&#xf733;" horiz-adv-x="1179" 
d="M57 -303v342q210 -137 428 -137q107 0 175.5 51.5t68.5 140.5q0 81 -62.5 133t-166.5 52q-126 0 -226 -50v240l304 262h-482v309h936v-276l-278 -246q111 -27 219 -121q59 -51 93 -130t34 -173q0 -239 -172 -377q-171 -139 -424 -139q-255 0 -447 119z" />
    <glyph glyph-name="uniF734" unicode="&#xf734;" horiz-adv-x="1325" 
d="M1085 -410h-368v410h-680v258l684 782h364v-753h199v-287h-199v-410zM717 616l-293 -329h293v329z" />
    <glyph glyph-name="uniF735" unicode="&#xf735;" horiz-adv-x="1153" 
d="M473 -422q-233 0 -416 103v342q195 -121 398 -121q119 0 191.5 48t72.5 144q0 89 -72.5 141t-200.5 52q-149 0 -344 -66l95 819h794v-313h-522l-18 -158q49 9 88 9q240 0 395 -134q156 -132 156 -350q0 -249 -179 -381q-179 -135 -438 -135z" />
    <glyph glyph-name="uniF736" unicode="&#xf736;" horiz-adv-x="1308" 
d="M682 -29q-279 0 -432 181q-154 183 -154 491q0 324 158 561q81 121 215 189.5t301 68.5q189 0 334 -92v-326q-133 95 -291 95q-140 0 -233 -82.5t-105 -212.5q115 112 289 112q196 0 326 -127q129 -126 129 -344q0 -227 -154 -372q-151 -142 -383 -142zM659 279
q86 0 139.5 54t53.5 142q0 86 -53 143.5t-137 57.5q-133 0 -203 -125q0 -129 54 -200.5t146 -71.5z" />
    <glyph glyph-name="uniF737" unicode="&#xf737;" horiz-adv-x="1181" 
d="M535 -410h-392l553 1129h-633v321h1047v-286z" />
    <glyph glyph-name="uniF738" unicode="&#xf738;" horiz-adv-x="1302" 
d="M975 762q111 -39 183.5 -136t72.5 -212q0 -209 -170 -326q-169 -117 -414 -117q-247 0 -416 117q-168 116 -168 326q0 115 72.5 212t183.5 136q-85 37 -139.5 118.5t-54.5 174.5q0 181 147 295q147 112 375 112q229 0 373 -112q149 -113 149 -295q0 -93 -54.5 -174.5
t-139.5 -118.5zM770 1118q-49 41 -123 41t-125 -41q-50 -41 -50 -102.5t50 -102.5q51 -38 124.5 -38t123.5 38q51 41 51 102.5t-51 102.5zM856 444q0 72 -59.5 120t-149.5 48t-149.5 -48t-59.5 -120q0 -70 59.5 -117.5t149.5 -47.5t149.5 47.5t59.5 117.5z" />
    <glyph glyph-name="uniF739" unicode="&#xf739;" horiz-adv-x="1308" 
d="M539 -424q-189 0 -334 92v326q131 -94 291 -94q140 0 233 82.5t105 212.5q-116 -113 -289 -113q-196 0 -326 127q-129 126 -129 344q0 228 152 371t385 143q279 0 432 -182q153 -181 153 -490q0 -327 -159 -561q-79 -121 -213 -189.5t-301 -68.5zM647 362q133 0 203 125
q0 129 -54.5 201t-146.5 72q-86 0 -139 -54.5t-53 -142.5q0 -86 53 -143.5t137 -57.5z" />
    <glyph glyph-name="NULL" horiz-adv-x="0" 
 />
    <glyph glyph-name="CR" horiz-adv-x="681" 
 />
    <glyph glyph-name="adieresis.alt" horiz-adv-x="1333" 
d="M535 -27q-205 0 -340 156q-136 157 -136 391q0 232 136 389q137 158 340 158q201 0 311 -143v116h362v-1040h-362v117q-108 -144 -311 -144zM639 281q137 0 207 110v258q-70 111 -207 111q-96 0 -157.5 -68t-61.5 -172q0 -103 61.5 -171t157.5 -68zM426 1159
q-72 0 -125 52.5t-53 125.5t52 124.5t126 51.5q75 0 126.5 -51t51.5 -125t-51.5 -126t-126.5 -52zM1016 1210q-51 -51 -124.5 -51t-127.5 51q-51 54 -51 127.5t51 124.5q54 51 127.5 51t124.5 -51q54 -51 54 -124.5t-54 -127.5z" />
    <glyph glyph-name="cyrbreve.cap" horiz-adv-x="1290" 
d="M129 1868h248q2 -60 38 -94.5t99 -34.5t99 34.5t38 94.5h252q-3 -171 -112 -264q-111 -97 -275 -97q-162 0 -276 97q-108 94 -111 264z" />
    <glyph glyph-name="idieresis_idieresis" horiz-adv-x="1138" 
d="M55 1159q-72 0 -125 52.5t-53 125.5t52 124.5t126 51.5q75 0 126.5 -51t51.5 -125t-51.5 -126t-126.5 -52zM1208 1210q-51 -51 -124.5 -51t-127.5 51q-51 54 -51 127.5t51 124.5q54 51 127.5 51t124.5 -51q54 -51 54 -124.5t-54 -127.5zM694 1210q-51 -51 -124.5 -51
t-127.5 51q-51 54 -51 127.5t51 124.5q54 51 127.5 51t124.5 -51q54 -51 54 -124.5t-54 -127.5zM1028 0h-362v1040h362v-1040zM465 0h-363v1040h363v-1040z" />
    <glyph glyph-name="peseta.mono" 
d="M479 0h-368v846h-185v268h185v320h639q194 0 327 -86t176 -234h162v-268h-166q-45 -144 -177 -227.5t-322 -83.5h-271v-535zM479 1122v-284h244q80 0 128 38t48 105t-47 104t-129 37h-244z" />
    <glyph glyph-name="lira.mono" 
d="M1221 0h-1088v324h62q116 0 116 131v10h-178v168h178v80h-178v168h178v80q0 232 146 366q147 135 397 135q191 0 326 -63v-338q-143 61 -265 61q-235 0 -235 -213v-28h389v-168h-389v-80h389v-168h-389v-12q0 -40 -15 -74t-34 -45l-15 -10h605v-324z" />
    <glyph glyph-name="pesolow" horiz-adv-x="1361" 
d="M1329 748v-185h-166q-32 -130 -147.5 -204t-286.5 -74h-192v-285h-363v563h-164v185h164v292h574q169 0 278 -79.5t139 -212.5h164zM672 774h-135v-235h135q66 0 103.5 31.5t37.5 86.5t-37.5 86t-103.5 31z" />
    <glyph glyph-name="franclow" horiz-adv-x="1101" 
d="M500 0h-346v119h-131v102h131v819h893v-282h-547v-162h399v-264h-399v-111h213v-102h-213v-119z" />
    <glyph glyph-name="liralow" horiz-adv-x="1175" 
d="M1071 0h-950v252h53q102 0 102 96v4h-155v127h155v70h-155v127h155v18q0 171 128.5 272t345.5 101q168 0 284 -45v-285q-125 45 -219 45q-167 0 -188 -106h299v-127h-303v-70h303v-127h-303v-4q0 -31 -12.5 -54t-24 -31.5t-19.5 -10.5h504v-252z" />
    <glyph glyph-name="uni20B6.mono" 
d="M588 0h-369v174h-237v254h237v107h-237v253h237v646h639q241 0 381 -125q141 -126 141 -324q0 -200 -141 -326q-139 -124 -381 -124h-270v-107h479v-254h-479v-174zM588 1122v-334h213q95 0 151 44.5t56 123.5q0 77 -56 121.5t-151 44.5h-213z" />
    <glyph glyph-name="liralow.mono" 
d="M1133 0h-951v252h54q102 0 102 96v4h-156v127h156v70h-156v127h156v18q0 172 128 272.5t345 100.5q169 0 285 -45v-285q-125 45 -219 45q-168 0 -189 -106h299v-127h-303v-70h303v-127h-303v-4q0 -31 -12.5 -54t-24 -31.5t-18.5 -10.5h504v-252z" />
    <glyph glyph-name="franclow.mono" 
d="M602 0h-346v119h-131v102h131v819h893v-282h-547v-162h399v-264h-399v-111h213v-102h-213v-119z" />
    <glyph glyph-name="aacute.alt" horiz-adv-x="1333" 
d="M535 -27q-205 0 -340 156q-136 157 -136 391q0 232 136 389q137 158 340 158q201 0 311 -143v116h362v-1040h-362v117q-108 -144 -311 -144zM639 281q137 0 207 110v258q-70 111 -207 111q-96 0 -157.5 -68t-61.5 -172q0 -103 61.5 -171t157.5 -68zM713 1180h-301
l194 311h428z" />
    <glyph glyph-name="pesolow.mono" 
d="M1319 748v-185h-166q-32 -130 -147.5 -204t-286.5 -74h-193v-285h-362v563h-164v185h164v292h573q169 0 278.5 -79.5t139.5 -212.5h164zM662 774h-136v-235h136q66 0 103.5 31.5t37.5 86.5t-37.5 86t-103.5 31z" />
    <glyph glyph-name="uniF722.mono" 
d="M627 0h-346v119h-187v102h187v78h-187v217h187v524h553q201 0 309 -108q110 -107 110 -264q0 -169 -119.5 -269t-318.5 -100h-188v-78h303v-102h-303v-119zM627 786v-270h139q78 0 123 37t45 100t-45 98t-123 35h-139z" />
    <glyph glyph-name="threequarters.mono" horiz-adv-x="1751" 
d="M557 0h-246l871 1434h245zM1563 0h-211v178h-383v154l370 442h224v-428h106v-168h-106v-178zM1352 537l-166 -191h166v191zM326 643q-145 0 -252 64v198q117 -69 233 -69q60 0 97.5 24.5t37.5 65.5q0 38 -31.5 62t-86.5 24q-79 0 -131 -25v133l165 131h-264v183h531v-162
l-152 -125q189 -53 189 -227q0 -124 -99 -201q-94 -76 -237 -76z" />
    <glyph glyph-name="franc.mono" 
d="M565 0h-368v174h-197v254h197v1006h1089v-324h-721v-209h539v-311h-539v-162h281v-254h-281v-174z" />
    <glyph glyph-name="uniF727.mono" 
d="M848 0h-346v238h-293v127h293v69h-293v127h217l-350 479h373l229 -352l233 352h365l-358 -479h223v-127h-293v-69h293v-127h-293v-238z" />
    <glyph glyph-name="circumflex.cap" horiz-adv-x="1048" 
d="M389 1559h-301l260 309h342l254 -309h-307l-125 141z" />
    <glyph glyph-name="dieresis.cap" horiz-adv-x="1005" 
d="M270 1536q-72 0 -125 52.5t-53 125.5t52 124.5t126 51.5q75 0 127 -51t52 -125t-52 -126t-127 -52zM860 1587q-51 -51 -124.5 -51t-127.5 51q-51 54 -51 127.5t51 124.5q54 51 127.5 51t124.5 -51q54 -51 54 -124.5t-54 -127.5z" />
    <glyph glyph-name="macron.cap" horiz-adv-x="1122" 
d="M889 1589h-684v238h684v-238z" />
    <glyph glyph-name="acute.cap" horiz-adv-x="876" 
d="M463 1556h-301l194 312h428z" />
    <glyph glyph-name="grave.cap" horiz-adv-x="1024" 
d="M778 1556h-301l-321 312h428z" />
    <glyph glyph-name="g.alt" horiz-adv-x="1243" 
d="M20 63q0 33 3 48h368q-6 -21 -6 -48q0 -76 56 -128t141 -52q84 0 139 52t55 128q0 93 -74 146q-72 -10 -120 -10q-217 0 -355 123q-139 127 -139 311q0 185 139 309q137 125 355 125q185 0 319 -98l291 98v-285l-131 -47q14 -55 14 -102q0 -127 -76 -240
q144 -132 144 -330q0 -207 -160 -346q-157 -139 -401 -139t-404 139q-158 140 -158 346zM467 524q44 -43 114 -43t113 43q44 43 44 108.5t-44 106.5q-43 43 -113 43t-114 -43q-43 -41 -43 -106.5t43 -108.5z" />
    <glyph glyph-name="onehalf.mono" horiz-adv-x="1751" 
d="M1653 0h-584v158l211 176q129 108 129 178q0 35 -27.5 56.5t-74.5 21.5q-105 0 -209 -78v217q95 62 227 62q122 0 211 -68q92 -68 92 -182q0 -85 -37 -149t-131 -144l-76 -66h269v-182zM522 659h-217v553l-205 -100v211l213 111h209v-775zM508 0h-246l871 1434h245z" />
    <glyph glyph-name="agrave.alt" horiz-adv-x="1333" 
d="M535 -27q-205 0 -340 156q-136 157 -136 391q0 232 136 389q137 158 340 158q201 0 311 -143v116h362v-1040h-362v117q-108 -144 -311 -144zM639 281q137 0 207 110v258q-70 111 -207 111q-96 0 -157.5 -68t-61.5 -172q0 -103 61.5 -171t157.5 -68zM879 1180h-301
l-322 311h428z" />
    <glyph glyph-name="uniF64E.mono" 
d="M825 -27q-186 0 -344 103q-153 102 -205 286h-155v127h135v70h-135v127h158q52 180 204 281q153 100 342 100q164 0 305 -66v-270q-115 53 -241 53q-152 0 -234 -98h273v-127h-326q-2 -8 -2 -39v-31h328v-127h-279q81 -106 240 -106q137 0 260 63v-272q-151 -74 -324 -74
z" />
    <glyph glyph-name="threeeighths.mono" horiz-adv-x="1839" 
d="M571 0h-245l870 1434h246zM1081 227q0 59 39.5 111.5t96.5 73.5q-43 21 -71 63.5t-28 91.5q0 98 82.5 161t210.5 63t210.5 -63t82.5 -161q0 -49 -27.5 -92t-70.5 -63q57 -21 96 -73t39 -112q0 -114 -96 -180q-92 -63 -234 -63q-141 0 -233 63q-97 66 -97 180zM1522 246
q0 39 -31 64.5t-80 25.5t-80 -25.5t-31 -64.5q0 -37 31 -61.5t80 -24.5t80 24.5t31 61.5zM1503 543q6 46 -43 65.5t-98 0t-43 -65.5q0 -31 27 -52.5t65 -21.5t65 21.5t27 52.5zM340 643q-145 0 -252 64v198q117 -69 234 -69q60 0 97.5 24.5t37.5 65.5q0 38 -31.5 62
t-87.5 24q-79 0 -131 -25v133l166 131h-264v183h530v-162l-152 -125q189 -53 189 -227q0 -125 -98 -201q-94 -76 -238 -76z" />
    <glyph glyph-name="uniF653.mono" 
d="M817 -240h-246v217q-211 15 -331 89v305q63 -46 180 -80q112 -33 244 -33q127 0 127 51q0 23 -23.5 36t-89.5 32q-90 24 -168 49q-158 47 -219.5 114.5t-61.5 194.5q0 129 89 213t253 109v221h246v-219q166 -21 283 -90v-295q-178 112 -379 112q-117 0 -117 -53
q0 -36 103 -63l79 -21l91 -20q147 -43 212.5 -119t65.5 -201t-89.5 -211t-248.5 -112v-226z" />
    <glyph glyph-name="seveneighths.mono" horiz-adv-x="1839" 
d="M530 0h-245l870 1434h246zM1040 227q0 59 39.5 111.5t96.5 73.5q-43 21 -71 63.5t-28 91.5q0 98 82.5 161t210.5 63t210.5 -63t82.5 -161q0 -49 -27.5 -92t-70.5 -63q57 -21 96 -73t39 -112q0 -114 -96 -180q-92 -63 -234 -63q-141 0 -233 63q-97 66 -97 180zM1481 246
q0 39 -31 64.5t-80 25.5t-79.5 -25.5t-30.5 -64.5q0 -37 30.5 -61.5t79.5 -24.5t80 24.5t31 61.5zM1462 543q6 46 -43 65.5t-98 0t-43 -65.5q0 -31 27 -52.5t65 -21.5t65 21.5t27 52.5zM434 659h-235l301 592h-344v183h589v-170z" />
    <glyph glyph-name="ring.cap" horiz-adv-x="1058" 
d="M725 1714q0 -88 -63.5 -151.5t-151.5 -63.5t-152.5 63.5t-64.5 151.5q0 89 63 152q65 65 154 65t152 -63t63 -154zM600 1714q3 56 -43.5 79.5t-93.5 0t-45 -79.5q0 -37 27.5 -63.5t64.5 -26.5t63.5 26.5t26.5 63.5z" />
    <glyph glyph-name="caron.cap" horiz-adv-x="1114" 
d="M725 1559h-342l-254 309h307l125 -142l123 142h301z" />
    <glyph glyph-name="dotaccent.cap" horiz-adv-x="788" 
d="M377 1536q-72 0 -125 52.5t-53 125.5t52 124.5t126 51.5q75 0 126.5 -51t51.5 -125t-51.5 -126t-126.5 -52z" />
    <glyph glyph-name="breve.cap" horiz-adv-x="1044" 
d="M152 1876h229q6 -62 42.5 -99.5t92.5 -37.5q57 0 92.5 37.5t40.5 99.5h230q-6 -161 -107 -255.5t-256 -94.5q-150 0 -256 92q-102 94 -108 258z" />
    <glyph glyph-name="hungarumlaut.cap" horiz-adv-x="1370" 
d="M399 1556h-307l195 312h434zM956 1556h-307l195 312h434z" />
    <glyph glyph-name="dollar.mono" 
d="M829 -219h-315v199q-247 27 -416 145v377q86 -80 246 -140q152 -57 295 -57q219 0 219 113q0 29 -13 46.5t-42 37.5q-14 12 -92 37l-129 39l-105 30l-94 37q-56 22 -94 45q-110 83 -139 131q-52 98 -52 211q0 172 109.5 280t306.5 138v203h315v-205q164 -27 318 -105
v-354q-91 56 -227 98q-134 41 -254 41q-189 0 -189 -94q0 -40 60 -65l65 -23q23 -7 96.5 -28t100.5 -29q205 -67 323 -170q117 -102 117 -287q0 -170 -111 -287.5t-299 -154.5v-209z" />
    <glyph glyph-name="yen.mono" 
d="M860 0h-368v252h-388v225h388v123h-388v225h297l-430 609h389l320 -484l321 484h379l-434 -609h301v-225h-387v-123h387v-225h-387v-252z" />
    <glyph glyph-name="sterling.mono" 
d="M1221 0h-1088v324h62q116 0 116 131v110h-178v269h178v127q0 232 146 366q147 135 397 135q191 0 326 -63v-338q-143 61 -265 61q-235 0 -235 -213v-75h410v-269h-410v-112q0 -40 -15 -74t-34 -45l-15 -10h605v-324z" />
    <glyph glyph-name="onethird.mono" horiz-adv-x="1751" 
d="M504 0h-246l870 1434h246zM518 659h-217v553l-205 -100v211l213 111h209v-775zM1317 -16q-147 0 -252 63v199q122 -70 233 -70q61 0 98.5 24.5t37.5 65.5q0 38 -31.5 62t-87.5 24q-81 0 -131 -24v133l166 131h-265v182h531v-162l-152 -125q189 -53 189 -227
q0 -124 -99 -201q-93 -75 -237 -75z" />
    <glyph glyph-name="twothirds.mono" horiz-adv-x="1751" 
d="M578 0h-246l870 1434h246zM647 659h-584v158l211 176q129 108 129 178q0 35 -27.5 56.5t-74.5 21.5q-105 0 -209 -78v218q94 61 227 61q122 0 211 -68q93 -69 93 -182q0 -85 -37 -149t-131 -144l-76 -65h268v-183zM1354 -16q-147 0 -252 63v199q122 -70 233 -70
q60 0 97.5 24.5t37.5 65.5q0 38 -31.5 62t-86.5 24q-82 0 -131 -24v133l165 131h-264v182h531v-162l-152 -125q189 -53 189 -227q0 -124 -99 -201q-93 -75 -237 -75z" />
    <glyph glyph-name="Euro.mono" 
d="M895 -29q-258 0 -442 140q-181 138 -246 370h-156v199h125q0 88 2 102h-127v199h164q70 217 250 350q180 131 430 131q182 0 313 -61v-346q-129 69 -268 69q-214 0 -315 -143h317v-199h-385q-4 -20 -4 -53q0 -21 4 -49h385v-199h-334q94 -172 332 -172q172 0 299 86v-358
q-135 -66 -344 -66z" />
    <glyph glyph-name="tilde.cap" horiz-adv-x="1038" 
d="M686 1550q-69 0 -149 41q-77 41 -119 41q-72 0 -90 -73h-183q0 130 72 223q70 94 186 94q67 0 144 -41q77 -39 123 -39q72 0 90 72h182q0 -119 -74 -219q-70 -99 -182 -99z" />
    <glyph glyph-name="uniF725.mono" 
d="M1133 0h-951v252h54q102 0 102 96v70h-156v184h156v92q0 172 128 272.5t345 100.5q169 0 285 -45v-285q-125 45 -219 45q-100 0 -146.5 -36t-46.5 -115v-29h334v-184h-334v-70q0 -31 -13 -54.5t-24 -31.5t-18 -10h504v-252z" />
    <glyph glyph-name="oneeighth.mono" horiz-adv-x="1839" 
d="M1044 227q0 59 39.5 111.5t96.5 73.5q-43 21 -71 63.5t-28 91.5q0 98 82.5 161t210.5 63t210.5 -63t82.5 -161q0 -49 -27.5 -92t-70.5 -63q57 -21 96 -73t39 -112q0 -114 -96 -180q-92 -63 -234 -63q-141 0 -233 63q-97 66 -97 180zM1485 246q0 39 -31 64.5t-80 25.5
t-79.5 -25.5t-30.5 -64.5q0 -37 30.5 -61.5t79.5 -24.5t80 24.5t31 61.5zM1466 543q6 46 -43 65.5t-98 0t-43 -65.5q0 -31 27 -52.5t65 -21.5t65 21.5t27 52.5zM547 659h-217v553l-205 -100v211l213 111h209v-775zM532 0h-245l870 1434h246z" />
    <glyph glyph-name="onequarter.mono" horiz-adv-x="1751" 
d="M524 0h-245l870 1434h246zM537 659h-218v553l-204 -100v211l213 111h209v-775zM1530 0h-211v178h-383v154l371 442h223v-428h106v-168h-106v-178zM1319 537l-166 -191h166v191z" />
    <glyph glyph-name="t_t" horiz-adv-x="1697" 
d="M1352 -27q-164 0 -262.5 89t-98.5 251v437h-416v-338q0 -68 27.5 -96.5t93.5 -28.5q74 0 144 37v-289q-100 -62 -267 -62q-164 0 -262 89t-98 251v437h-182v290h182v267h362v-267h416v267h363v-267h264v-290h-264v-338q0 -68 27.5 -96.5t93.5 -28.5q73 0 143 37v-289
q-100 -62 -266 -62z" />
    <glyph glyph-name="uniF721.mono" 
d="M1028 688h90v-127h-938v127h504q55 15 55 62q0 63 -157 63q-164 0 -312 -53v252q148 59 342 59q159 0 287 -51q76 -27 121 -88t45 -144q0 -63 -37 -100zM274 365h-94v127h938v-127h-497q-58 -15 -58 -68q0 -68 170 -68q167 0 322 58v-254q-154 -60 -353 -60
q-145 0 -294 50q-78 30 -124 90.5t-46 142.5q0 70 36 109z" />
    <glyph glyph-name="uni20B4.mono" 
d="M1204 793h-1073v174h574q38 20 38 75q0 99 -192 99q-186 0 -334 -68v326q141 63 383 63q221 0 379 -96q160 -95 160 -283q0 -74 -31 -116h96v-174zM715 -29q-223 0 -383 97q-156 94 -156 288q0 100 68 174h-113v175h1073v-175h-532q-103 -41 -103 -120q0 -111 209 -111
q75 0 193 23q109 24 172 61v-334q-182 -78 -428 -78z" />
    <glyph glyph-name="atilde.alt" horiz-adv-x="1333" 
d="M535 -27q-205 0 -340 156q-136 157 -136 391q0 232 136 389q137 158 340 158q201 0 311 -143v116h362v-1040h-362v117q-108 -144 -311 -144zM639 281q137 0 207 110v258q-70 111 -207 111q-96 0 -157.5 -68t-61.5 -172q0 -103 61.5 -171t157.5 -68zM811 1174
q-70 0 -149 40q-77 41 -119 41q-72 0 -90 -73h-183q0 130 72 223q70 94 186 94q67 0 144 -41q77 -39 123 -39q72 0 90 72h182q0 -119 -74 -219q-70 -98 -182 -98z" />
    <glyph glyph-name="aring.alt" horiz-adv-x="1333" 
d="M535 -27q-205 0 -340 156q-136 157 -136 391q0 232 136 389q137 158 340 158q201 0 311 -143v116h362v-1040h-362v117q-108 -144 -311 -144zM639 281q137 0 207 110v258q-70 111 -207 111q-96 0 -157.5 -68t-61.5 -172q0 -103 61.5 -171t157.5 -68zM420 1335q0 91 63 154
t154 63q88 0 151 -63q64 -64 64 -154q0 -88 -63.5 -151.5t-151.5 -63.5t-152.5 63.5t-64.5 151.5zM727 1335q3 56 -43.5 79.5t-93.5 0t-45 -79.5q0 -37 27.5 -63.5t64.5 -26.5t63.5 26.5t26.5 63.5z" />
    <glyph glyph-name="acircumflex.alt" horiz-adv-x="1333" 
d="M535 -27q-205 0 -340 156q-136 157 -136 391q0 232 136 389q137 158 340 158q201 0 311 -143v116h362v-1040h-362v117q-108 -144 -311 -144zM639 281q137 0 207 110v258q-70 111 -207 111q-96 0 -157.5 -68t-61.5 -172q0 -103 61.5 -171t157.5 -68zM551 1182h-301
l260 309h342l254 -309h-307l-125 141z" />
    <glyph glyph-name="uni2156.mono" horiz-adv-x="1751" 
d="M598 0h-246l871 1434h245zM666 659h-584v158l211 176q129 108 129 178q0 35 -28 56.5t-75 21.5q-104 0 -208 -78v218q94 61 227 61q122 0 211 -68q92 -68 92 -182q0 -85 -37 -149t-131 -144l-76 -65h269v-183zM1319 -16q-133 0 -234 55v203q111 -66 224 -66q137 0 137 92
q0 41 -37.5 65.5t-103.5 24.5q-98 0 -197 -30l53 446h451v-182h-289l-6 -74q16 4 39 4q138 0 223.5 -68.5t85.5 -185.5q0 -139 -100 -211q-101 -73 -246 -73z" />
    <glyph glyph-name="uni2157.mono" horiz-adv-x="1751" 
d="M565 0h-246l871 1434h246zM1321 -16q-133 0 -234 55v203q111 -66 224 -66q137 0 137 92q0 41 -37.5 65.5t-103.5 24.5q-98 0 -197 -30l53 446h451v-182h-289l-6 -74q16 4 39 4q138 0 223.5 -68.5t85.5 -185.5q0 -139 -100 -211q-101 -73 -246 -73zM334 643
q-145 0 -252 64v198q117 -69 233 -69q61 0 98.5 24.5t37.5 65.5q0 38 -31.5 62t-87.5 24q-79 0 -131 -25v133l166 131h-265v183h531v-162l-152 -125q189 -53 189 -227q0 -124 -99 -201q-94 -76 -237 -76z" />
    <glyph glyph-name="uni2158.mono" horiz-adv-x="1751" 
d="M657 659h-211v179h-383v153l371 443h223v-428h107v-168h-107v-179zM446 1196l-165 -190h165v190zM1339 -16q-132 0 -233 55v203q111 -66 223 -66q137 0 137 92q0 41 -37.5 65.5t-103.5 24.5q-98 0 -197 -30l54 446h450v-182h-289l-6 -74q16 4 39 4q138 0 224 -68.5
t86 -185.5q0 -138 -101 -211t-246 -73zM618 0h-245l870 1434h246z" />
    <glyph glyph-name="uni2159.mono" horiz-adv-x="1751" 
d="M1335 -16q-156 0 -242.5 98t-86.5 266q-2 67 11 130t43.5 120t74.5 99.5t108.5 67.5t140.5 26q116 0 189 -48v-192q-70 49 -162 49q-71 0 -121 -36.5t-57 -102.5q56 59 153 59q112 0 182 -69.5t70 -186.5q0 -123 -86.5 -201.5t-216.5 -78.5zM1319 160q48 0 76 29t28 75
q0 40 -28 68t-74 28q-80 0 -107 -65q0 -63 30 -99t75 -36zM539 659h-217v553l-205 -100v211l213 111h209v-775zM524 0h-245l870 1434h246z" />
    <glyph glyph-name="uni215A.mono" horiz-adv-x="1751" 
d="M1368 -16q-156 0 -243 98t-87 266q-3 84 19.5 161.5t68 141t121 101.5t170.5 39q116 0 189 -48v-192q-70 49 -162 49q-71 0 -121 -36.5t-57 -102.5q56 59 153 59q112 0 182 -69.5t70 -186.5q0 -123 -86.5 -201.5t-216.5 -78.5zM1352 160q48 0 76 29t28 75q0 40 -28 68
t-74 28q-80 0 -107 -65q0 -63 30 -99t75 -36zM313 643q-132 0 -233 55v203q109 -65 223 -65q137 0 137 92q0 41 -37.5 65.5t-103.5 24.5q-95 0 -197 -31l54 447h450v-183h-289l-6 -73q16 4 39 4q138 0 223.5 -68.5t85.5 -185.5q0 -139 -100 -211q-103 -74 -246 -74zM555 0
h-246l871 1434h245z" />
    <glyph glyph-name="Q.alt02" horiz-adv-x="1716" 
d="M1526 -477q-131 0 -367 82t-352 82q-182 0 -301 -84v313q97 51 211 66q-276 47 -451 251q-174 207 -174 484q0 310 215 528q214 217 541 217t541 -217q217 -217 217 -528q0 -287 -189 -500q-188 -212 -481 -242q71 -11 291 -84q213 -71 319 -71q60 0 99 20v-301
q-40 -16 -119 -16zM578 426q109 -115 270 -115q159 0 268 115t109 291t-109 291q-108 114 -268 114q-162 0 -270 -114q-107 -113 -107 -291t107 -291z" />
    <glyph glyph-name="amacron.alt" horiz-adv-x="1333" 
d="M535 -27q-205 0 -340 156q-136 157 -136 391q0 232 136 389q137 158 340 158q201 0 311 -143v116h362v-1040h-362v117q-108 -144 -311 -144zM639 281q137 0 207 110v258q-70 111 -207 111q-96 0 -157.5 -68t-61.5 -172q0 -103 61.5 -171t157.5 -68zM997 1212h-684v238
h684v-238z" />
    <glyph glyph-name="Q.alt01" horiz-adv-x="1730" 
d="M848 311q91 0 170 39l-279 367h383l88 -117q15 64 15 117q0 176 -109 291q-108 114 -268 114q-162 0 -270 -114q-107 -113 -107 -291t107 -291q109 -115 270 -115zM848 -29q-327 0 -541 217q-215 218 -215 529q0 310 215 528q214 217 541 217t541 -217q215 -218 215 -528
q0 -245 -144 -445l209 -272h-383l-55 70q-175 -99 -383 -99z" />
    <glyph glyph-name="aogonek.alt" horiz-adv-x="1337" 
d="M1171 -422q-128 0 -204 60.5t-76 156.5q0 117 98 205h-143v117q-108 -144 -311 -144q-205 0 -340 156q-136 157 -136 391q0 232 136 389q137 158 340 158q201 0 311 -143v116h362v-1040q-67 -67 -67 -131q0 -76 92 -76q47 0 72 14v-210q-52 -19 -134 -19zM639 281
q137 0 207 110v258q-70 111 -207 111q-96 0 -157.5 -68t-61.5 -172q0 -103 61.5 -171t157.5 -68z" />
    <glyph glyph-name="abreve.alt" horiz-adv-x="1333" 
d="M535 -27q-205 0 -340 156q-136 157 -136 391q0 232 136 389q137 158 340 158q201 0 311 -143v116h362v-1040h-362v117q-108 -144 -311 -144zM639 281q137 0 207 110v258q-70 111 -207 111q-96 0 -157.5 -68t-61.5 -172q0 -103 61.5 -171t157.5 -68zM285 1499h229
q6 -62 42.5 -99.5t92.5 -37.5q57 0 92.5 37.5t40.5 99.5h230q-6 -161 -107 -255.5t-256 -94.5q-150 0 -256 92q-102 95 -108 258z" />
    <glyph glyph-name="gcircumflex.alt" horiz-adv-x="1243" 
d="M20 63q0 33 3 48h368q-6 -21 -6 -48q0 -76 56 -128t141 -52q84 0 139 52t55 128q0 93 -74 146q-72 -10 -120 -10q-217 0 -355 123q-139 127 -139 311q0 185 139 309q137 125 355 125q185 0 319 -98l291 98v-285l-131 -47q14 -55 14 -102q0 -127 -76 -240
q144 -132 144 -330q0 -207 -160 -346q-157 -139 -401 -139t-404 139q-158 140 -158 346zM467 524q44 -43 114 -43t113 43q44 43 44 108.5t-44 106.5q-43 43 -113 43t-114 -43q-43 -41 -43 -106.5t43 -108.5zM467 1182h-301l260 309h342l254 -309h-307l-125 141z" />
    <glyph glyph-name="f_f_t" horiz-adv-x="2496" 
d="M2150 -27q-164 0 -262 89t-98 251v437h-430v-750h-363v750h-430v-750h-362v750h-174v290h174v56q0 167 98 266.5t283 99.5q165 0 284 -45v-278q-82 30 -178 30q-125 0 -125 -110v-19h430v56q0 167 98 266.5t283 99.5q166 0 285 -45v-278q-83 30 -178 30q-125 0 -125 -110
v-19h430v267h362v-267h265v-290h-265v-338q0 -68 27.5 -96.5t93.5 -28.5q74 0 144 37v-289q-100 -62 -267 -62z" />
    <glyph glyph-name="t.alt" horiz-adv-x="813" 
d="M467 -27q-164 0 -262.5 89t-98.5 251v994h363v-267h264v-290h-264v-338q0 -68 27.5 -96.5t93.5 -28.5q73 0 143 37v-289q-100 -62 -266 -62z" />
    <glyph glyph-name="f.alt01" horiz-adv-x="831" 
d="M487 750v-750h-362v1096q0 167 98 266.5t283 99.5q166 0 285 -45v-278q-83 30 -179 30q-125 0 -125 -110v-19h304v-290h-304z" />
    <glyph glyph-name="f_j" horiz-adv-x="1495" 
d="M940 -422q-167 0 -246 43v297q67 -33 152 -33q151 0 151 148v717h-430v-750h-362v750h-174v290h174v56q0 167 98 266.5t283 99.5q165 0 284 -45v-278q-82 30 -178 30q-125 0 -125 -110v-19h793v-1038q0 -197 -111.5 -310.5t-308.5 -113.5zM1176 1135q-86 0 -146.5 60.5
t-60.5 147.5q0 88 60.5 148.5t146.5 60.5q88 0 148 -60.5t60 -148.5t-60 -148t-148 -60z" />
    <glyph glyph-name="T_h" horiz-adv-x="2334" 
d="M856 0h-369v1110h-430v324h1485v-510q134 143 316 143q172 0 271 -115.5t99 -312.5v-639h-362v571q0 88 -41 130t-109 42q-106 0 -174 -92v-651h-362v1110h-324v-1110z" />
    <glyph glyph-name="uni043F_uni0438" horiz-adv-x="1996" 
d="M487 0h-362v1040h1032v-516l375 516h340v-1040h-356v508l-375 -508h-340v750h-314v-750z" />
    <glyph glyph-name="uni041F_uni0418" horiz-adv-x="2426" 
d="M506 0h-369v1434h1241v-809l592 809h320v-1434h-369v817l-602 -817h-309v1110h-504v-1110z" />
    <glyph glyph-name="uni041D_uni0418" horiz-adv-x="2463" 
d="M506 0h-369v1434h369v-510h541v510h368v-809l592 809h320v-1434h-369v817l-602 -817h-309v596h-541v-596z" />
    <glyph glyph-name="uni043D_uni0438" horiz-adv-x="2007" 
d="M487 0h-362v1040h362v-362h324v362h356v-516l375 516h340v-1040h-356v508l-375 -508h-340v387h-324v-387z" />
    <glyph glyph-name="uni0418_uni041D" horiz-adv-x="2463" 
d="M446 0h-309v1434h369v-809l592 809h319v-510h541v510h369v-1434h-369v596h-541v-596h-368v817z" />
    <glyph glyph-name="uni0438_uni043D" horiz-adv-x="2007" 
d="M465 0h-340v1040h356v-516l375 516h340v-362h324v362h362v-1040h-362v387h-324v-387h-356v514z" />
    <glyph glyph-name="f_t" horiz-adv-x="1703" 
d="M1358 -27q-164 0 -262.5 89t-98.5 251v437h-430v-750h-362v750h-174v290h174v56q0 167 98 266.5t283 99.5q165 0 284 -45v-278q-82 30 -178 30q-125 0 -125 -110v-19h430v267h363v-267h264v-290h-264v-338q0 -68 27.5 -96.5t93.5 -28.5q73 0 143 37v-289
q-100 -62 -266 -62z" />
    <glyph glyph-name="uni0438_uni0439" horiz-adv-x="2035" 
d="M465 0h-340v1040h356v-516l375 516h340v-516l375 516h340v-1040h-357v514l-380 -514h-334v514zM985 1489h248q2 -60 38 -94.5t99 -34.5t99 34.5t38 94.5h252q-3 -171 -112 -264q-111 -97 -275 -97q-162 0 -276 97q-108 95 -111 264z" />
    <glyph glyph-name="gcommaaccent.alt" horiz-adv-x="1243" 
d="M20 63q0 33 3 48h368q-6 -21 -6 -48q0 -76 56 -128t141 -52q84 0 139 52t55 128q0 93 -74 146q-72 -10 -120 -10q-217 0 -355 123q-139 127 -139 311q0 185 139 309q137 125 355 125q185 0 319 -98l291 98v-285l-131 -47q14 -55 14 -102q0 -127 -76 -240
q144 -132 144 -330q0 -207 -160 -346q-157 -139 -401 -139t-404 139q-158 140 -158 346zM467 524q44 -43 114 -43t113 43q44 43 44 108.5t-44 106.5q-43 43 -113 43t-114 -43q-43 -41 -43 -106.5t43 -108.5zM586 1638h266l-123 -446h-315z" />
    <glyph glyph-name="H_B" horiz-adv-x="2367" 
d="M506 0h-369v1434h369v-510h541v510h698q202 0 324 -95t122 -268q0 -98 -48 -171.5t-120 -106.5q108 -25 189 -125q84 -104 84 -256q0 -184 -142 -299q-137 -113 -370 -113h-737v596h-541v-596zM1415 612v-305h297q85 0 132.5 40t47.5 112q0 71 -49 112t-131 41h-297z
M1415 1135v-250h275q68 0 107.5 33t39.5 90q0 60 -39.5 93.5t-107.5 33.5h-275z" />
    <glyph glyph-name="H_D" horiz-adv-x="2502" 
d="M506 0h-369v1434h369v-510h541v510h571q349 0 571 -201q221 -200 221 -516q0 -318 -221 -518q-220 -199 -571 -199h-571v596h-541v-596zM1415 1110v-786h176q210 0 324.5 102t114.5 291t-114.5 291t-324.5 102h-176z" />
    <glyph glyph-name="H_E" horiz-adv-x="2224" 
d="M2152 0h-1105v596h-541v-596h-369v1434h369v-510h541v510h1089v-324h-721v-195h574v-311h-574v-280h737v-324z" />
    <glyph glyph-name="H_F" horiz-adv-x="2207" 
d="M506 0h-369v1434h369v-510h541v510h1089v-324h-721v-209h539v-311h-539v-590h-368v596h-541v-596z" />
    <glyph glyph-name="H_K" horiz-adv-x="2414" 
d="M1415 0h-368v596h-541v-596h-369v1434h369v-510h541v510h368v-547l465 547h442l-555 -660l658 -774h-449l-561 637v-637z" />
    <glyph glyph-name="H_M" horiz-adv-x="2641" 
d="M506 0h-369v1434h369v-510h541v510h366l363 -551l364 551h365v-1434h-367v874l-256 -385h-203l-264 385v-874h-368v596h-541v-596z" />
    <glyph glyph-name="H_N" horiz-adv-x="2492" 
d="M506 0h-369v1434h369v-510h541v510h321l627 -789v789h360v-1434h-305l-635 793v-793h-368v596h-541v-596z" />
    <glyph glyph-name="H_U" horiz-adv-x="2422" 
d="M1047 596h-541v-596h-369v1434h369v-510h541v510h368v-852q0 -132 71.5 -201.5t188.5 -69.5q119 0 189.5 69t70.5 202v852h369v-834q0 -299 -178 -465q-179 -164 -451 -164q-271 0 -450 164q-175 163 -178 461z" />
    <glyph glyph-name="H_P" horiz-adv-x="2254" 
d="M1415 0h-368v596h-541v-596h-369v1434h369v-510h541v510h639q240 0 380 -125q142 -127 142 -324q0 -199 -142 -326q-139 -124 -380 -124h-271v-535zM1415 1122v-284h244q80 0 128 38t48 105t-47 104t-129 37h-244z" />
    <glyph glyph-name="H_R" horiz-adv-x="2402" 
d="M1415 0h-368v596h-541v-596h-369v1434h369v-510h541v510h673q238 0 375 -125q141 -123 141 -318q0 -139 -73.5 -245.5t-204.5 -157.5l434 -588h-424l-405 547h-148v-547zM1415 1122v-274h285q75 0 119.5 36t44.5 99t-44.5 101t-119.5 38h-285z" />
    <glyph glyph-name="N_D" horiz-adv-x="2535" 
d="M500 0h-363v1434h316l626 -789v789h572q349 0 571 -201q221 -200 221 -516q0 -318 -221 -518q-220 -199 -571 -199h-516l-635 793v-793zM1448 1110v-786h176q210 0 324 102t114 291t-114 291t-324 102h-176z" />
    <glyph glyph-name="N_B" horiz-adv-x="2400" 
d="M500 0h-363v1434h316l626 -789v789h699q202 0 324 -95t122 -268q0 -98 -48 -171.5t-120 -106.5q108 -25 189 -125q84 -104 84 -256q0 -184 -142 -299q-137 -113 -370 -113h-682l-635 793v-793zM1448 612v-305h297q85 0 132.5 40t47.5 112q0 71 -49 112t-131 41h-297z
M1448 1135v-250h274q68 0 108 33t40 90q0 60 -40 93.5t-108 33.5h-274z" />
    <glyph glyph-name="M_P" horiz-adv-x="2437" 
d="M506 0h-369v1434h367l362 -551l365 551h637q241 0 381 -125q141 -126 141 -324q0 -200 -141 -326q-139 -124 -381 -124h-271v-535h-368v874l-256 -385h-203l-264 385v-874zM1597 1122v-284h244q80 0 128 38t48 105t-47 104t-129 37h-244z" />
    <glyph glyph-name="M_R" horiz-adv-x="2584" 
d="M506 0h-369v1434h367l362 -551l365 551h672q237 0 374 -125q142 -124 142 -318q0 -139 -74 -245.5t-205 -157.5l434 -588h-424l-405 547h-148v-547h-368v874l-256 -385h-203l-264 385v-874zM1597 1122v-274h285q75 0 119.5 36t44.5 99t-44.5 101t-119.5 38h-285z" />
    <glyph glyph-name="M_H" horiz-adv-x="2643" 
d="M506 0h-369v1434h367l362 -551l365 551h366v-510h541v510h369v-1434h-369v596h-541v-596h-368v874l-256 -385h-203l-264 385v-874z" />
    <glyph glyph-name="M_U" horiz-adv-x="2605" 
d="M506 0h-369v1434h367l362 -551l365 551h366v-852q0 -132 72 -201.5t189 -69.5q119 0 189.5 69t70.5 202v852h368v-834q0 -299 -178 -465q-179 -164 -450 -164q-272 0 -451 164q-178 166 -178 465v274l-256 -385h-203l-264 385v-874z" />
    <glyph glyph-name="N_P" horiz-adv-x="2287" 
d="M500 0h-363v1434h316l626 -789v789h639q241 0 381 -125q142 -127 142 -324q0 -199 -142 -326q-139 -124 -381 -124h-270v-535h-313l-635 793v-793zM1448 1122v-284h244q80 0 128 38t48 105t-47 104t-129 37h-244z" />
    <glyph glyph-name="N_R" horiz-adv-x="2435" 
d="M500 0h-363v1434h316l626 -789v789h674q238 0 375 -125q141 -123 141 -318q0 -139 -73.5 -245.5t-204.5 -157.5l434 -588h-424l-406 547h-147v-547h-313l-635 793v-793zM1448 1122v-274h285q75 0 119 36t44 99t-44 101t-119 38h-285z" />
    <glyph glyph-name="N_N" horiz-adv-x="2519" 
d="M500 0h-363v1434h316l626 -789v789h316l626 -789v789h361v-1434h-305l-635 793v-793h-307l-635 793v-793z" />
    <glyph glyph-name="U_P" horiz-adv-x="2215" 
d="M748 -29q-272 0 -451 164q-178 166 -178 465v834h368v-852q0 -132 72 -201.5t189 -69.5q119 0 189.5 69t70.5 202v852h639q241 0 381 -125q141 -126 141 -324q0 -200 -141 -326q-139 -124 -381 -124h-275q-21 -271 -194 -416q-174 -148 -430 -148zM1376 1122v-284h244
q80 0 128 38t48 105t-47 104t-129 37h-244z" />
    <glyph glyph-name="U_R" horiz-adv-x="2363" 
d="M748 -29q-272 0 -451 164q-178 166 -178 465v834h368v-852q0 -132 72 -201.5t189 -69.5q119 0 189.5 69t70.5 202v852h673q238 0 375 -125q142 -124 142 -318q0 -139 -74 -245.5t-205 -157.5l434 -588h-424l-405 547h-150q-18 -278 -192 -426q-176 -150 -434 -150z
M1376 1122v-274h285q75 0 119.5 36t44.5 99t-44.5 101t-119.5 38h-285z" />
    <glyph glyph-name="gdotaccent.alt" horiz-adv-x="1243" 
d="M20 63q0 33 3 48h368q-6 -21 -6 -48q0 -76 56 -128t141 -52q84 0 139 52t55 128q0 93 -74 146q-72 -10 -120 -10q-217 0 -355 123q-139 127 -139 311q0 185 139 309q137 125 355 125q185 0 319 -98l291 98v-285l-131 -47q14 -55 14 -102q0 -127 -76 -240
q144 -132 144 -330q0 -207 -160 -346q-157 -139 -401 -139t-404 139q-158 140 -158 346zM467 524q44 -43 114 -43t113 43q44 43 44 108.5t-44 106.5q-43 43 -113 43t-114 -43q-43 -41 -43 -106.5t43 -108.5zM580 1159q-72 0 -125.5 52.5t-53.5 125.5t52.5 124.5t126.5 51.5
q75 0 126.5 -51t51.5 -125t-51.5 -126t-126.5 -52z" />
    <glyph glyph-name="uni2155.mono" horiz-adv-x="1751" 
d="M1282 -16q-132 0 -233 55v203q111 -66 223 -66q137 0 137 92q0 41 -37.5 65.5t-103.5 24.5q-98 0 -197 -30l53 446h451v-182h-289l-6 -74q16 4 39 4q138 0 223.5 -68.5t85.5 -185.5q0 -139 -100 -211q-101 -73 -246 -73zM539 659h-217v553l-205 -100v211l213 111h209
v-775zM524 0h-245l870 1434h246z" />
    <glyph glyph-name="fiveeighths.mono" horiz-adv-x="1839" 
d="M1081 227q0 59 39.5 111.5t96.5 73.5q-43 21 -71 63.5t-28 91.5q0 98 82.5 161t210.5 63t210.5 -63t82.5 -161q0 -49 -27.5 -92t-70.5 -63q57 -21 96 -73t39 -112q0 -114 -96 -180q-92 -63 -234 -63q-141 0 -233 63q-97 66 -97 180zM1522 246q0 39 -31 64.5t-80 25.5
t-80 -25.5t-31 -64.5q0 -37 31 -61.5t80 -24.5t80 24.5t31 61.5zM1503 543q6 46 -43 65.5t-98 0t-43 -65.5q0 -31 27 -52.5t65 -21.5t65 21.5t27 52.5zM332 643q-133 0 -234 55v203q109 -65 224 -65q137 0 137 92q0 41 -38 65.5t-104 24.5q-94 0 -196 -31l53 447h451v-183
h-289l-6 -73q16 4 39 4q138 0 223.5 -68.5t85.5 -185.5q0 -139 -100 -211q-103 -74 -246 -74zM571 0h-245l870 1434h246z" />
    <glyph glyph-name="U_M" horiz-adv-x="2603" 
d="M119 600v834h368v-852q0 -132 72 -201.5t189 -69.5q119 0 189.5 69t70.5 202v852h366l363 -551l364 551h365v-1434h-367v874l-256 -385h-203l-264 385v-274q0 -299 -178 -465q-179 -164 -450 -164q-272 0 -451 164q-178 166 -178 465z" />
    <glyph glyph-name="M_B" horiz-adv-x="2549" 
d="M1966 0h-737v874l-256 -385h-203l-264 385v-874h-369v1434h367l362 -551l365 551h696q202 0 324.5 -95t122.5 -268q0 -98 -48 -171.5t-120 -106.5q107 -24 188 -125q84 -104 84 -256q0 -185 -141 -299q-137 -113 -371 -113zM1597 612v-305h297q85 0 133 40t48 112
q0 71 -49 112t-132 41h-297zM1597 1135v-250h275q68 0 107.5 33t39.5 90q0 60 -39.5 93.5t-107.5 33.5h-275z" />
    <glyph glyph-name="U_N" horiz-adv-x="2447" 
d="M119 600v834h368v-852q0 -132 72 -201.5t189 -69.5q119 0 189.5 69t70.5 202v852h315l627 -789v789h360v-1434h-305l-629 784v-184q0 -299 -178 -465q-179 -164 -450 -164q-272 0 -451 164q-178 166 -178 465z" />
    <glyph glyph-name="M_E" horiz-adv-x="2406" 
d="M506 0h-369v1434h367l362 -551l365 551h1087v-324h-721v-195h574v-311h-574v-280h738v-324h-1106v874l-256 -385h-203l-264 385v-874z" />
    <glyph glyph-name="endash.cap" horiz-adv-x="1628" 
d="M1434 600h-1239v320h1239v-320z" />
    <glyph glyph-name="emdash.cap" horiz-adv-x="1894" 
d="M1700 600h-1505v320h1505v-320z" />
    <glyph glyph-name="hyphen.cap" horiz-adv-x="1050" 
d="M856 600h-661v320h661v-320z" />
    <glyph glyph-name="bracketleft.cap" horiz-adv-x="925" 
d="M854 -217h-709v1868h709v-279h-381v-1311h381v-278z" />
    <glyph glyph-name="bracketright.cap" horiz-adv-x="925" 
d="M72 1651h708v-1868h-708v278h381v1311h-381v279z" />
    <glyph glyph-name="braceleft.cap" horiz-adv-x="888" 
d="M709 61h108v-278h-186q-171 0 -272 101t-101 272v194q0 117 -32 167.5t-126 60.5v278q94 10 126 60t32 167v195q0 171 101 272t272 101h186v-279h-108q-55 0 -89 -35.5t-34 -91.5v-272q0 -209 -176 -256q176 -53 176 -256v-273q0 -56 34 -91.5t89 -35.5z" />
    <glyph glyph-name="braceright.cap" horiz-adv-x="888" 
d="M258 -217h-186v278h108q55 0 89 35.5t34 91.5v273q0 203 176 256q-176 47 -176 256v272q0 56 -34 91.5t-89 35.5h-108v279h186q171 0 272 -101t101 -272v-195q0 -117 32 -167t125 -60v-278q-93 -10 -125 -60.5t-32 -167.5v-194q0 -171 -101 -272t-272 -101z" />
    <glyph glyph-name="guillemotright.cap" horiz-adv-x="1236" 
d="M399 262h-360l328 455l-328 454h360l267 -366v-178zM928 262h-361l328 455l-328 454h361l266 -366v-178z" />
    <glyph glyph-name="guillemotleft.cap" horiz-adv-x="1236" 
d="M670 262h-361l-266 365v178l266 366h361l-328 -454zM1198 262h-360l-267 365v178l267 366h360l-328 -454z" />
    <glyph glyph-name="guilsinglright.cap" horiz-adv-x="708" 
d="M399 262h-360l328 455l-328 454h360l267 -366v-178z" />
    <glyph glyph-name="guilsinglleft.cap" horiz-adv-x="708" 
d="M670 262h-361l-266 365v178l266 366h361l-328 -454z" />
    <glyph glyph-name="parenleft.cap" horiz-adv-x="790" 
d="M795 -217h-369q-293 376 -293 934t293 934h369q-328 -421 -328 -934t328 -934z" />
    <glyph glyph-name="parenright.cap" horiz-adv-x="790" 
d="M365 -217h-369q328 421 328 934t-328 934h369q292 -374 292 -934t-292 -934z" />
    <glyph glyph-name="exclamdown.cap" horiz-adv-x="739" 
d="M584 1247q0 -91 -62 -154t-153 -63t-153 63t-62 154q0 88 61 152q63 63 154 63t151 -63q64 -64 64 -152zM618 0h-497l84 938h330z" />
    <glyph glyph-name="questiondown.cap" horiz-adv-x="1026" 
d="M395 1399q63 63 154 63t151 -63q63 -63 63 -153.5t-63 -153.5q-62 -62 -151 -62t-154 62q-61 63 -61 153.5t61 153.5zM383 938h344v-305q-138 -24 -238 -82q-102 -59 -102 -135q0 -119 199 -119q171 0 372 109v-316q-180 -119 -434 -119q-209 0 -360 109
q-148 109 -148 309q0 149 109 258q110 107 258 154v137z" />
    </font>
</defs>
</svg>
