<svg width="173" height="50" viewBox="0 0 173 50" fill="none" xmlns="http://www.w3.org/2000/svg">
<path d="M4.79017 0.413086H14.9266V16.6281H12.5921V2.50534H6.97603C6.8806 4.64165 6.71175 6.57791 6.46949 8.31412C6.27129 9.84635 5.90192 11.3515 5.3683 12.8015C4.98079 13.9152 4.31339 14.9107 3.4302 15.6921C2.55519 16.3889 1.45909 16.7484 0.341369 16.7052H0V14.5909C0.550162 14.6061 1.09456 14.4756 1.57803 14.2126C2.06149 13.9496 2.46683 13.5634 2.75297 13.0933C3.38616 12.1132 3.85416 10.5495 4.19553 8.46278C4.55392 5.79379 4.75249 3.10577 4.79017 0.413086Z" fill="white"/>
<path d="M17.6741 16.6281L24.0224 0.413086H26.4285L32.7493 16.6281H30.1505L28.4988 12.1077H21.809L20.1573 16.6281H17.6741ZM22.4918 10.1366H27.7665L25.1401 3.0174L22.4918 10.1366Z" fill="white"/>
<path d="M35.4968 0.413086H45.3194V2.43377H37.8313V6.73391H40.9918C42.8271 6.73391 44.2494 7.17255 45.2589 8.04983C45.7682 8.491 46.1714 9.04148 46.4383 9.6602C46.7053 10.2789 46.8291 10.9499 46.8005 11.6232C46.8071 12.4607 46.6186 13.2882 46.2499 14.0403C45.8382 14.8418 45.188 15.4959 44.3889 15.9123C43.3092 16.4386 42.1145 16.6848 40.9147 16.6281H35.4968V0.413086ZM37.8313 8.72706V14.6349H40.9422C41.8356 14.684 42.719 14.4277 43.4474 13.9082C43.7637 13.6395 44.0122 13.3001 44.1729 12.9174C44.3336 12.5348 44.402 12.1197 44.3724 11.7058C44.3982 11.2933 44.3292 10.8804 44.1708 10.4986C44.0124 10.1169 43.7687 9.77645 43.4584 9.5034C42.7373 8.95729 41.8453 8.68595 40.9422 8.73807L37.8313 8.72706Z" fill="white"/>
<path d="M57.8895 17.0687C56.7899 17.0782 55.7001 16.8618 54.6876 16.4327C53.6752 16.0037 52.7616 15.3712 52.0037 14.5745C51.2566 13.7821 50.6629 12.858 50.2528 11.8491C49.8308 10.7991 49.6176 9.67701 49.6251 8.5455C49.6168 7.41494 49.8261 6.29335 50.2418 5.24193C50.642 4.23344 51.237 3.31369 51.9928 2.53523C52.7486 1.75677 53.6503 1.13486 54.6465 0.70503C55.6788 0.272539 56.7868 0.0498047 57.9061 0.0498047C59.0253 0.0498047 60.1333 0.272539 61.1656 0.70503C62.1549 1.13518 63.0507 1.75424 63.8029 2.5275C65.3649 4.15397 66.2251 6.32916 66.198 8.58404C66.2192 10.8378 65.3599 13.0109 63.8029 14.6406C63.0343 15.4264 62.1135 16.047 61.0967 16.4645C60.0799 16.882 58.9886 17.0876 57.8895 17.0687ZM57.8895 14.8663C58.9838 14.8919 60.0603 14.5868 60.9784 13.9909C61.8517 13.4094 62.5562 12.6079 63.0211 11.6674C63.5105 10.6825 63.7596 9.59566 63.7479 8.49594C63.7618 7.38842 63.5167 6.29298 63.0321 5.29699C62.5759 4.35842 61.8738 3.56113 61.0004 2.99C60.0653 2.42452 58.9933 2.1256 57.9006 2.1256C56.8078 2.1256 55.7358 2.42452 54.8007 2.99C53.9288 3.55812 53.2268 4.35145 52.769 5.28598C52.2862 6.28257 52.0412 7.3776 52.0532 8.48493C52.0432 9.58322 52.2882 10.6688 52.769 11.6564C53.2261 12.5987 53.9278 13.4011 54.8007 13.9799C55.7176 14.5797 56.7942 14.8886 57.8895 14.8663Z" fill="white"/>
<path d="M69.8264 16.6279V0.412931H74.958C75.8964 0.380542 76.832 0.533979 77.7109 0.864419C78.3657 1.11847 78.952 1.52195 79.4233 2.04269C79.832 2.50339 80.1379 3.04582 80.3208 3.63391C80.4967 4.18021 80.5877 4.7503 80.5905 5.32423C80.6208 6.27617 80.3761 7.21668 79.8858 8.03316C79.415 8.76339 78.7388 9.33808 77.9422 9.68494C77.0436 10.0698 76.0729 10.2576 75.0956 10.2355H72.1279V16.6279H69.8264ZM72.1279 8.2589H75.0461C75.8907 8.31478 76.7234 8.03589 77.3641 7.48256C77.6424 7.20926 77.8595 6.87991 78.0009 6.51636C78.1424 6.15281 78.2049 5.76335 78.1844 5.37379C78.2037 4.97468 78.1391 4.57597 77.995 4.2033C77.8509 3.83063 77.6303 3.49226 77.3475 3.20995C76.7179 2.6501 75.8929 2.36123 75.0516 2.40608H72.1279V8.2589Z" fill="white"/>
<path d="M80.6951 16.6281L87.0434 0.413086H89.422L95.7703 16.6281H93.166L91.5143 12.1077H84.8521L83.2003 16.6281H80.6951ZM85.5073 10.1366H90.7875L88.1611 3.0174L85.5073 10.1366Z" fill="white"/>
<path d="M100.269 16.6281V2.45579H94.4545V0.413086H108.39V2.45579H102.603V16.6281H100.269Z" fill="white"/>
<path d="M117.337 17.0684C116.217 17.0778 115.106 16.8528 114.078 16.4077C113.086 15.9822 112.193 15.3582 111.451 14.5743C110.704 13.7818 110.111 12.8577 109.7 11.8488C109.277 10.7992 109.062 9.67711 109.067 8.54524C109.061 7.41433 109.272 6.29272 109.689 5.24168C110.085 4.21373 110.68 3.27431 111.44 2.47769C112.192 1.70378 113.088 1.08463 114.078 0.655225C115.11 0.222734 116.218 0 117.337 0C118.456 0 119.564 0.222734 120.597 0.655225C121.586 1.08537 122.482 1.70443 123.234 2.47769C123.985 3.26305 124.579 4.18429 124.985 5.19212C125.408 6.24191 125.623 7.36389 125.618 8.49569C125.639 10.7495 124.78 12.9225 123.223 14.5522C122.465 15.3506 121.552 15.9856 120.54 16.4183C119.528 16.851 118.438 17.0722 117.337 17.0684ZM117.337 14.8661C118.431 14.8916 119.508 14.5865 120.426 13.9906C121.299 13.4091 122.004 12.6077 122.469 11.6671C122.958 10.6822 123.207 9.59541 123.196 8.49569C123.209 7.38817 122.964 6.29272 122.48 5.29674C122.024 4.35817 121.321 3.56088 120.448 2.98975C119.513 2.42427 118.441 2.12535 117.348 2.12535C116.255 2.12535 115.183 2.42427 114.248 2.98975C113.375 3.56088 112.673 4.35817 112.217 5.29674C111.732 6.29272 111.487 7.38817 111.501 8.49569C111.488 9.59428 111.733 10.6805 112.217 11.6671C112.674 12.6095 113.375 13.4119 114.248 13.9906C115.166 14.5865 116.243 14.8916 117.337 14.8661Z" fill="white"/>
<path d="M129.274 16.6277V0.412654H134.406C135.344 0.379389 136.28 0.532854 137.159 0.864141C137.815 1.11817 138.403 1.52158 138.876 2.04241C139.283 2.50427 139.589 3.04633 139.774 3.63363C139.95 4.17994 140.041 4.75002 140.044 5.32396C140.062 6.27973 139.804 7.22051 139.3 8.03288C138.828 8.76394 138.15 9.33872 137.351 9.68466C136.455 10.0694 135.486 10.2572 134.51 10.2353H131.592V16.6277H129.274ZM131.592 8.25862H134.51C135.356 8.31417 136.191 8.03542 136.834 7.48229C137.111 7.20849 137.327 6.87893 137.468 6.5154C137.608 6.15187 137.67 5.76266 137.649 5.37351C137.668 4.9744 137.603 4.57569 137.459 4.20302C137.315 3.83036 137.094 3.49198 136.812 3.20967C136.181 2.64845 135.353 2.35948 134.51 2.40581H131.592V8.25862Z" fill="white"/>
<path d="M157.134 16.6281H154.849V3.69463L146.001 16.6281H143.645V0.413086H145.908V13.297L154.717 0.413086H157.096L157.134 16.6281Z" fill="white"/>
<path d="M162.75 16.6282H160.223L163.042 11.4746C163.272 11.0263 163.549 10.6036 163.868 10.2137C164.137 9.92032 164.47 9.69402 164.843 9.55303C163.755 9.42994 162.757 8.89142 162.056 8.0499C161.383 7.21782 161.026 6.1743 161.049 5.10422C161.033 4.28418 161.23 3.47404 161.622 2.75318C162.052 2.00955 162.697 1.41286 163.472 1.04084C164.464 0.582968 165.551 0.367816 166.643 0.413158H171.846V16.6282H169.583V10.021H167.711C167.196 9.98565 166.686 10.1426 166.28 10.4615C165.83 10.9401 165.458 11.4863 165.178 12.0803L162.75 16.6282ZM169.583 8.02237V2.43384H166.494C165.672 2.38431 164.862 2.64791 164.226 3.17164C163.949 3.43444 163.733 3.75422 163.592 4.10884C163.452 4.46346 163.39 4.84443 163.411 5.22535C163.394 5.59919 163.454 5.97259 163.587 6.32218C163.721 6.67177 163.925 6.99003 164.187 7.25705C164.495 7.52873 164.853 7.73636 165.242 7.86777C165.63 7.99919 166.041 8.05175 166.45 8.02237H169.583Z" fill="white"/>
<path d="M37.8589 45.8039L38.6077 29.5889H42.7206L46.6574 36.664L50.5115 29.5889H54.6465L55.4008 45.8039H51.0566L50.6547 36.3006L47.8246 41.8451H45.4681L42.3077 36.3006L41.9883 45.8039H37.8589Z" fill="white"/>
<path d="M66.4017 46.1945C65.2477 46.2073 64.1026 45.9922 63.0321 45.5613C62.026 45.1587 61.1148 44.5512 60.3562 43.7774C59.5967 42.9967 58.9981 42.0745 58.5943 41.063C57.75 38.8731 57.75 36.4475 58.5943 34.2576C58.9969 33.2504 59.5958 32.3333 60.3562 31.5597C61.118 30.7912 62.0285 30.1861 63.0321 29.7813C65.1989 28.9459 67.599 28.9459 69.7658 29.7813C70.772 30.1872 71.6859 30.7921 72.4527 31.5597C73.2202 32.3275 73.8202 33.2462 74.2146 34.2576C75.0444 36.4502 75.0444 38.8704 74.2146 41.063C73.8201 42.0772 73.2218 42.9997 72.4566 43.7734C71.6914 44.5471 70.7756 45.1556 69.7658 45.5613C68.697 45.9917 67.5538 46.2069 66.4017 46.1945ZM66.4017 42.1587C67.1806 42.1882 67.9497 41.9767 68.6041 41.553C69.1979 41.1379 69.6649 40.566 69.953 39.9012C70.2584 39.1859 70.4158 38.4161 70.4158 37.6383C70.4158 36.8605 70.2584 36.0907 69.953 35.3753C69.6677 34.7088 69.2001 34.1363 68.6041 33.7236C67.9514 33.2956 67.1815 33.0819 66.4017 33.1124C65.6382 33.089 64.8862 33.3025 64.2489 33.7236C63.65 34.1361 63.1788 34.7084 62.8889 35.3753C62.5729 36.0879 62.4097 36.8588 62.4097 37.6383C62.4097 38.4178 62.5729 39.1886 62.8889 39.9012C63.181 40.5668 63.6517 41.1385 64.2489 41.553C64.8879 41.9698 65.6391 42.1812 66.4017 42.1587Z" fill="white"/>
<path d="M77.7274 45.8039V29.5889H82.0386V35.5243H88.018V29.5889H92.3237V45.8039H88.018V39.461H82.0386V45.8039H77.7274Z" fill="white"/>
<path d="M98.6885 39.2682V35.7168H101.095C101.609 35.7329 102.121 35.6331 102.592 35.425C102.786 35.3256 102.946 35.1711 103.051 34.981C103.157 34.7909 103.204 34.5737 103.187 34.3569C103.187 33.3823 102.438 32.8978 100.951 32.8978C100.274 32.8724 99.6015 33.0262 99.0023 33.3438C98.479 33.6501 98.004 34.0323 97.5928 34.478L95.0656 32.0719C95.8111 31.0887 96.8104 30.3273 97.9562 29.8695C99.0284 29.4251 100.176 29.1914 101.337 29.1813C102.363 29.1688 103.382 29.3461 104.343 29.7043C105.184 30.0103 105.924 30.544 106.479 31.246C107.019 31.957 107.299 32.8314 107.272 33.7237C107.294 34.5681 107.064 35.3998 106.612 36.1133C106.177 36.7855 105.538 37.3008 104.789 37.5834C105.702 37.7945 106.506 38.3308 107.052 39.092C107.55 39.8012 107.814 40.6482 107.806 41.5146C107.826 42.4326 107.524 43.3287 106.953 44.0473C106.338 44.7787 105.537 45.3304 104.635 45.6441C103.544 46.0271 102.394 46.2135 101.238 46.1947C99.9728 46.1938 98.7206 45.9411 97.5543 45.4513C96.413 44.9931 95.4055 44.2546 94.6251 43.304L97.1579 40.8208C97.6168 41.2793 98.1398 41.6687 98.7105 41.9771C99.4348 42.3357 100.238 42.5061 101.045 42.4726C101.705 42.5066 102.363 42.37 102.956 42.0762C103.179 41.9497 103.363 41.7629 103.486 41.537C103.608 41.3112 103.665 41.0554 103.649 40.7988C103.679 40.5596 103.637 40.3171 103.531 40.101C103.424 39.8848 103.257 39.7045 103.049 39.582C102.609 39.3627 102.121 39.2549 101.629 39.2682H98.6885Z" fill="white"/>
<path d="M114.078 29.5889H125.117V42.1094H126.84V49.5534H123.047V45.8039H113.136V49.5534H109.464V42.1094H111.071C111.708 41.1291 112.215 40.0705 112.58 38.96C113.004 37.6432 113.317 36.2932 113.516 34.9241C113.758 33.3935 113.945 31.6151 114.078 29.5889ZM121.054 42.1094V33.2999H117.723C117.559 34.8675 117.316 36.4258 116.996 37.9689C116.714 39.4253 116.205 40.8281 115.487 42.1259L121.054 42.1094Z" fill="white"/>
<path d="M129.39 45.8044V29.5894H135.997C137.514 29.5152 139.005 30.0056 140.181 30.9658C141.231 31.8798 141.758 33.2123 141.762 34.9632C141.784 35.9718 141.531 36.9675 141.029 37.8428C140.558 38.6515 139.867 39.3101 139.036 39.7423C138.133 40.2013 137.131 40.4302 136.118 40.4085H133.591V45.8044H129.39ZM133.596 37.0279H135.639C135.896 37.0421 136.154 37.0003 136.393 36.9052C136.633 36.8101 136.849 36.6641 137.027 36.4773C137.372 36.0801 137.553 35.5662 137.533 35.0402C137.561 34.5036 137.388 33.9758 137.049 33.5591C136.865 33.3669 136.64 33.2178 136.392 33.1226C136.143 33.0274 135.877 32.9884 135.611 33.0085H133.596V37.0279Z" fill="white"/>
<path d="M140.952 45.8039L146.91 29.5889H151.865L157.602 45.8039H152.955L151.909 42.4508H146.486L145.417 45.8039H140.952ZM147.361 39.3124H151.034L149.211 33.3604L147.361 39.3124Z" fill="white"/>
<path d="M159.76 45.8037V29.5887H166.368C167.33 29.5633 168.29 29.6859 169.214 29.9521C169.865 30.1426 170.464 30.4798 170.965 30.9377C171.364 31.3168 171.671 31.782 171.863 32.2976C172.038 32.7832 172.127 33.2956 172.127 33.8118C172.141 34.3739 172.008 34.93 171.741 35.425C171.503 35.8612 171.185 36.2494 170.805 36.5703C170.498 36.8333 170.148 37.0418 169.77 37.1869C170.251 37.3373 170.709 37.5542 171.13 37.8311C171.653 38.1673 172.101 38.6078 172.446 39.125C172.835 39.7292 173.027 40.4389 172.997 41.1567C172.997 42.7644 172.446 43.9097 171.312 44.686C170.178 45.4624 168.531 45.7872 166.357 45.7872L159.76 45.8037ZM163.967 36.1078H165.839C166.316 36.1148 166.785 35.9828 167.188 35.7278C167.394 35.5835 167.557 35.3871 167.661 35.1587C167.766 34.9304 167.808 34.6783 167.783 34.4284C167.814 34.1623 167.774 33.8924 167.665 33.6473C167.557 33.4022 167.384 33.1908 167.166 33.0354C166.765 32.7946 166.307 32.6671 165.839 32.6665H163.967V36.1078ZM163.967 42.7149H166.169C166.54 42.7146 166.909 42.674 167.271 42.5938C167.644 42.5126 167.983 42.3207 168.245 42.0432C168.541 41.6818 168.685 41.22 168.647 40.7548C168.664 40.5337 168.638 40.3114 168.569 40.1007C168.5 39.8899 168.39 39.6949 168.245 39.5269C167.98 39.2534 167.642 39.0622 167.271 38.9764C166.911 38.8855 166.541 38.8393 166.169 38.8387H163.967V42.7149Z" fill="white"/>
<path d="M8.90866 46.0131C13.7801 46.0131 17.7292 42.064 17.7292 37.1926C17.7292 32.3212 13.7801 28.3721 8.90866 28.3721C4.03722 28.3721 0.0881348 32.3212 0.0881348 37.1926C0.0881348 42.064 4.03722 46.0131 8.90866 46.0131Z" fill="white"/>
</svg>
