<svg width="29" height="28" viewBox="0 0 29 28" fill="none" xmlns="http://www.w3.org/2000/svg">
<circle cx="14.918" cy="14" r="14" fill="#D3145B"/>
<path d="M14.7659 14.6739L21.0398 9.51304C20.6541 9.18388 20.1642 9.0021 19.6572 9H10.0919C9.57979 9.00408 9.08552 9.18885 8.69629 9.52174L14.7659 14.6739Z" fill="white"/>
<path d="M14.7571 15.4652L8.26145 10.013C8.03935 10.3597 7.92023 10.7622 7.91797 11.1739L7.91797 16.8261C7.91797 17.1116 7.9742 17.3943 8.08345 17.658C8.1927 17.9218 8.35283 18.1614 8.55469 18.3633C8.96238 18.771 9.51532 19 10.0919 19H19.6571C19.9426 19 20.2253 18.9438 20.489 18.8345C20.7528 18.7253 20.9924 18.5651 21.1943 18.3633C21.3962 18.1614 21.5563 17.9218 21.6655 17.658C21.7748 17.3943 21.831 17.1116 21.831 16.8261V11.1739C21.8304 10.7567 21.708 10.3487 21.4788 10L14.7571 15.4652Z" fill="white"/>
</svg>
