<svg width="28" height="28" viewBox="0 0 28 28" fill="none" xmlns="http://www.w3.org/2000/svg">
<circle cx="14" cy="14" r="14" fill="#D3145B"/>
<path d="M20 11.7446C20 10.221 19.3679 8.75988 18.2426 7.68256C17.1174 6.60523 15.5913 6 14 6C12.4087 6 10.8826 6.60523 9.75736 7.68256C8.63214 8.75988 8 10.221 8 11.7446C7.99933 12.8619 8.34229 13.9547 8.98609 14.8867L9.01217 14.9266L10.6974 17.3194L12.0957 19.3175L12.6591 20.1018L14 22L15.3409 20.1018L16.5043 18.4483L17.1722 17.5042L17.3078 17.3094L18.9774 14.9366V14.9067C19.638 13.973 19.994 12.8724 20 11.7446ZM14.0209 14.3971C13.3809 14.3971 12.7552 14.2154 12.2232 13.8748C11.6911 13.5343 11.2765 13.0503 11.0318 12.4841C10.7871 11.9179 10.7234 11.2949 10.8486 10.694C10.9739 10.0931 11.2825 9.54122 11.7354 9.10829C12.1883 8.67535 12.7652 8.38077 13.393 8.26184C14.0208 8.1429 14.6714 8.20495 15.2624 8.44012C15.8534 8.6753 16.3582 9.07304 16.713 9.58301C17.0678 10.093 17.2567 10.6923 17.2557 11.305C17.2543 12.1256 16.9129 12.912 16.3064 13.4918C15.6999 14.0715 14.8779 14.3971 14.0209 14.3971Z" fill="white"/>
</svg>
