<svg width="29" height="28" viewBox="0 0 29 28" fill="none" xmlns="http://www.w3.org/2000/svg">
<path d="M14.043 0C14.6263 0 15.2096 0 15.793 0C15.863 0.0153125 15.933 0.0335417 16.0037 0.0452083C16.8721 0.194687 17.7566 0.28 18.6061 0.502396C23.7861 1.8601 27.8395 6.32552 28.705 11.5872C28.7889 12.0976 28.848 12.6124 28.918 13.125C28.918 13.7083 28.918 14.2917 28.918 14.875C28.9027 14.9457 28.8779 15.015 28.8728 15.0865C28.6868 17.4964 27.9423 19.7203 26.589 21.7211C24.3578 25.0199 21.2785 27.0514 17.3563 27.7827C16.8393 27.879 16.3143 27.9285 15.793 28C15.2096 28 14.6263 28 14.043 28C13.9817 27.9854 13.9219 27.9614 13.8599 27.957C11.4311 27.7725 9.19036 27.0236 7.17568 25.6557C3.88932 23.4245 1.8637 20.3518 1.13526 16.4391C1.03974 15.9221 0.989427 15.3971 0.917969 14.875C0.917969 14.2917 0.917969 13.7083 0.917969 13.125C0.980677 12.6481 1.02807 12.1691 1.10828 11.6951C1.59901 8.80031 2.86922 6.29417 4.9262 4.20146C7.02401 2.06792 9.55203 0.729167 12.5059 0.214375C13.0156 0.125417 13.5304 0.0707292 14.043 0ZM14.7255 18.4392C14.7969 18.488 14.8589 18.5267 14.9172 18.5697C15.9665 19.3419 17.0143 20.1162 18.0636 20.8877C18.8081 21.4353 19.3207 21.2377 19.5132 20.3328C20.0374 17.8668 20.5624 15.4015 21.0867 12.9354C21.3215 11.8315 21.5614 10.729 21.7853 9.62281C21.8596 9.25458 21.9129 8.86302 21.5811 8.57865C21.2566 8.30083 20.9132 8.45687 20.5778 8.58594C17.2426 9.87365 13.9066 11.1592 10.5714 12.4469C9.42589 12.8895 8.27891 13.3284 7.13849 13.7842C6.88766 13.8841 6.59891 14.0292 6.6288 14.3544C6.65797 14.6621 6.95911 14.7401 7.21068 14.8196C8.2512 15.1492 9.29536 15.4671 10.3344 15.8032C10.5473 15.8718 10.7048 15.8411 10.8901 15.7237C13.4064 14.1312 15.9271 12.546 18.4479 10.9601C18.5711 10.8828 18.6951 10.7953 18.8307 10.7552C18.9284 10.7268 19.0472 10.7705 19.1566 10.7822C19.1114 10.8639 19.0779 10.955 19.0181 11.0243C18.9349 11.1198 18.8329 11.1993 18.7381 11.2846C16.7562 13.0747 14.7758 14.8655 12.7903 16.6512C12.6349 16.7905 12.5708 16.9349 12.5606 17.142C12.5278 17.8062 12.4702 18.4691 12.4242 19.1326C12.3951 19.549 12.3695 19.9653 12.3426 20.3875C12.6298 20.4123 12.818 20.2774 12.9922 20.1097C13.5683 19.5541 14.1458 18.9984 14.7255 18.4392Z" fill="#D3145B"/>
</svg>
