<svg width="29" height="28" viewBox="0 0 29 28" fill="none" xmlns="http://www.w3.org/2000/svg">
<path d="M0.917969 14.8888C0.917969 14.3065 0.917969 13.7234 0.917969 13.141C0.950845 12.89 0.985182 12.6382 1.0166 12.3872C1.47686 8.66529 3.15062 5.58782 6.04152 3.21312C10.5799 -0.514576 16.8278 -1.06483 21.8914 1.90901C26.4079 4.56175 28.753 8.59815 28.9116 13.8358C28.9985 16.6972 28.2 19.3456 26.5971 21.7217C24.371 25.0218 21.2858 27.052 17.3604 27.7833C16.8431 27.8796 16.3178 27.9292 15.7962 28C15.2125 28 14.6295 28 14.0457 28C13.9756 27.9847 13.9062 27.9606 13.8353 27.9548C11.046 27.7329 8.53498 26.7784 6.33594 25.0517C3.50641 22.8303 1.7596 19.944 1.12691 16.398C1.03851 15.8981 0.986643 15.3916 0.917969 14.8888ZM11.8686 9.56437C11.9417 9.58773 11.9994 9.61108 12.06 9.62568C12.5334 9.74098 12.8264 10.0271 12.9009 10.5153C12.9323 10.7218 12.9659 10.9291 12.9762 11.1378C13.0164 11.9289 13.0682 12.7228 12.8469 13.4971C12.7102 13.9751 12.3976 14.07 12.0396 13.7263C11.7729 13.4701 11.5384 13.1731 11.328 12.8673C10.6814 11.9274 10.1561 10.9203 9.72875 9.86285C9.59651 9.53664 9.37369 9.32136 9.0179 9.31771C8.14339 9.30822 7.26743 9.30676 6.39293 9.33084C5.91001 9.34398 5.76244 9.60597 5.96262 10.0482C6.89703 12.1164 7.94467 14.1211 9.30282 15.9492C10.1569 17.0986 11.16 18.0663 12.502 18.6428C13.4912 19.0675 14.5243 19.1412 15.5807 19.112C16.2397 19.0938 16.4033 18.9201 16.4654 18.2772C16.5049 17.8692 16.6035 17.4518 16.762 17.0738C16.9155 16.7074 17.2581 16.6439 17.5781 16.8826C17.8382 17.0767 18.0647 17.319 18.2933 17.5525C18.6374 17.9035 18.953 18.2837 19.3118 18.6173C19.6719 18.953 20.1052 19.1653 20.6173 19.1595C21.3829 19.1507 22.1486 19.1471 22.9135 19.1274C23.1203 19.1223 23.3343 19.0938 23.5301 19.0303C23.9349 18.8997 24.0737 18.5903 23.8764 18.2152C23.712 17.9035 23.525 17.5912 23.289 17.3329C22.7433 16.7352 22.1603 16.171 21.5948 15.5916C21.4428 15.4354 21.2909 15.2771 21.1528 15.1092C20.9672 14.883 20.9446 14.6283 21.0812 14.37C21.1703 14.2014 21.2646 14.0335 21.3778 13.881C21.7241 13.4125 22.1026 12.9659 22.4277 12.4842C22.9099 11.7698 23.4008 11.0546 23.8077 10.2971C24.1657 9.62932 23.9166 9.31406 23.1553 9.32793C22.2531 9.34471 21.3508 9.35639 20.4493 9.36514C19.859 9.37098 19.7976 9.40601 19.5791 9.94897C19.1839 10.9312 18.7054 11.8705 18.0939 12.736C17.8484 13.0834 17.5759 13.4191 17.2712 13.7146C16.9447 14.0321 16.6685 13.9365 16.5166 13.5008C16.4837 13.4074 16.4588 13.3074 16.4537 13.2089C16.4384 12.9184 16.4252 12.6272 16.4267 12.3368C16.4325 11.4727 16.461 10.608 16.4508 9.7439C16.4457 9.32574 16.2528 9.08418 15.8824 9.00828C14.7719 8.78205 13.6549 8.80395 12.5451 9.01339C12.2478 9.06812 11.9921 9.23889 11.8686 9.56437Z" fill="#D3145B"/>
</svg>
