<svg width="29" height="28" viewBox="0 0 29 28" fill="none" xmlns="http://www.w3.org/2000/svg">
<path d="M0.917969 14.8776C0.917969 14.294 0.917969 13.7111 0.917969 13.1275C0.93401 13.0486 0.95224 12.9697 0.966823 12.8901C1.12651 11.9961 1.21328 11.0816 1.45536 10.2103C3.89807 1.41694 14.0058 -2.69816 21.9347 1.90485C25.6717 4.07488 27.9176 7.35805 28.7072 11.617C28.7998 12.1166 28.8487 12.6243 28.918 13.1275C28.918 13.6928 28.918 14.2574 28.918 14.8228C28.9027 14.9104 28.8837 14.9973 28.8713 15.0857C28.7955 15.635 28.7473 16.1901 28.6416 16.7335C27.5515 22.3693 22.9913 26.8219 17.3279 27.7853C16.8189 27.8722 16.3041 27.9291 15.7922 28C15.2089 28 14.6256 28 14.0422 28C13.9817 27.9847 13.9227 27.9591 13.8614 27.9554C12.6751 27.8714 11.5128 27.6531 10.3979 27.2396C5.31411 25.3567 2.22828 21.7499 1.13964 16.4406C1.03391 15.9257 0.990156 15.3991 0.917969 14.8776ZM14.9158 6.98189C14.5716 7.0133 14.2238 7.02425 13.8833 7.07903C9.25016 7.82478 6.68203 12.6615 8.64714 16.9242C8.69526 17.0293 8.71203 17.1696 8.69016 17.2828C8.47724 18.363 8.25047 19.4404 8.03245 20.5192C7.94932 20.929 8.07547 21.0502 8.47505 20.9567C9.51995 20.7113 10.5634 20.4593 11.6105 20.2227C11.741 20.1934 11.9051 20.2022 12.0254 20.2563C13.1556 20.761 14.331 20.9633 15.5662 20.8523C19.4031 20.5061 22.2439 17.033 21.8195 13.194C21.428 9.65517 18.4617 6.99431 14.9158 6.98189Z" fill="#D3145B"/>
<path d="M9.86268 19.0798C9.99247 18.4399 10.0931 17.8483 10.2382 17.2691C10.3111 16.9784 10.2491 16.7512 10.1208 16.497C8.6909 13.6675 9.81528 10.3405 12.6364 9.03012C16.2567 7.34873 20.3911 10.0198 20.3452 14.01C20.2992 17.9812 16.1707 20.5588 12.5854 18.8373C12.1719 18.6386 11.8059 18.5787 11.3699 18.7146C10.8952 18.8628 10.4015 18.9527 9.86268 19.0798ZM11.3553 12.3418C11.4588 12.7252 11.5303 13.1204 11.6717 13.4885C11.9408 14.1875 12.4089 14.7609 12.9325 15.2875C13.7681 16.1282 14.6788 16.8622 15.8426 17.2012C17.0523 17.5532 17.8711 17.272 18.5048 16.3086C18.7702 15.9047 18.6528 15.5643 18.1949 15.4241C17.9513 15.3496 17.6961 15.305 17.4635 15.2064C16.9319 14.9807 16.4901 15.0165 16.1255 15.522C15.9702 15.7367 15.7288 15.7513 15.4875 15.6154C14.6336 15.1356 13.9147 14.503 13.3313 13.7171C13.1461 13.4673 13.1556 13.276 13.3444 13.0225C13.4203 12.9203 13.5297 12.8311 13.5705 12.7172C13.6259 12.5638 13.6937 12.3688 13.6441 12.2322C13.4764 11.7721 13.2708 11.3243 13.0572 10.8824C12.9274 10.6144 12.6131 10.5143 12.3863 10.6816C11.8351 11.0891 11.4034 11.58 11.3553 12.3418Z" fill="#D3145B"/>
</svg>
